Bitter-ThinItalic.ufo
<glyph name="comma" format="2">
  <advance width="164"/>
  <unicode hex="002C"/>
  <outline>
    <contour>
      <point x="17" y="24" type="curve" smooth="yes"/>
      <point x="17" y="9"/>
      <point x="25" y="5"/>
      <point x="25" y="-6" type="curve" smooth="yes"/>
      <point x="25" y="-17"/>
      <point x="15" y="-49"/>
      <point x="-33" y="-107" type="curve"/>
      <point x="-23" y="-118" type="line"/>
      <point x="42" y="-53"/>
      <point x="66" y="5"/>
      <point x="66" y="27" type="curve" smooth="yes"/>
      <point x="66" y="42"/>
      <point x="56" y="52"/>
      <point x="43" y="52" type="curve" smooth="yes"/>
      <point x="30" y="52"/>
      <point x="17" y="42"/>
    </contour>
  </outline>
</glyph>
<glyph name="two" format="2">
  <advance width="512"/>
  <unicode hex="0032"/>
  <outline>
    <contour>
      <point x="11" y="0" type="line"/>
      <point x="414" y="0" type="line"/>
      <point x="418" y="21" type="line"/>
      <point x="38" y="21" type="line"/>
      <point x="39" y="16" type="line"/>
      <point x="237" y="192"/>
      <point x="476" y="385"/>
      <point x="476" y="561" type="curve" smooth="yes"/>
      <point x="476" y="657"/>
      <point x="406" y="698"/>
      <point x="308" y="698" type="curve" smooth="yes"/>
      <point x="251" y="698"/>
      <point x="185" y="684"/>
      <point x="116" y="659" type="curve"/>
      <point x="102" y="526" type="line"/>
      <point x="116" y="526" type="line"/>
      <point x="147" y="657" type="line"/>
      <point x="141" y="649" type="line"/>
      <point x="201" y="667"/>
      <point x="258" y="678"/>
      <point x="306" y="678" type="curve" smooth="yes"/>
      <point x="397" y="678"/>
      <point x="455" y="638"/>
      <point x="455" y="557" type="curve" smooth="yes"/>
      <point x="455" y="389"/>
      <point x="212" y="196"/>
      <point x="14" y="21" type="curve"/>
    </contour>
  </outline>
</glyph>
<glyph name="six" format="2">
  <advance width="566"/>
  <unicode hex="0036"/>
  <outline>
    <contour>
      <point x="102" y="300" type="line"/>
      <point x="177" y="356"/>
      <point x="262" y="385"/>
      <point x="334" y="385" type="curve" smooth="yes"/>
      <point x="420" y="385"/>
      <point x="479" y="343"/>
      <point x="479" y="242" type="curve" smooth="yes"/>
      <point x="479" y="120"/>
      <point x="392" y="14"/>
      <point x="258" y="14" type="curve" smooth="yes"/>
      <point x="155" y="14"/>
      <point x="100" y="77"/>
      <point x="100" y="220" type="curve" smooth="yes"/>
      <point x="100" y="428"/>
      <point x="217" y="678"/>
      <point x="442" y="678" type="curve" smooth="yes"/>
      <point x="467" y="678"/>
      <point x="497" y="675"/>
      <point x="528" y="667" type="curve"/>
      <point x="534" y="686" type="line"/>
      <point x="503" y="694"/>
      <point x="472" y="698"/>
      <point x="443" y="698" type="curve" smooth="yes"/>
      <point x="201" y="698"/>
      <point x="79" y="426"/>
      <point x="79" y="217" type="curve" smooth="yes"/>
      <point x="79" y="66"/>
      <point x="143" y="-6"/>
      <point x="256" y="-6" type="curve" smooth="yes"/>
      <point x="399" y="-6"/>
      <point x="500" y="108"/>
      <point x="500" y="243" type="curve" smooth="yes"/>
      <point x="500" y="357"/>
      <point x="427" y="404"/>
      <point x="333" y="404" type="curve" smooth="yes"/>
      <point x="265" y="404"/>
      <point x="182" y="379"/>
      <point x="104" y="321" type="curve"/>
    </contour>
  </outline>
</glyph>
<glyph name="eight" format="2">
  <advance width="587"/>
  <unicode hex="0038"/>
  <outline>
    <contour>
      <point x="246" y="-5" type="curve" smooth="yes"/>
      <point x="374" y="-5"/>
      <point x="487" y="83"/>
      <point x="487" y="201" type="curve" smooth="yes"/>
      <point x="487" y="402"/>
      <point x="159" y="329"/>
      <point x="159" y="511" type="curve" smooth="yes"/>
      <point x="159" y="608"/>
      <point x="253" y="679"/>
      <point x="367" y="679" type="curve" smooth="yes"/>
      <point x="449" y="679"/>
      <point x="519" y="643"/>
      <point x="519" y="554" type="curve" smooth="yes"/>
      <point x="519" y="447"/>
      <point x="411" y="394"/>
      <point x="310" y="364" type="curve"/>
      <point x="328" y="357" type="line"/>
      <point x="434" y="383"/>
      <point x="539" y="441"/>
      <point x="539" y="556" type="curve" smooth="yes"/>
      <point x="539" y="654"/>
      <point x="463" y="698"/>
      <point x="369" y="698" type="curve" smooth="yes"/>
      <point x="245" y="698"/>
      <point x="139" y="621"/>
      <point x="139" y="509" type="curve" smooth="yes"/>
      <point x="139" y="313"/>
      <point x="465" y="386"/>
      <point x="465" y="198" type="curve" smooth="yes"/>
      <point x="465" y="94"/>
      <point x="365" y="14"/>
      <point x="248" y="14" type="curve" smooth="yes"/>
      <point x="152" y="14"/>
      <point x="91" y="68"/>
      <point x="91" y="156" type="curve" smooth="yes"/>
      <point x="91" y="272"/>
      <point x="196" y="334"/>
      <point x="298" y="369" type="curve"/>
      <point x="280" y="377" type="line"/>
      <point x="170" y="344"/>
      <point x="69" y="273"/>
      <point x="69" y="153" type="curve" smooth="yes"/>
      <point x="69" y="47"/>
      <point x="148" y="-5"/>
    </contour>
  </outline>
</glyph>
<glyph name="nine" format="2">
  <advance width="567"/>
  <unicode hex="0039"/>
  <outline>
    <contour>
      <point x="491" y="397" type="line"/>
      <point x="416" y="341"/>
      <point x="332" y="312"/>
      <point x="260" y="312" type="curve" smooth="yes"/>
      <point x="176" y="312"/>
      <point x="113" y="351"/>
      <point x="113" y="451" type="curve" smooth="yes"/>
      <point x="113" y="563"/>
      <point x="193" y="678"/>
      <point x="336" y="678" type="curve" smooth="yes"/>
      <point x="439" y="678"/>
      <point x="493" y="618"/>
      <point x="493" y="475" type="curve" smooth="yes"/>
      <point x="493" y="259"/>
      <point x="369" y="15"/>
      <point x="150" y="15" type="curve" smooth="yes"/>
      <point x="126" y="15"/>
      <point x="96" y="18"/>
      <point x="65" y="26" type="curve"/>
      <point x="59" y="7" type="line"/>
      <point x="90" y="-1"/>
      <point x="120" y="-5"/>
      <point x="149" y="-5" type="curve" smooth="yes"/>
      <point x="376" y="-5"/>
      <point x="514" y="249"/>
      <point x="514" y="478" type="curve" smooth="yes"/>
      <point x="514" y="634"/>
      <point x="450" y="698"/>
      <point x="339" y="698" type="curve" smooth="yes"/>
      <point x="186" y="698"/>
      <point x="92" y="578"/>
      <point x="92" y="452" type="curve" smooth="yes"/>
      <point x="92" y="342"/>
      <point x="163" y="293"/>
      <point x="258" y="293" type="curve" smooth="yes"/>
      <point x="329" y="293"/>
      <point x="412" y="321"/>
      <point x="489" y="379" type="curve"/>
    </contour>
  </outline>
</glyph>
<glyph name="greater" format="2">
  <advance width="525"/>
  <unicode hex="003E"/>
  <outline>
    <contour>
      <point x="105" y="541" type="line"/>
      <point x="97" y="524" type="line"/>
      <point x="464" y="357" type="line"/>
      <point x="462" y="365" type="line"/>
      <point x="44" y="186" type="line"/>
      <point x="50" y="168" type="line"/>
      <point x="474" y="350" type="line"/>
      <point x="477" y="371" type="line"/>
    </contour>
  </outline>
</glyph>
<glyph name="question" format="2">
  <advance width="368"/>
  <unicode hex="003F"/>
  <guideline x="101" y="97" angle="261"/>
  <guideline x="136" y="97" angle="261"/>
  <outline>
    <contour>
      <point x="106" y="214" type="curve"/>
      <point x="125" y="212" type="line"/>
      <point x="127" y="226"/>
      <point x="130" y="242"/>
      <point x="132" y="253" type="curve" smooth="yes"/>
      <point x="159" y="417"/>
      <point x="364" y="441"/>
      <point x="364" y="597" type="curve" smooth="yes"/>
      <point x="364" y="671"/>
      <point x="312" y="698"/>
      <point x="242" y="698" type="curve" smooth="yes"/>
      <point x="205" y="698"/>
      <point x="162" y="690"/>
      <point x="120" y="674" type="curve"/>
      <point x="125" y="657" type="line"/>
      <point x="165" y="671"/>
      <point x="206" y="679"/>
      <point x="241" y="679" type="curve" smooth="yes"/>
      <point x="300" y="679"/>
      <point x="343" y="657"/>
      <point x="343" y="594" type="curve" smooth="yes"/>
      <point x="343" y="453"/>
      <point x="139" y="430"/>
      <point x="112" y="255" type="curve" smooth="yes"/>
      <point x="110" y="243"/>
      <point x="108" y="229"/>
    </contour>
    <contour>
      <point x="86" y="0" type="curve" smooth="yes"/>
      <point x="100" y="0"/>
      <point x="114" y="11"/>
      <point x="114" y="29" type="curve" smooth="yes"/>
      <point x="114" y="45"/>
      <point x="104" y="52"/>
      <point x="93" y="52" type="curve" smooth="yes"/>
      <point x="79" y="52"/>
      <point x="65" y="41"/>
      <point x="65" y="23" type="curve" smooth="yes"/>
      <point x="65" y="10"/>
      <point x="72" y="0"/>
    </contour>
  </outline>
</glyph>
<glyph name="C" format="2">
  <advance width="631"/>
  <unicode hex="0043"/>
  <anchor x="311" y="0" name="bottom"/>
  <anchor x="452" y="692" name="top"/>
  <outline>
    <contour>
      <point x="310" y="-6" type="curve" smooth="yes"/>
      <point x="385" y="-6"/>
      <point x="467" y="27"/>
      <point x="541" y="93" type="curve"/>
      <point x="530" y="109" type="line"/>
      <point x="462" y="45"/>
      <point x="384" y="14"/>
      <point x="314" y="14" type="curve" smooth="yes"/>
      <point x="201" y="14"/>
      <point x="107" y="95"/>
      <point x="107" y="267" type="curve" smooth="yes"/>
      <point x="107" y="465"/>
      <point x="231" y="678"/>
      <point x="423" y="678" type="curve" smooth="yes"/>
      <point x="475" y="678"/>
      <point x="542" y="662"/>
      <point x="596" y="638" type="curve"/>
      <point x="590" y="646" type="line"/>
      <point x="579" y="516" type="line"/>
      <point x="594" y="516" type="line"/>
      <point x="619" y="650" type="line"/>
      <point x="553" y="683"/>
      <point x="483" y="698"/>
      <point x="429" y="698" type="curve" smooth="yes"/>
      <point x="222" y="698"/>
      <point x="86" y="481"/>
      <point x="86" y="267" type="curve" smooth="yes"/>
      <point x="86" y="82"/>
      <point x="187" y="-6"/>
    </contour>
  </outline>
</glyph>
<glyph name="D" format="2">
  <advance width="718"/>
  <unicode hex="0044"/>
  <guideline x="786" y="346" angle="261.0141"/>
  <anchor x="297" y="0" name="bottom"/>
  <anchor x="230" y="355" name="center"/>
  <anchor x="386" y="691" name="top"/>
  <outline>
    <contour>
      <point x="393" y="692" type="curve" smooth="yes"/>
      <point x="275" y="692" type="line"/>
      <point x="130" y="687" type="line"/>
      <point x="128" y="672" type="line"/>
      <point x="229" y="663" type="line"/>
      <point x="224" y="671" type="line"/>
      <point x="121" y="21" type="line"/>
      <point x="129" y="29" type="line"/>
      <point x="24" y="15" type="line"/>
      <point x="22" y="0" type="line"/>
      <point x="295" y="0" type="line" smooth="yes"/>
      <point x="517" y="0"/>
      <point x="659" y="210"/>
      <point x="659" y="429" type="curve" smooth="yes"/>
      <point x="659" y="616"/>
      <point x="555" y="692"/>
    </contour>
    <contour>
      <point x="297" y="19" type="curve" smooth="yes"/>
      <point x="133" y="19" type="line"/>
      <point x="139" y="14" type="line"/>
      <point x="244" y="678" type="line"/>
      <point x="236" y="673" type="line"/>
      <point x="387" y="673" type="line" smooth="yes"/>
      <point x="543" y="673"/>
      <point x="638" y="598"/>
      <point x="638" y="426" type="curve" smooth="yes"/>
      <point x="638" y="220"/>
      <point x="502" y="19"/>
    </contour>
  </outline>
</glyph>
<glyph name="F" format="2">
  <advance width="551"/>
  <unicode hex="0046"/>
  <guideline x="173" y="231" angle="261" identifier="459VGiaUjt"/>
  <guideline x="154" y="231" angle="261" identifier="pbKVnOOCu8"/>
  <anchor x="128" y="0" name="bottom"/>
  <anchor x="388" y="692" name="top"/>
  <outline>
    <contour>
      <point x="22" y="0" type="line"/>
      <point x="256" y="0" type="line"/>
      <point x="258" y="15" type="line"/>
      <point x="135" y="29" type="line"/>
      <point x="140" y="21" type="line"/>
      <point x="190" y="339" type="line"/>
      <point x="181" y="334" type="line"/>
      <point x="450" y="334" type="line"/>
      <point x="453" y="353" type="line"/>
      <point x="185" y="353" type="line"/>
      <point x="190" y="339" type="line"/>
      <point x="244" y="678" type="line"/>
      <point x="236" y="673" type="line"/>
      <point x="553" y="673" type="line"/>
      <point x="547" y="680" type="line"/>
      <point x="542" y="556" type="line"/>
      <point x="557" y="556" type="line"/>
      <point x="578" y="692" type="line"/>
      <point x="247" y="692" type="line"/>
      <point x="130" y="687" type="line"/>
      <point x="128" y="672" type="line"/>
      <point x="229" y="663" type="line"/>
      <point x="223" y="672" type="line"/>
      <point x="120" y="22" type="line"/>
      <point x="129" y="29" type="line"/>
      <point x="24" y="15" type="line"/>
    </contour>
  </outline>
</glyph>
<glyph name="S" format="2">
  <advance width="575"/>
  <unicode hex="0053"/>
  <guideline x="322" y="382" angle="261"/>
  <anchor x="262" y="0" name="bottom"/>
  <anchor x="370" y="692" name="top"/>
  <outline>
    <contour>
      <point x="222" y="-6" type="curve" smooth="yes"/>
      <point x="354" y="-6"/>
      <point x="475" y="65"/>
      <point x="475" y="197" type="curve" smooth="yes"/>
      <point x="475" y="407"/>
      <point x="161" y="328"/>
      <point x="161" y="514" type="curve" smooth="yes"/>
      <point x="161" y="620"/>
      <point x="264" y="679"/>
      <point x="374" y="679" type="curve" smooth="yes"/>
      <point x="422" y="679"/>
      <point x="471" y="668"/>
      <point x="514" y="644" type="curve"/>
      <point x="507" y="653" type="line"/>
      <point x="494" y="522" type="line"/>
      <point x="508" y="522" type="line"/>
      <point x="535" y="659" type="line"/>
      <point x="485" y="685"/>
      <point x="429" y="698"/>
      <point x="374" y="698" type="curve" smooth="yes"/>
      <point x="251" y="698"/>
      <point x="140" y="633"/>
      <point x="140" y="512" type="curve" smooth="yes"/>
      <point x="140" y="310"/>
      <point x="454" y="388"/>
      <point x="454" y="193" type="curve" smooth="yes"/>
      <point x="454" y="79"/>
      <point x="346" y="15"/>
      <point x="227" y="15" type="curve" smooth="yes"/>
      <point x="178" y="15"/>
      <point x="126" y="26"/>
      <point x="80" y="50" type="curve"/>
      <point x="83" y="41" type="line"/>
      <point x="92" y="175" type="line"/>
      <point x="78" y="175" type="line"/>
      <point x="51" y="36" type="line"/>
      <point x="104" y="8"/>
      <point x="164" y="-6"/>
    </contour>
  </outline>
</glyph>
<glyph name="U" format="2">
  <advance width="736"/>
  <unicode hex="0055"/>
  <guideline x="377" y="336" angle="81.023"/>
  <anchor x="327" y="0" name="bottom"/>
  <anchor x="396" y="0" name="ogonek"/>
  <anchor x="433" y="692" name="top"/>
  <anchor x="747" y="690" name="topright"/>
  <outline>
    <contour>
      <point x="550" y="687" type="line"/>
      <point x="548" y="672" type="line"/>
      <point x="649" y="664" type="line"/>
      <point x="643" y="671" type="line"/>
      <point x="577" y="255" type="line" smooth="yes"/>
      <point x="553" y="102"/>
      <point x="494" y="13"/>
      <point x="324" y="13" type="curve" smooth="yes"/>
      <point x="197" y="13"/>
      <point x="148" y="63"/>
      <point x="148" y="168" type="curve" smooth="yes"/>
      <point x="148" y="191"/>
      <point x="151" y="216"/>
      <point x="155" y="244" type="curve" smooth="yes"/>
      <point x="223" y="671" type="line"/>
      <point x="215" y="663" type="line"/>
      <point x="320" y="677" type="line"/>
      <point x="322" y="692" type="line"/>
      <point x="109" y="687" type="line"/>
      <point x="107" y="672" type="line"/>
      <point x="209" y="663" type="line"/>
      <point x="203" y="671" type="line"/>
      <point x="135" y="246" type="line" smooth="yes"/>
      <point x="130" y="218"/>
      <point x="128" y="192"/>
      <point x="128" y="168" type="curve" smooth="yes"/>
      <point x="128" y="53"/>
      <point x="185" y="-6"/>
      <point x="324" y="-6" type="curve" smooth="yes"/>
      <point x="503" y="-6"/>
      <point x="571" y="89"/>
      <point x="597" y="253" type="curve" smooth="yes"/>
      <point x="663" y="671" type="line"/>
      <point x="654" y="663" type="line"/>
      <point x="761" y="677" type="line"/>
      <point x="763" y="692" type="line"/>
    </contour>
  </outline>
</glyph>
<glyph name="Y" format="2">
  <advance width="610"/>
  <unicode hex="0059"/>
  <anchor x="263" y="0" name="bottom"/>
  <anchor x="373" y="692" name="top"/>
  <outline>
    <contour>
      <point x="158" y="0" type="line"/>
      <point x="369" y="0" type="line"/>
      <point x="371" y="15" type="line"/>
      <point x="271" y="29" type="line"/>
      <point x="276" y="21" type="line"/>
      <point x="314" y="268" type="line"/>
      <point x="309" y="251" type="line"/>
      <point x="582" y="670" type="line"/>
      <point x="571" y="663" type="line"/>
      <point x="671" y="677" type="line"/>
      <point x="673" y="692" type="line"/>
      <point x="450" y="687" type="line"/>
      <point x="448" y="672" type="line"/>
      <point x="565" y="664" type="line"/>
      <point x="562" y="670" type="line"/>
      <point x="304" y="275" type="line"/>
      <point x="310" y="275" type="line"/>
      <point x="179" y="670" type="line"/>
      <point x="174" y="663" type="line"/>
      <point x="297" y="677" type="line"/>
      <point x="299" y="692" type="line"/>
      <point x="73" y="687" type="line"/>
      <point x="70" y="672" type="line"/>
      <point x="168" y="663" type="line"/>
      <point x="159" y="670" type="line"/>
      <point x="298" y="251" type="line"/>
      <point x="296" y="268" type="line"/>
      <point x="257" y="21" type="line"/>
      <point x="265" y="29" type="line"/>
      <point x="160" y="15" type="line"/>
    </contour>
  </outline>
</glyph>
<glyph name="Z" format="2">
  <advance width="576"/>
  <unicode hex="005A"/>
  <anchor x="243" y="0" name="bottom"/>
  <anchor x="358" y="692" name="top"/>
  <outline>
    <contour>
      <point x="16" y="0" type="line"/>
      <point x="469" y="0" type="line"/>
      <point x="495" y="137" type="line"/>
      <point x="480" y="137" type="line"/>
      <point x="441" y="13" type="line"/>
      <point x="455" y="20" type="line"/>
      <point x="38" y="20" type="line"/>
      <point x="41" y="14" type="line"/>
      <point x="572" y="676" type="line"/>
      <point x="572" y="692" type="line"/>
      <point x="144" y="692" type="line"/>
      <point x="122" y="556" type="line"/>
      <point x="136" y="556" type="line"/>
      <point x="170" y="679" type="line"/>
      <point x="160" y="672" type="line"/>
      <point x="552" y="672" type="line"/>
      <point x="550" y="678" type="line"/>
      <point x="16" y="16" type="line"/>
    </contour>
  </outline>
</glyph>
<glyph name="c" format="2">
  <advance width="476"/>
  <unicode hex="0063"/>
  <guideline x="287" y="416" angle="261"/>
  <anchor x="221" y="0" name="bottom"/>
  <anchor x="304" y="522" name="top"/>
  <outline>
    <contour>
      <point x="224" y="-6" type="curve" smooth="yes"/>
      <point x="275" y="-6"/>
      <point x="333" y="12"/>
      <point x="389" y="47" type="curve"/>
      <point x="380" y="63" type="line"/>
      <point x="328" y="31"/>
      <point x="275" y="14"/>
      <point x="228" y="14" type="curve" smooth="yes"/>
      <point x="143" y="14"/>
      <point x="79" y="68"/>
      <point x="79" y="198" type="curve" smooth="yes"/>
      <point x="79" y="362"/>
      <point x="182" y="509"/>
      <point x="320" y="509" type="curve" smooth="yes"/>
      <point x="355" y="509"/>
      <point x="392" y="499"/>
      <point x="430" y="479" type="curve"/>
      <point x="426" y="488" type="line"/>
      <point x="422" y="382" type="line"/>
      <point x="440" y="382" type="line"/>
      <point x="458" y="486" type="line"/>
      <point x="412" y="515"/>
      <point x="365" y="528"/>
      <point x="322" y="528" type="curve" smooth="yes"/>
      <point x="175" y="528"/>
      <point x="58" y="378"/>
      <point x="58" y="197" type="curve" smooth="yes"/>
      <point x="58" y="55"/>
      <point x="130" y="-6"/>
    </contour>
  </outline>
</glyph>
<glyph name="d" format="2">
  <advance width="580"/>
  <unicode hex="0064"/>
  <anchor x="251" y="0" name="bottom"/>
  <anchor x="293" y="261" name="center"/>
  <anchor x="334" y="522" name="top"/>
  <anchor x="638" y="762" name="topright"/>
  <outline>
    <contour>
      <point x="192" y="-6" type="curve" smooth="yes"/>
      <point x="270" y="-6"/>
      <point x="379" y="60"/>
      <point x="438" y="221" type="curve"/>
      <point x="432" y="220" type="line"/>
      <point x="397" y="-2" type="line"/>
      <point x="504" y="2" type="line"/>
      <point x="506" y="17" type="line"/>
      <point x="413" y="29" type="line"/>
      <point x="420" y="19" type="line"/>
      <point x="538" y="765" type="line"/>
      <point x="426" y="760" type="line"/>
      <point x="424" y="746" type="line"/>
      <point x="520" y="732" type="line"/>
      <point x="514" y="739" type="line"/>
      <point x="473" y="480" type="line"/>
      <point x="481" y="485" type="line"/>
      <point x="427" y="517"/>
      <point x="380" y="528"/>
      <point x="337" y="528" type="curve" smooth="yes"/>
      <point x="176" y="528"/>
      <point x="58" y="372"/>
      <point x="58" y="185" type="curve" smooth="yes"/>
      <point x="58" y="52"/>
      <point x="118" y="-6"/>
    </contour>
    <contour>
      <point x="193" y="13" type="curve" smooth="yes"/>
      <point x="130" y="13"/>
      <point x="79" y="64"/>
      <point x="79" y="186" type="curve" smooth="yes"/>
      <point x="79" y="363"/>
      <point x="187" y="509"/>
      <point x="336" y="509" type="curve" smooth="yes"/>
      <point x="381" y="509"/>
      <point x="428" y="496"/>
      <point x="478" y="467" type="curve"/>
      <point x="473" y="479" type="line"/>
      <point x="450" y="335" type="line"/>
      <point x="413" y="111"/>
      <point x="281" y="13"/>
    </contour>
  </outline>
</glyph>
<glyph name="h" format="2">
  <advance width="581"/>
  <unicode hex="0068"/>
  <anchor x="247" y="0" name="bottom"/>
  <anchor x="176" y="627" name="center"/>
  <anchor x="167" y="692" name="top"/>
  <outline>
    <contour>
      <point x="407" y="-2" type="line"/>
      <point x="514" y="2" type="line"/>
      <point x="516" y="17" type="line"/>
      <point x="426" y="29" type="line"/>
      <point x="431" y="22" type="line"/>
      <point x="485" y="360" type="line" smooth="yes"/>
      <point x="504" y="477"/>
      <point x="448" y="528"/>
      <point x="375" y="528" type="curve" smooth="yes"/>
      <point x="297" y="528"/>
      <point x="192" y="470"/>
      <point x="129" y="301" type="curve"/>
      <point x="134" y="302" type="line"/>
      <point x="209" y="765" type="line"/>
      <point x="102" y="760" type="line"/>
      <point x="100" y="745" type="line"/>
      <point x="191" y="732" type="line"/>
      <point x="185" y="742" type="line"/>
      <point x="67" y="0" type="line"/>
      <point x="87" y="0" type="line"/>
      <point x="117" y="187" type="line" smooth="yes"/>
      <point x="153" y="412"/>
      <point x="284" y="509"/>
      <point x="375" y="509" type="curve" smooth="yes"/>
      <point x="435" y="509"/>
      <point x="482" y="467"/>
      <point x="465" y="361" type="curve" smooth="yes"/>
    </contour>
  </outline>
</glyph>
<glyph name="p" format="2">
  <advance width="581"/>
  <unicode hex="0070"/>
  <anchor x="244" y="0" name="bottom"/>
  <anchor x="326" y="522" name="top"/>
  <outline>
    <contour>
      <point x="-42" y="-230" type="line"/>
      <point x="162" y="-230" type="line"/>
      <point x="164" y="-215" type="line"/>
      <point x="59" y="-201" type="line"/>
      <point x="67" y="-209" type="line"/>
      <point x="103" y="16" type="line"/>
      <point x="83" y="15" type="line"/>
      <point x="339" y="-61"/>
      <point x="522" y="78"/>
      <point x="522" y="337" type="curve" smooth="yes"/>
      <point x="522" y="471"/>
      <point x="462" y="528"/>
      <point x="388" y="528" type="curve" smooth="yes"/>
      <point x="310" y="528"/>
      <point x="201" y="462"/>
      <point x="142" y="301" type="curve"/>
      <point x="147" y="293" type="line"/>
      <point x="184" y="525" type="line"/>
      <point x="77" y="520" type="line"/>
      <point x="75" y="505" type="line"/>
      <point x="168" y="492" type="line"/>
      <point x="160" y="502" type="line"/>
      <point x="47" y="-209" type="line"/>
      <point x="54" y="-201" type="line"/>
      <point x="-40" y="-215" type="line"/>
    </contour>
    <contour>
      <point x="103" y="15" type="line"/>
      <point x="130" y="187" type="line" smooth="yes"/>
      <point x="165" y="411"/>
      <point x="299" y="509"/>
      <point x="387" y="509" type="curve" smooth="yes"/>
      <point x="450" y="509"/>
      <point x="501" y="458"/>
      <point x="501" y="336" type="curve" smooth="yes"/>
      <point x="501" y="94"/>
      <point x="338" y="-40"/>
      <point x="96" y="32" type="curve"/>
    </contour>
  </outline>
</glyph>
<glyph name="w" format="2">
  <advance width="736"/>
  <unicode hex="0077"/>
  <anchor x="327" y="0" name="bottom"/>
  <anchor x="411" y="522" name="top"/>
  <outline>
    <contour>
      <point x="159" y="-2" type="line"/>
      <point x="182" y="-2" type="line"/>
      <point x="412" y="512" type="line"/>
      <point x="408" y="510" type="line"/>
      <point x="470" y="-2" type="line"/>
      <point x="494" y="-2" type="line"/>
      <point x="721" y="503" type="line"/>
      <point x="708" y="497" type="line"/>
      <point x="774" y="510" type="line"/>
      <point x="776" y="525" type="line"/>
      <point x="627" y="520" type="line"/>
      <point x="625" y="505" type="line"/>
      <point x="703" y="498" type="line"/>
      <point x="701" y="503" type="line"/>
      <point x="484" y="14" type="line"/>
      <point x="486" y="14" type="line"/>
      <point x="424" y="524" type="line"/>
      <point x="396" y="522" type="line"/>
      <point x="169" y="6" type="line"/>
      <point x="175" y="6" type="line"/>
      <point x="116" y="525" type="line"/>
      <point x="38" y="520" type="line"/>
      <point x="35" y="505" type="line"/>
      <point x="109" y="497" type="line"/>
      <point x="101" y="503" type="line"/>
    </contour>
  </outline>
</glyph>
<glyph name="bar" format="2">
  <advance width="341"/>
  <unicode hex="007C"/>
  <guideline x="-220" y="-91" angle="0"/>
  <guideline x="428" y="795" angle="0"/>
  <guideline x="195" y="472" angle="261"/>
  <outline>
    <contour>
      <point x="246" y="795" type="line"/>
      <point x="106" y="-91" type="line"/>
      <point x="125" y="-91" type="line"/>
      <point x="266" y="795" type="line"/>
    </contour>
  </outline>
</glyph>
<glyph name="braceright" format="2">
  <advance width="295"/>
  <unicode hex="007D"/>
  <guideline x="293" y="838" angle="0"/>
  <guideline x="-402" y="-94" angle="0"/>
  <outline>
    <contour>
      <point x="187" y="838" type="curve" smooth="yes"/>
      <point x="160" y="838" type="line"/>
      <point x="157" y="822" type="line"/>
      <point x="252" y="822"/>
      <point x="266" y="804"/>
      <point x="252" y="714" type="curve" smooth="yes"/>
      <point x="216" y="486" type="line" smooth="yes"/>
      <point x="199" y="381"/>
      <point x="250" y="368"/>
      <point x="293" y="368" type="curve"/>
      <point x="293" y="376" type="line"/>
      <point x="250" y="376"/>
      <point x="197" y="365"/>
      <point x="180" y="260" type="curve" smooth="yes"/>
      <point x="144" y="32" type="line" smooth="yes"/>
      <point x="130" y="-58"/>
      <point x="108" y="-78"/>
      <point x="14" y="-78" type="curve"/>
      <point x="12" y="-94" type="line"/>
      <point x="41" y="-94" type="line" smooth="yes"/>
      <point x="117" y="-94"/>
      <point x="149" y="-65"/>
      <point x="163" y="25" type="curve" smooth="yes"/>
      <point x="199" y="254" type="line" smooth="yes"/>
      <point x="209" y="316"/>
      <point x="237" y="362"/>
      <point x="305" y="362" type="curve"/>
      <point x="308" y="382" type="line"/>
      <point x="239" y="382"/>
      <point x="226" y="426"/>
      <point x="236" y="488" type="curve" smooth="yes"/>
      <point x="272" y="717" type="line" smooth="yes"/>
      <point x="288" y="816"/>
      <point x="256" y="838"/>
    </contour>
  </outline>
</glyph>
<glyph name="exclamdown" format="2">
  <advance width="329"/>
  <unicode hex="00A1"/>
  <outline>
    <contour>
      <point x="174" y="261" type="line"/>
      <point x="157" y="259" type="line"/>
      <point x="76" y="-230" type="line"/>
      <point x="99" y="-230" type="line"/>
    </contour>
    <contour>
      <point x="196" y="462" type="curve" smooth="yes"/>
      <point x="182" y="462"/>
      <point x="168" y="451"/>
      <point x="168" y="433" type="curve" smooth="yes"/>
      <point x="168" y="417"/>
      <point x="178" y="410"/>
      <point x="189" y="410" type="curve" smooth="yes"/>
      <point x="203" y="410"/>
      <point x="217" y="421"/>
      <point x="217" y="439" type="curve" smooth="yes"/>
      <point x="217" y="452"/>
      <point x="210" y="462"/>
    </contour>
  </outline>
</glyph>
<glyph name="sterling" format="2">
  <advance width="671"/>
  <unicode hex="00A3"/>
  <outline>
    <contour>
      <point x="48" y="0" type="line"/>
      <point x="510" y="0" type="line"/>
      <point x="533" y="142" type="line"/>
      <point x="519" y="142" type="line"/>
      <point x="484" y="11" type="line"/>
      <point x="494" y="19" type="line"/>
      <point x="142" y="22" type="line"/>
      <point x="146" y="19" type="line"/>
      <point x="234" y="74"/>
      <point x="240" y="211"/>
      <point x="245" y="362" type="curve"/>
      <point x="236" y="357" type="line"/>
      <point x="438" y="357" type="line"/>
      <point x="441" y="376" type="line"/>
      <point x="237" y="376" type="line"/>
      <point x="245" y="369" type="line"/>
      <point x="245" y="562"/>
      <point x="274" y="678"/>
      <point x="448" y="678" type="curve" smooth="yes"/>
      <point x="488" y="678"/>
      <point x="535" y="672"/>
      <point x="589" y="660" type="curve"/>
      <point x="581" y="671" type="line"/>
      <point x="572" y="543" type="line"/>
      <point x="586" y="543" type="line"/>
      <point x="611" y="675" type="line"/>
      <point x="549" y="690"/>
      <point x="495" y="698"/>
      <point x="447" y="698" type="curve" smooth="yes"/>
      <point x="261" y="698"/>
      <point x="225" y="578"/>
      <point x="225" y="371" type="curve"/>
      <point x="233" y="376" type="line"/>
      <point x="106" y="372" type="line"/>
      <point x="104" y="357" type="line"/>
      <point x="232" y="357" type="line"/>
      <point x="225" y="364" type="line"/>
      <point x="219" y="224"/>
      <point x="221" y="93"/>
      <point x="132" y="27" type="curve"/>
      <point x="147" y="33" type="line"/>
      <point x="50" y="15" type="line"/>
    </contour>
  </outline>
</glyph>
<glyph name="yen" format="2">
  <advance width="702"/>
  <unicode hex="00A5"/>
  <outline>
    <contour>
      <point x="168" y="261" type="line"/>
      <point x="533" y="261" type="line"/>
      <point x="536" y="280" type="line"/>
      <point x="367" y="280" type="line"/>
      <point x="368" y="270" type="line"/>
      <point x="629" y="670" type="line"/>
      <point x="618" y="663" type="line"/>
      <point x="718" y="677" type="line"/>
      <point x="720" y="692" type="line"/>
      <point x="497" y="687" type="line"/>
      <point x="495" y="672" type="line"/>
      <point x="612" y="664" type="line"/>
      <point x="609" y="670" type="line"/>
      <point x="351" y="275" type="line"/>
      <point x="357" y="275" type="line"/>
      <point x="226" y="670" type="line"/>
      <point x="221" y="663" type="line"/>
      <point x="344" y="677" type="line"/>
      <point x="346" y="692" type="line"/>
      <point x="120" y="687" type="line"/>
      <point x="117" y="672" type="line"/>
      <point x="215" y="663" type="line"/>
      <point x="206" y="670" type="line"/>
      <point x="339" y="269" type="line"/>
      <point x="342" y="280" type="line"/>
      <point x="171" y="280" type="line"/>
    </contour>
    <contour>
      <point x="205" y="0" type="line"/>
      <point x="416" y="0" type="line"/>
      <point x="418" y="15" type="line"/>
      <point x="317" y="29" type="line"/>
      <point x="323" y="21" type="line"/>
      <point x="345" y="167" type="line"/>
      <point x="339" y="161" type="line"/>
      <point x="517" y="161" type="line"/>
      <point x="520" y="180" type="line"/>
      <point x="156" y="180" type="line"/>
      <point x="153" y="161" type="line"/>
      <point x="329" y="161" type="line"/>
      <point x="327" y="167" type="line"/>
      <point x="304" y="21" type="line"/>
      <point x="311" y="29" type="line"/>
      <point x="207" y="15" type="line"/>
    </contour>
  </outline>
</glyph>
<glyph name="macron" format="2">
  <advance width="421"/>
  <unicode hex="00AF"/>
  <guideline x="199" y="724" angle="0"/>
  <guideline x="156" y="665" angle="0"/>
  <outline>
    <contour>
      <point x="391" y="702" type="line"/>
      <point x="170" y="702" type="line"/>
      <point x="167" y="681" type="line"/>
      <point x="388" y="681" type="line"/>
    </contour>
  </outline>
</glyph>
<glyph name="micro" format="2">
  <advance width="695"/>
  <unicode hex="00B5"/>
  <outline>
    <contour>
      <point x="113" y="-231" type="line"/>
      <point x="131" y="-121"/>
      <point x="151" y="0"/>
      <point x="161" y="98" type="curve"/>
      <point x="153" y="103" type="line"/>
      <point x="158" y="26"/>
      <point x="206" y="-8"/>
      <point x="267" y="-6" type="curve" smooth="yes"/>
      <point x="344" y="-4"/>
      <point x="451" y="56"/>
      <point x="512" y="221" type="curve"/>
      <point x="506" y="220" type="line"/>
      <point x="471" y="-2" type="line"/>
      <point x="578" y="2" type="line"/>
      <point x="580" y="17" type="line"/>
      <point x="487" y="29" type="line"/>
      <point x="494" y="19" type="line"/>
      <point x="574" y="522" type="line"/>
      <point x="554" y="522" type="line"/>
      <point x="524" y="335" type="line" smooth="yes"/>
      <point x="488" y="112"/>
      <point x="357" y="13"/>
      <point x="266" y="13" type="curve" smooth="yes"/>
      <point x="206" y="13"/>
      <point x="159" y="55"/>
      <point x="176" y="161" type="curve" smooth="yes"/>
      <point x="234" y="525" type="line"/>
      <point x="127" y="520" type="line"/>
      <point x="125" y="505" type="line"/>
      <point x="215" y="492" type="line"/>
      <point x="210" y="501" type="line"/>
      <point x="94" y="-230" type="line"/>
    </contour>
  </outline>
</glyph>
<glyph name="paragraph" format="2">
  <advance width="525"/>
  <unicode hex="00B6"/>
  <guideline x="-220" y="-170" angle="0"/>
  <guideline x="237" y="394" angle="260.9759"/>
  <guideline x="257" y="394" angle="260.9759"/>
  <guideline x="357" y="394" angle="260.9759"/>
  <guideline x="377" y="394" angle="260.9759"/>
  <outline>
    <contour>
      <point x="51" y="-170" type="line"/>
      <point x="167" y="-170" type="line"/>
      <point x="302" y="681" type="line"/>
      <point x="293" y="672" type="line"/>
      <point x="407" y="673" type="line"/>
      <point x="403" y="681" type="line"/>
      <point x="268" y="-170" type="line"/>
      <point x="287" y="-170" type="line"/>
      <point x="421" y="671" type="line"/>
      <point x="411" y="663" type="line"/>
      <point x="518" y="677" type="line"/>
      <point x="520" y="692" type="line"/>
      <point x="302" y="692" type="line" smooth="yes"/>
      <point x="189" y="692"/>
      <point x="110" y="602"/>
      <point x="110" y="489" type="curve" smooth="yes"/>
      <point x="110" y="406"/>
      <point x="161" y="353"/>
      <point x="248" y="353" type="curve"/>
      <point x="233" y="371" type="line"/>
      <point x="151" y="-149" type="line"/>
      <point x="159" y="-141" type="line"/>
      <point x="54" y="-155" type="line"/>
    </contour>
  </outline>
</glyph>
<glyph name="cedilla" format="2">
  <advance width="358"/>
  <unicode hex="00B8"/>
  <outline>
    <contour>
      <point x="96" y="-212" type="curve" smooth="yes"/>
      <point x="151" y="-212"/>
      <point x="195" y="-180"/>
      <point x="195" y="-129" type="curve" smooth="yes"/>
      <point x="195" y="-95"/>
      <point x="176" y="-74"/>
      <point x="113" y="-68" type="curve"/>
      <point x="124" y="0" type="line"/>
      <point x="106" y="0" type="line"/>
      <point x="89" y="-87" type="line"/>
      <point x="146" y="-88"/>
      <point x="174" y="-102"/>
      <point x="174" y="-135" type="curve" smooth="yes"/>
      <point x="174" y="-172"/>
      <point x="139" y="-192"/>
      <point x="97" y="-192" type="curve" smooth="yes"/>
      <point x="78" y="-192"/>
      <point x="58" y="-188"/>
      <point x="38" y="-179" type="curve"/>
      <point x="28" y="-196" type="line"/>
      <point x="51" y="-207"/>
      <point x="74" y="-212"/>
    </contour>
  </outline>
</glyph>
<glyph name="ordmasculine" format="2">
  <advance width="443"/>
  <unicode hex="00BA"/>
  <guideline x="39" y="457" angle="90"/>
  <guideline x="321" y="457" angle="90"/>
  <guideline x="192" y="317" angle="0"/>
  <outline>
    <contour>
      <point x="232" y="317" type="curve" smooth="yes"/>
      <point x="361" y="317"/>
      <point x="429" y="431"/>
      <point x="429" y="546" type="curve" smooth="yes"/>
      <point x="429" y="652"/>
      <point x="372" y="698"/>
      <point x="290" y="698" type="curve" smooth="yes"/>
      <point x="159" y="698"/>
      <point x="91" y="587"/>
      <point x="91" y="470" type="curve" smooth="yes"/>
      <point x="91" y="362"/>
      <point x="150" y="317"/>
    </contour>
    <contour>
      <point x="53" y="201" type="line"/>
      <point x="366" y="201" type="line"/>
      <point x="369" y="220" type="line"/>
      <point x="56" y="220" type="line"/>
    </contour>
    <contour>
      <point x="232" y="336" type="curve" smooth="yes"/>
      <point x="155" y="336"/>
      <point x="111" y="384"/>
      <point x="111" y="472" type="curve" smooth="yes"/>
      <point x="111" y="575"/>
      <point x="172" y="679"/>
      <point x="288" y="679" type="curve" smooth="yes"/>
      <point x="366" y="679"/>
      <point x="409" y="632"/>
      <point x="409" y="545" type="curve" smooth="yes"/>
      <point x="409" y="442"/>
      <point x="347" y="336"/>
    </contour>
  </outline>
</glyph>
<glyph name="questiondown" format="2">
  <advance width="386"/>
  <unicode hex="00BF"/>
  <outline>
    <contour>
      <point x="276" y="284" type="curve"/>
      <point x="257" y="286" type="line"/>
      <point x="255" y="272"/>
      <point x="252" y="256"/>
      <point x="250" y="245" type="curve" smooth="yes"/>
      <point x="223" y="81"/>
      <point x="18" y="57"/>
      <point x="18" y="-99" type="curve" smooth="yes"/>
      <point x="18" y="-173"/>
      <point x="70" y="-200"/>
      <point x="140" y="-200" type="curve" smooth="yes"/>
      <point x="177" y="-200"/>
      <point x="220" y="-192"/>
      <point x="262" y="-176" type="curve"/>
      <point x="257" y="-159" type="line"/>
      <point x="217" y="-173"/>
      <point x="176" y="-181"/>
      <point x="141" y="-181" type="curve" smooth="yes"/>
      <point x="82" y="-181"/>
      <point x="39" y="-159"/>
      <point x="39" y="-96" type="curve" smooth="yes"/>
      <point x="39" y="45"/>
      <point x="243" y="68"/>
      <point x="270" y="243" type="curve" smooth="yes"/>
      <point x="272" y="255"/>
      <point x="274" y="269"/>
    </contour>
    <contour>
      <point x="296" y="498" type="curve" smooth="yes"/>
      <point x="282" y="498"/>
      <point x="268" y="487"/>
      <point x="268" y="469" type="curve" smooth="yes"/>
      <point x="268" y="453"/>
      <point x="278" y="446"/>
      <point x="289" y="446" type="curve" smooth="yes"/>
      <point x="303" y="446"/>
      <point x="317" y="457"/>
      <point x="317" y="475" type="curve" smooth="yes"/>
      <point x="317" y="488"/>
      <point x="310" y="498"/>
    </contour>
  </outline>
</glyph>
<glyph name="AE" format="2">
  <advance width="921"/>
  <unicode hex="00C6"/>
  <guideline x="472" y="226" angle="261"/>
  <anchor x="436" y="0" name="bottom"/>
  <anchor x="641" y="692" name="top"/>
  <outline>
    <contour>
      <point x="-35" y="0" type="line"/>
      <point x="185" y="0" type="line"/>
      <point x="187" y="15" type="line"/>
      <point x="73" y="29" type="line"/>
      <point x="76" y="22" type="line"/>
      <point x="219" y="232" type="line"/>
      <point x="208" y="226" type="line"/>
      <point x="469" y="226" type="line"/>
      <point x="463" y="233" type="line"/>
      <point x="430" y="21" type="line"/>
      <point x="438" y="29" type="line"/>
      <point x="333" y="15" type="line"/>
      <point x="331" y="0" type="line"/>
      <point x="794" y="0" type="line"/>
      <point x="817" y="141" type="line"/>
      <point x="802" y="141" type="line"/>
      <point x="768" y="12" type="line"/>
      <point x="776" y="19" type="line"/>
      <point x="442" y="19" type="line"/>
      <point x="448" y="12" type="line"/>
      <point x="502" y="353" type="line"/>
      <point x="494" y="346" type="line"/>
      <point x="771" y="346" type="line"/>
      <point x="774" y="365" type="line"/>
      <point x="497" y="365" type="line"/>
      <point x="503" y="358" type="line"/>
      <point x="553" y="680" type="line"/>
      <point x="545" y="673" type="line"/>
      <point x="867" y="673" type="line"/>
      <point x="861" y="680" type="line"/>
      <point x="856" y="556" type="line"/>
      <point x="870" y="556" type="line"/>
      <point x="891" y="692" type="line"/>
      <point x="556" y="692" type="line"/>
      <point x="408" y="687" type="line"/>
      <point x="405" y="672" type="line"/>
      <point x="499" y="664" type="line"/>
      <point x="496" y="671" type="line"/>
      <point x="55" y="22" type="line"/>
      <point x="66" y="29" type="line"/>
      <point x="-33" y="15" type="line"/>
    </contour>
    <contour>
      <point x="224" y="239" type="line"/>
      <point x="523" y="679" type="line"/>
      <point x="512" y="673" type="line"/>
      <point x="540" y="673" type="line"/>
      <point x="534" y="680" type="line"/>
      <point x="464" y="238" type="line"/>
      <point x="472" y="245" type="line"/>
      <point x="221" y="245" type="line"/>
    </contour>
  </outline>
</glyph>
<glyph name="Eth" format="2">
  <advance width="718"/>
  <unicode hex="00D0"/>
  <guideline x="371" y="231" angle="261"/>
  <guideline x="54" y="231" angle="261"/>
  <guideline x="490" y="378" angle="0"/>
  <outline>
    <contour>
      <point x="76.77436" y="345" type="line"/>
      <point x="378.19428" y="345" type="line"/>
      <point x="381.29105999999996" y="364" type="line"/>
      <point x="79.87114" y="364" type="line"/>
    </contour>
    <component base="D"/>
  </outline>
</glyph>
<glyph name="multiply" format="2">
  <advance width="537"/>
  <unicode hex="00D7"/>
  <outline>
    <contour>
      <point x="99" y="172" type="line"/>
      <point x="288" y="341" type="line"/>
      <point x="276" y="341" type="line"/>
      <point x="411" y="172" type="line"/>
      <point x="426" y="186" type="line"/>
      <point x="291" y="355" type="line"/>
      <point x="289" y="342" type="line"/>
      <point x="478" y="511" type="line"/>
      <point x="466" y="525" type="line"/>
      <point x="278" y="356" type="line"/>
      <point x="290" y="356" type="line"/>
      <point x="154" y="525" type="line"/>
      <point x="139" y="511" type="line"/>
      <point x="275" y="342" type="line"/>
      <point x="276" y="355" type="line"/>
      <point x="88" y="186" type="line"/>
    </contour>
  </outline>
</glyph>
<glyph name="Oslash" format="2">
  <advance width="752"/>
  <unicode hex="00D8"/>
  <guideline x="433" y="592" angle="261"/>
  <guideline x="96" y="346" angle="0"/>
  <anchor x="466" y="692" name="top"/>
  <outline>
    <contour>
      <point x="702" y="762" type="line"/>
      <point x="601" y="631" type="line"/>
      <point x="597" y="626" type="line"/>
      <point x="172" y="71" type="line"/>
      <point x="169" y="67" type="line"/>
      <point x="73" y="-59" type="line"/>
      <point x="88" y="-70" type="line"/>
      <point x="182" y="53" type="line"/>
      <point x="185" y="57" type="line"/>
      <point x="613" y="617" type="line"/>
      <point x="617" y="622" type="line"/>
      <point x="717" y="752" type="line"/>
    </contour>
    <contour>
      <point x="328" y="-6" type="curve" smooth="yes"/>
      <point x="544" y="-6"/>
      <point x="685" y="213"/>
      <point x="685" y="436" type="curve" smooth="yes"/>
      <point x="685" y="613"/>
      <point x="578" y="698"/>
      <point x="448" y="698" type="curve" smooth="yes"/>
      <point x="237" y="698"/>
      <point x="93" y="487"/>
      <point x="93" y="257" type="curve" smooth="yes"/>
      <point x="93" y="77"/>
      <point x="201" y="-6"/>
    </contour>
    <contour>
      <point x="330" y="14" type="curve" smooth="yes"/>
      <point x="210" y="14"/>
      <point x="114" y="96"/>
      <point x="114" y="261" type="curve" smooth="yes"/>
      <point x="114" y="473"/>
      <point x="248" y="678"/>
      <point x="446" y="678" type="curve" smooth="yes"/>
      <point x="566" y="678"/>
      <point x="664" y="596"/>
      <point x="664" y="431" type="curve" smooth="yes"/>
      <point x="664" y="219"/>
      <point x="528" y="14"/>
    </contour>
  </outline>
</glyph>
<glyph name="icircumflex" format="2">
  <advance width="263"/>
  <unicode hex="00EE"/>
  <outline>
    <contour>
      <point x="83" y="637" type="line"/>
      <point x="201" y="741" type="line"/>
      <point x="191" y="741" type="line"/>
      <point x="271" y="637" type="line"/>
      <point x="285" y="646" type="line"/>
      <point x="205" y="764" type="line"/>
      <point x="190" y="764" type="line"/>
      <point x="72" y="648" type="line"/>
    </contour>
    <component base="idotless"/>
  </outline>
</glyph>
<glyph name="thorn" format="2">
  <advance width="569"/>
  <unicode hex="00FE"/>
  <anchor x="238" y="0" name="bottom"/>
  <anchor x="320" y="522" name="top"/>
  <outline>
    <contour>
      <point x="-54" y="-230" type="line"/>
      <point x="150" y="-230" type="line"/>
      <point x="152" y="-215" type="line"/>
      <point x="47" y="-201" type="line"/>
      <point x="55" y="-209" type="line"/>
      <point x="91" y="16" type="line"/>
      <point x="71" y="15" type="line"/>
      <point x="327" y="-61"/>
      <point x="510" y="78"/>
      <point x="510" y="337" type="curve" smooth="yes"/>
      <point x="510" y="471"/>
      <point x="450" y="528"/>
      <point x="376" y="528" type="curve" smooth="yes"/>
      <point x="298" y="528"/>
      <point x="189" y="462"/>
      <point x="130" y="301" type="curve"/>
      <point x="135" y="293" type="line"/>
      <point x="210" y="765" type="line"/>
      <point x="103" y="760" type="line"/>
      <point x="101" y="745" type="line"/>
      <point x="192" y="732" type="line"/>
      <point x="186" y="742" type="line"/>
      <point x="35" y="-209" type="line"/>
      <point x="42" y="-201" type="line"/>
      <point x="-52" y="-215" type="line"/>
    </contour>
    <contour>
      <point x="91" y="15" type="line"/>
      <point x="118" y="187" type="line" smooth="yes"/>
      <point x="153" y="411"/>
      <point x="287" y="509"/>
      <point x="375" y="509" type="curve" smooth="yes"/>
      <point x="438" y="509"/>
      <point x="489" y="458"/>
      <point x="489" y="336" type="curve" smooth="yes"/>
      <point x="489" y="94"/>
      <point x="326" y="-40"/>
      <point x="84" y="32" type="curve"/>
    </contour>
  </outline>
</glyph>
<glyph name="imacron" format="2">
  <advance width="263"/>
  <unicode hex="012B"/>
  <guideline x="95" y="594" angle="90"/>
  <guideline x="258" y="594" angle="90"/>
  <outline>
    <contour>
      <point x="292.17" y="702" type="line"/>
      <point x="99.9" y="702" type="line"/>
      <point x="97.28999999999999" y="681" type="line"/>
      <point x="289.56" y="681" type="line"/>
    </contour>
    <component base="idotless"/>
  </outline>
</glyph>
<glyph name="idotless" format="2">
  <advance width="263"/>
  <unicode hex="0131"/>
  <guideline x="461" y="621" angle="261"/>
  <guideline x="213" y="344" angle="0"/>
  <guideline x="137" y="231" angle="261"/>
  <guideline x="117" y="234" angle="261"/>
  <guideline x="31" y="234" angle="261"/>
  <guideline x="223" y="231" angle="261"/>
  <anchor x="90" y="0" name="bottom"/>
  <anchor x="150" y="0" name="ogonek"/>
  <anchor x="172" y="522" name="top"/>
  <outline>
    <contour>
      <point x="80" y="-2" type="line"/>
      <point x="187" y="2" type="line"/>
      <point x="189" y="17" type="line"/>
      <point x="99" y="29" type="line"/>
      <point x="104" y="22" type="line"/>
      <point x="184" y="525" type="line"/>
      <point x="77" y="520" type="line"/>
      <point x="75" y="505" type="line"/>
      <point x="168" y="492" type="line"/>
      <point x="160" y="502" type="line"/>
    </contour>
  </outline>
</glyph>
<glyph name="Lslash" format="2">
  <advance width="538"/>
  <unicode hex="0141"/>
  <guideline x="113" y="484" angle="261"/>
  <outline>
    <contour>
      <point x="76" y="262" type="line"/>
      <point x="82" y="245" type="line"/>
      <point x="415" y="448" type="line"/>
      <point x="409" y="465" type="line"/>
    </contour>
    <contour>
      <point x="473" y="145" type="line"/>
      <point x="438" y="12" type="line"/>
      <point x="447" y="19" type="line"/>
      <point x="149" y="19" type="line"/>
      <point x="154" y="9" type="line"/>
      <point x="259" y="671" type="line"/>
      <point x="251" y="663" type="line"/>
      <point x="370" y="677" type="line"/>
      <point x="372" y="692" type="line"/>
      <point x="145" y="687" type="line"/>
      <point x="143" y="672" type="line"/>
      <point x="245" y="663" type="line"/>
      <point x="239" y="670" type="line"/>
      <point x="136" y="21" type="line"/>
      <point x="145" y="29" type="line"/>
      <point x="39" y="15" type="line"/>
      <point x="37" y="0" type="line"/>
      <point x="464" y="0" type="line"/>
      <point x="487" y="145" type="line"/>
    </contour>
  </outline>
</glyph>
<glyph name="oe" format="2">
  <advance width="890"/>
  <unicode hex="0153"/>
  <guideline x="504" y="435" angle="261"/>
  <anchor x="435" y="0" name="bottom"/>
  <anchor x="518" y="522" name="top"/>
  <outline>
    <contour>
      <point x="234" y="-6" type="curve" smooth="yes"/>
      <point x="402" y="-6"/>
      <point x="491" y="157"/>
      <point x="491" y="318" type="curve" smooth="yes"/>
      <point x="491" y="461"/>
      <point x="423" y="528"/>
      <point x="319" y="528" type="curve" smooth="yes"/>
      <point x="152" y="528"/>
      <point x="62" y="367"/>
      <point x="62" y="205" type="curve" smooth="yes"/>
      <point x="62" y="58"/>
      <point x="133" y="-6"/>
    </contour>
    <contour>
      <point x="238" y="13" type="curve" smooth="yes"/>
      <point x="138" y="13"/>
      <point x="83" y="82"/>
      <point x="83" y="208" type="curve" smooth="yes"/>
      <point x="83" y="358"/>
      <point x="166" y="509"/>
      <point x="316" y="509" type="curve" smooth="yes"/>
      <point x="417" y="509"/>
      <point x="470" y="441"/>
      <point x="470" y="315" type="curve" smooth="yes"/>
      <point x="470" y="163"/>
      <point x="385" y="13"/>
    </contour>
    <contour>
      <point x="631" y="-6" type="curve" smooth="yes"/>
      <point x="682" y="-6"/>
      <point x="740" y="12"/>
      <point x="799" y="47" type="curve"/>
      <point x="790" y="63" type="line"/>
      <point x="735" y="30"/>
      <point x="680" y="13"/>
      <point x="633" y="13" type="curve" smooth="yes"/>
      <point x="545" y="13"/>
      <point x="482" y="71"/>
      <point x="482" y="195" type="curve" smooth="yes"/>
      <point x="482" y="350"/>
      <point x="574" y="509"/>
      <point x="725" y="509" type="curve" smooth="yes"/>
      <point x="798" y="509"/>
      <point x="842" y="473"/>
      <point x="842" y="422" type="curve" smooth="yes"/>
      <point x="842" y="321"/>
      <point x="666" y="255"/>
      <point x="529" y="255" type="curve" smooth="yes"/>
      <point x="512" y="255"/>
      <point x="495" y="256"/>
      <point x="480" y="258" type="curve"/>
      <point x="476" y="238" type="line"/>
      <point x="490" y="237"/>
      <point x="503" y="236"/>
      <point x="521" y="236" type="curve" smooth="yes"/>
      <point x="676" y="236"/>
      <point x="863" y="308"/>
      <point x="863" y="423" type="curve" smooth="yes"/>
      <point x="863" y="483"/>
      <point x="813" y="528"/>
      <point x="728" y="528" type="curve" smooth="yes"/>
      <point x="565" y="528"/>
      <point x="462" y="360"/>
      <point x="462" y="196" type="curve" smooth="yes"/>
      <point x="462" y="59"/>
      <point x="533" y="-6"/>
    </contour>
  </outline>
</glyph>
<glyph name="Tbar" format="2">
  <advance width="538"/>
  <unicode hex="0166"/>
  <guideline x="238" y="231" angle="261"/>
  <guideline x="258" y="231" angle="261"/>
  <guideline x="399" y="231" angle="261"/>
  <guideline x="97" y="231" angle="261"/>
  <outline>
    <contour>
      <point x="130.77436" y="345" type="line"/>
      <point x="432.19428" y="345" type="line"/>
      <point x="435.29105999999996" y="364" type="line"/>
      <point x="133.87114" y="364" type="line"/>
    </contour>
    <component base="T"/>
  </outline>
</glyph>
<glyph name="tbar" format="2">
  <advance width="320"/>
  <unicode hex="0167"/>
  <guideline x="49" y="454" angle="261"/>
  <guideline x="319" y="454" angle="261"/>
  <outline>
    <contour>
      <point x="27.400000000000006" y="291" type="line"/>
      <point x="290.2" y="291" type="line"/>
      <point x="292.90000000000003" y="310" type="line"/>
      <point x="30.10000000000001" y="310" type="line"/>
    </contour>
    <component base="t"/>
  </outline>
</glyph>
<glyph name="commaturnedmod" format="2">
  <advance width="103"/>
  <unicode hex="02BB"/>
  <outline>
    <contour>
      <point x="136" y="665" type="curve" smooth="yes"/>
      <point x="136" y="679"/>
      <point x="127" y="685"/>
      <point x="127" y="698" type="curve" smooth="yes"/>
      <point x="127" y="710"/>
      <point x="135" y="739"/>
      <point x="172" y="794" type="curve"/>
      <point x="161" y="804" type="line"/>
      <point x="127" y="758"/>
      <point x="89" y="694"/>
      <point x="89" y="662" type="curve" smooth="yes"/>
      <point x="89" y="645"/>
      <point x="99" y="637"/>
      <point x="110" y="637" type="curve" smooth="yes"/>
      <point x="123" y="637"/>
      <point x="136" y="647"/>
    </contour>
  </outline>
</glyph>
<glyph name="circumflex" format="2">
  <advance width="462"/>
  <unicode hex="02C6"/>
  <guideline x="166" y="637" angle="0"/>
  <guideline x="262" y="770" angle="0"/>
  <guideline x="229" y="724" angle="0"/>
  <guideline x="186" y="665" angle="0"/>
  <guideline x="262" y="468" angle="261"/>
  <outline>
    <contour>
      <point x="171" y="637" type="line"/>
      <point x="310" y="741" type="line"/>
      <point x="301" y="741" type="line"/>
      <point x="410" y="637" type="line"/>
      <point x="424" y="650" type="line"/>
      <point x="316" y="764" type="line"/>
      <point x="301" y="764" type="line"/>
      <point x="162" y="650" type="line"/>
    </contour>
  </outline>
</glyph>
<glyph name="caron" format="2">
  <advance width="462"/>
  <unicode hex="02C7"/>
  <guideline x="231" y="637" angle="0"/>
  <guideline x="327" y="770" angle="0"/>
  <guideline x="294" y="724" angle="0"/>
  <guideline x="251" y="665" angle="0"/>
  <guideline x="265" y="468" angle="261"/>
  <outline>
    <contour>
      <point x="431" y="768" type="line"/>
      <point x="292" y="664" type="line"/>
      <point x="301" y="664" type="line"/>
      <point x="192" y="768" type="line"/>
      <point x="178" y="755" type="line"/>
      <point x="286" y="641" type="line"/>
      <point x="301" y="641" type="line"/>
      <point x="440" y="755" type="line"/>
    </contour>
  </outline>
</glyph>
<glyph name="verticallinemod" format="2">
  <advance width="222"/>
  <unicode hex="02C8"/>
  <guideline x="261" y="634" angle="0"/>
  <guideline x="358" y="770" angle="0"/>
  <guideline x="204" y="724" angle="0"/>
  <guideline x="161" y="665" angle="0"/>
  <guideline x="239" y="607" angle="0"/>
  <guideline x="152" y="517" angle="261"/>
  <anchor x="152" y="522" name="_top"/>
  <outline>
    <contour>
      <point x="160" y="634" type="line"/>
      <point x="181" y="634" type="line"/>
      <point x="209" y="809" type="line"/>
      <point x="187" y="809" type="line"/>
    </contour>
  </outline>
</glyph>
<glyph name="ogonek" format="2">
  <advance width="304"/>
  <unicode hex="02DB"/>
  <guideline x="-220" y="-113" angle="90"/>
  <guideline x="182" y="-216" angle="0"/>
  <outline>
    <contour>
      <point x="113" y="-216" type="curve" smooth="yes"/>
      <point x="130" y="-216"/>
      <point x="151" y="-213"/>
      <point x="174" y="-207" type="curve"/>
      <point x="174" y="-190" type="line"/>
      <point x="154" y="-195"/>
      <point x="136" y="-197"/>
      <point x="121" y="-197" type="curve" smooth="yes"/>
      <point x="66" y="-197"/>
      <point x="39" y="-172"/>
      <point x="39" y="-138" type="curve" smooth="yes"/>
      <point x="39" y="-90"/>
      <point x="95" y="-26"/>
      <point x="206" y="0" type="curve"/>
      <point x="202" y="15" type="line"/>
      <point x="76" y="-10"/>
      <point x="18" y="-87"/>
      <point x="18" y="-144" type="curve" smooth="yes"/>
      <point x="18" y="-184"/>
      <point x="50" y="-216"/>
    </contour>
  </outline>
</glyph>
<glyph name="hungarumlaut" format="2">
  <advance width="384"/>
  <unicode hex="02DD"/>
  <guideline x="145" y="634" angle="0"/>
  <guideline x="247" y="772" angle="0"/>
  <guideline x="206" y="724" angle="0"/>
  <guideline x="163" y="665" angle="0"/>
  <outline>
    <contour>
      <point x="287" y="634" type="line"/>
      <point x="363" y="758" type="line"/>
      <point x="338" y="772" type="line"/>
      <point x="271" y="643" type="line"/>
    </contour>
    <contour>
      <point x="176" y="634" type="line"/>
      <point x="250" y="759" type="line"/>
      <point x="224" y="772" type="line"/>
      <point x="160" y="642" type="line"/>
    </contour>
  </outline>
</glyph>
<glyph name="dblgravecomb" format="2">
  <unicode hex="030F"/>
  <guideline x="363" y="637" angle="0"/>
  <guideline x="460" y="770" angle="0"/>
  <guideline x="306" y="724" angle="0"/>
  <guideline x="263" y="665" angle="0"/>
  <guideline x="362" y="637" angle="261"/>
  <guideline x="156" y="637" angle="261"/>
  <guideline x="259" y="637" angle="261"/>
  <anchor x="281" y="522" name="_top"/>
  <anchor x="308" y="692" name="top"/>
  <outline>
    <contour>
      <point x="261" y="634" type="line"/>
      <point x="185" y="758" type="line"/>
      <point x="210" y="772" type="line"/>
      <point x="277" y="643" type="line"/>
    </contour>
    <contour>
      <point x="372" y="634" type="line"/>
      <point x="298" y="759" type="line"/>
      <point x="324" y="772" type="line"/>
      <point x="388" y="642" type="line"/>
    </contour>
  </outline>
</glyph>
<glyph name="breveinvertedcomb" format="2">
  <unicode hex="0311"/>
  <guideline x="353" y="634" angle="261"/>
  <guideline x="449" y="770" angle="0"/>
  <guideline x="295" y="732" angle="0"/>
  <guideline x="252" y="665" angle="0"/>
  <guideline x="147" y="634" angle="261"/>
  <guideline x="250" y="637" angle="261"/>
  <guideline x="701" y="634" angle="261"/>
  <guideline x="502" y="634" angle="261"/>
  <anchor x="233" y="522" name="_top"/>
  <anchor x="259" y="692" name="top"/>
  <outline>
    <contour>
      <point x="264" y="727" type="curve" smooth="yes"/>
      <point x="212" y="727"/>
      <point x="158" y="695"/>
      <point x="148" y="629" type="curve"/>
      <point x="165" y="628" type="line"/>
      <point x="177" y="679"/>
      <point x="218" y="705"/>
      <point x="263" y="705" type="curve" smooth="yes"/>
      <point x="306" y="705"/>
      <point x="339" y="681"/>
      <point x="336" y="629" type="curve"/>
      <point x="354" y="629" type="line"/>
      <point x="362" y="693"/>
      <point x="318" y="727"/>
    </contour>
  </outline>
</glyph>
<glyph name="commaturnedabovecomb" format="2">
  <unicode hex="0312"/>
  <guideline x="176" y="637" angle="0"/>
  <guideline x="278" y="770" angle="0"/>
  <guideline x="237" y="724" angle="0"/>
  <guideline x="194" y="665" angle="0"/>
  <guideline x="180" y="624" angle="81"/>
  <anchor x="164" y="522" name="_top"/>
  <anchor x="191" y="692" name="top"/>
  <outline>
    <contour>
      <point x="230" y="810" type="line"/>
      <point x="191" y="760"/>
      <point x="164" y="713"/>
      <point x="164" y="687" type="curve" smooth="yes"/>
      <point x="164" y="670"/>
      <point x="174" y="662"/>
      <point x="186" y="662" type="curve" smooth="yes"/>
      <point x="199" y="662"/>
      <point x="214" y="673"/>
      <point x="214" y="692" type="curve" smooth="yes"/>
      <point x="214" y="708"/>
      <point x="204" y="709"/>
      <point x="204" y="722" type="curve" smooth="yes"/>
      <point x="204" y="734"/>
      <point x="213" y="762"/>
      <point x="241" y="802" type="curve"/>
    </contour>
  </outline>
</glyph>
<glyph name="horncomb" format="2">
  <unicode hex="031B"/>
  <anchor x="61" y="522" name="_topright"/>
  <anchor x="61" y="522" name="topright"/>
  <outline>
    <contour>
      <point x="46" y="504" type="line"/>
      <point x="117" y="499"/>
      <point x="155" y="544"/>
      <point x="155" y="607" type="curve" smooth="yes"/>
      <point x="155" y="622"/>
      <point x="153" y="637"/>
      <point x="149" y="653" type="curve"/>
      <point x="129" y="648" type="line"/>
      <point x="131" y="633"/>
      <point x="133" y="620"/>
      <point x="133" y="605" type="curve" smooth="yes"/>
      <point x="133" y="555"/>
      <point x="111" y="522"/>
      <point x="49" y="522" type="curve"/>
    </contour>
  </outline>
</glyph>
<glyph name="Tshe-cy" format="2">
  <advance width="753"/>
  <unicode hex="040B"/>
  <outline>
    <contour>
      <point x="107" y="0" type="line"/>
      <point x="348" y="0" type="line"/>
      <point x="350" y="15" type="line"/>
      <point x="235" y="29" type="line"/>
      <point x="241" y="21" type="line"/>
      <point x="294" y="357" type="line"/>
      <point x="284" y="348" type="line"/>
      <point x="365" y="373"/>
      <point x="434" y="387"/>
      <point x="486" y="387" type="curve" smooth="yes"/>
      <point x="588" y="387"/>
      <point x="625" y="333"/>
      <point x="607" y="222" type="curve" smooth="yes"/>
      <point x="574" y="21" type="line"/>
      <point x="582" y="29" type="line"/>
      <point x="477" y="15" type="line"/>
      <point x="475" y="0" type="line"/>
      <point x="686" y="0" type="line"/>
      <point x="688" y="15" type="line"/>
      <point x="588" y="29" type="line"/>
      <point x="594" y="21" type="line"/>
      <point x="626" y="224" type="line" smooth="yes"/>
      <point x="644" y="340"/>
      <point x="605" y="407"/>
      <point x="491" y="407" type="curve" smooth="yes"/>
      <point x="437" y="407"/>
      <point x="367" y="392"/>
      <point x="286" y="366" type="curve"/>
      <point x="295" y="363" type="line"/>
      <point x="345" y="680" type="line"/>
      <point x="336" y="673" type="line"/>
      <point x="548" y="673" type="line"/>
      <point x="541" y="680" type="line"/>
      <point x="536" y="552" type="line"/>
      <point x="550" y="552" type="line"/>
      <point x="572" y="692" type="line"/>
      <point x="102" y="692" type="line"/>
      <point x="80" y="552" type="line"/>
      <point x="95" y="552" type="line"/>
      <point x="129" y="680" type="line"/>
      <point x="120" y="673" type="line"/>
      <point x="331" y="673" type="line"/>
      <point x="325" y="680" type="line"/>
      <point x="221" y="21" type="line"/>
      <point x="229" y="29" type="line"/>
      <point x="109" y="15" type="line"/>
    </contour>
  </outline>
</glyph>
<glyph name="Ge-cy" format="2">
  <advance width="547"/>
  <unicode hex="0413"/>
  <anchor x="239" y="0" name="bottomright"/>
  <anchor x="395" y="692" name="top"/>
  <outline>
    <contour>
      <point x="22" y="0" type="line"/>
      <point x="252" y="0" type="line"/>
      <point x="254" y="15" type="line"/>
      <point x="135" y="29" type="line"/>
      <point x="141" y="21" type="line"/>
      <point x="245" y="678" type="line"/>
      <point x="236" y="673" type="line"/>
      <point x="552" y="673" type="line"/>
      <point x="546" y="680" type="line"/>
      <point x="540" y="547" type="line"/>
      <point x="555" y="547" type="line"/>
      <point x="577" y="692" type="line"/>
      <point x="247" y="692" type="line"/>
      <point x="130" y="687" type="line"/>
      <point x="128" y="672" type="line"/>
      <point x="230" y="663" type="line"/>
      <point x="224" y="671" type="line"/>
      <point x="121" y="21" type="line"/>
      <point x="129" y="29" type="line"/>
      <point x="24" y="15" type="line"/>
    </contour>
  </outline>
</glyph>
<glyph name="De-cy" format="2">
  <advance width="648"/>
  <unicode hex="0414"/>
  <outline>
    <contour>
      <point x="44" y="12" type="curve"/>
      <point x="40" y="19" type="line"/>
      <point x="434" y="19" type="line"/>
      <point x="426" y="11" type="line"/>
      <point x="532" y="681" type="line"/>
      <point x="537" y="673" type="line"/>
      <point x="275" y="672" type="line"/>
      <point x="284" y="681" type="line"/>
      <point x="208" y="204"/>
      <point x="149" y="80"/>
    </contour>
    <contour>
      <point x="18" y="13" type="line"/>
      <point x="143" y="94"/>
      <point x="190" y="242"/>
      <point x="262" y="671" type="curve"/>
      <point x="268" y="663" type="line"/>
      <point x="162" y="672" type="line"/>
      <point x="165" y="687" type="line"/>
      <point x="285" y="692" type="line"/>
      <point x="653" y="692" type="line"/>
      <point x="651" y="677" type="line"/>
      <point x="542" y="663" type="line"/>
      <point x="550" y="671" type="line"/>
      <point x="446" y="11" type="line"/>
      <point x="440" y="19" type="line"/>
      <point x="556" y="19" type="line"/>
      <point x="527" y="-163" type="line"/>
      <point x="512" y="-163" type="line"/>
      <point x="521" y="3" type="line"/>
      <point x="525" y="0" type="line"/>
      <point x="4" y="0" type="line"/>
      <point x="8" y="3" type="line"/>
      <point x="-34" y="-163" type="line"/>
      <point x="-49" y="-163" type="line"/>
      <point x="-21" y="19" type="line"/>
      <point x="36" y="19" type="line"/>
    </contour>
  </outline>
</glyph>
<glyph name="Ef-cy" format="2">
  <advance width="757"/>
  <unicode hex="0424"/>
  <outline>
    <contour>
      <point x="554" y="697" type="line"/>
      <point x="556" y="712" type="line"/>
      <point x="344" y="707" type="line"/>
      <point x="342" y="692" type="line"/>
      <point x="443" y="683" type="line"/>
      <point x="437" y="691" type="line"/>
      <point x="328" y="1" type="line"/>
      <point x="336" y="9" type="line"/>
      <point x="231" y="-5" type="line"/>
      <point x="229" y="-20" type="line"/>
      <point x="440" y="-20" type="line"/>
      <point x="442" y="-5" type="line"/>
      <point x="342" y="9" type="line"/>
      <point x="348" y="1" type="line"/>
      <point x="457" y="691" type="line"/>
      <point x="449" y="683" type="line"/>
    </contour>
    <contour>
      <point x="338" y="102" type="curve" smooth="yes"/>
      <point x="559" y="102"/>
      <point x="714" y="203"/>
      <point x="714" y="386" type="curve" smooth="yes"/>
      <point x="714" y="548"/>
      <point x="592" y="591"/>
      <point x="444" y="591" type="curve" smooth="yes"/>
      <point x="223" y="591"/>
      <point x="71" y="495"/>
      <point x="71" y="311" type="curve" smooth="yes"/>
      <point x="71" y="148"/>
      <point x="189" y="102"/>
    </contour>
    <contour>
      <point x="337" y="122" type="curve" smooth="yes"/>
      <point x="193" y="122"/>
      <point x="92" y="163"/>
      <point x="92" y="310" type="curve" smooth="yes"/>
      <point x="92" y="481"/>
      <point x="228" y="571"/>
      <point x="443" y="571" type="curve" smooth="yes"/>
      <point x="590" y="571"/>
      <point x="693" y="529"/>
      <point x="693" y="383" type="curve" smooth="yes"/>
      <point x="693" y="213"/>
      <point x="552" y="122"/>
    </contour>
  </outline>
</glyph>
<glyph name="Tse-cy" format="2">
  <advance width="758"/>
  <unicode hex="0426"/>
  <outline>
    <contour>
      <point x="620" y="-163" type="line"/>
      <point x="635" y="-163" type="line"/>
      <point x="663" y="19" type="line"/>
      <point x="553" y="19" type="line"/>
      <point x="557" y="8" type="line"/>
      <point x="662" y="671" type="line"/>
      <point x="653" y="663" type="line"/>
      <point x="760" y="677" type="line"/>
      <point x="762" y="692" type="line"/>
      <point x="548" y="687" type="line"/>
      <point x="546" y="672" type="line"/>
      <point x="647" y="663" type="line"/>
      <point x="642" y="671" type="line"/>
      <point x="538" y="14" type="line"/>
      <point x="547" y="19" type="line"/>
      <point x="134" y="19" type="line"/>
      <point x="141" y="14" type="line"/>
      <point x="245" y="671" type="line"/>
      <point x="237" y="663" type="line"/>
      <point x="342" y="677" type="line"/>
      <point x="344" y="692" type="line"/>
      <point x="131" y="687" type="line"/>
      <point x="129" y="672" type="line"/>
      <point x="231" y="663" type="line"/>
      <point x="225" y="671" type="line"/>
      <point x="122" y="21" type="line"/>
      <point x="131" y="29" type="line"/>
      <point x="25" y="15" type="line"/>
      <point x="23" y="0" type="line"/>
      <point x="634" y="0" type="line"/>
      <point x="631" y="3" type="line"/>
    </contour>
  </outline>
</glyph>
<glyph name="Ereversed-cy" format="2">
  <advance width="654"/>
  <unicode hex="042D"/>
  <guideline x="60" y="516" angle="0"/>
  <guideline x="158" y="650" angle="0"/>
  <anchor x="381" y="692" name="top"/>
  <outline>
    <contour>
      <point x="39" y="85" type="line"/>
      <point x="99" y="22"/>
      <point x="169" y="-6"/>
      <point x="238" y="-6" type="curve" smooth="yes"/>
      <point x="423" y="-6"/>
      <point x="587" y="190"/>
      <point x="587" y="434" type="curve" smooth="yes"/>
      <point x="587" y="613"/>
      <point x="499" y="698"/>
      <point x="356" y="698" type="curve" smooth="yes"/>
      <point x="293" y="698"/>
      <point x="220" y="681"/>
      <point x="139" y="646" type="curve"/>
      <point x="124" y="516" type="line"/>
      <point x="138" y="516" type="line"/>
      <point x="168" y="642" type="line"/>
      <point x="164" y="637" type="line"/>
      <point x="233" y="664"/>
      <point x="296" y="678"/>
      <point x="352" y="678" type="curve" smooth="yes"/>
      <point x="485" y="678"/>
      <point x="566" y="600"/>
      <point x="566" y="431" type="curve" smooth="yes"/>
      <point x="566" y="191"/>
      <point x="401" y="14"/>
      <point x="237" y="14" type="curve" smooth="yes"/>
      <point x="173" y="14"/>
      <point x="109" y="41"/>
      <point x="55" y="102" type="curve"/>
    </contour>
    <contour>
      <point x="194" y="352" type="line"/>
      <point x="561" y="352" type="line"/>
      <point x="564" y="371" type="line"/>
      <point x="197" y="371" type="line"/>
    </contour>
  </outline>
</glyph>
<glyph name="Iu-cy" format="2">
  <advance width="974"/>
  <unicode hex="042E"/>
  <outline>
    <contour>
      <point x="23" y="0" type="line"/>
      <point x="235" y="0" type="line"/>
      <point x="237" y="15" type="line"/>
      <point x="137" y="29" type="line"/>
      <point x="142" y="21" type="line"/>
      <point x="194" y="349" type="line"/>
      <point x="186" y="342" type="line"/>
      <point x="336" y="342" type="line"/>
      <point x="339" y="361" type="line"/>
      <point x="189" y="361" type="line"/>
      <point x="194" y="352" type="line"/>
      <point x="245" y="671" type="line"/>
      <point x="237" y="663" type="line"/>
      <point x="342" y="677" type="line"/>
      <point x="344" y="692" type="line"/>
      <point x="131" y="687" type="line"/>
      <point x="129" y="672" type="line"/>
      <point x="231" y="663" type="line"/>
      <point x="225" y="671" type="line"/>
      <point x="122" y="21" type="line"/>
      <point x="131" y="29" type="line"/>
      <point x="25" y="15" type="line"/>
    </contour>
    <contour>
      <point x="554" y="-6" type="curve" smooth="yes"/>
      <point x="769" y="-6"/>
      <point x="910" y="216"/>
      <point x="910" y="430" type="curve" smooth="yes"/>
      <point x="910" y="616"/>
      <point x="803" y="698"/>
      <point x="673" y="698" type="curve" smooth="yes"/>
      <point x="462" y="698"/>
      <point x="318" y="484"/>
      <point x="318" y="264" type="curve" smooth="yes"/>
      <point x="318" y="73"/>
      <point x="426" y="-6"/>
    </contour>
    <contour>
      <point x="556" y="14" type="curve" smooth="yes"/>
      <point x="435" y="14"/>
      <point x="339" y="93"/>
      <point x="339" y="266" type="curve" smooth="yes"/>
      <point x="339" y="470"/>
      <point x="473" y="678"/>
      <point x="670" y="678" type="curve" smooth="yes"/>
      <point x="791" y="678"/>
      <point x="889" y="599"/>
      <point x="889" y="426" type="curve" smooth="yes"/>
      <point x="889" y="222"/>
      <point x="753" y="14"/>
    </contour>
  </outline>
</glyph>
<glyph name="be-cy" format="2">
  <advance width="586"/>
  <unicode hex="0431"/>
  <outline>
    <contour>
      <point x="255" y="-6" type="curve" smooth="yes"/>
      <point x="432" y="-6"/>
      <point x="526" y="175"/>
      <point x="526" y="318" type="curve" smooth="yes"/>
      <point x="526" y="452"/>
      <point x="443" y="498"/>
      <point x="362" y="498" type="curve" smooth="yes"/>
      <point x="282" y="498"/>
      <point x="201" y="454"/>
      <point x="123" y="392" type="curve"/>
      <point x="121" y="370" type="line"/>
      <point x="197" y="431"/>
      <point x="276" y="479"/>
      <point x="357" y="479" type="curve" smooth="yes"/>
      <point x="445" y="479"/>
      <point x="505" y="424"/>
      <point x="505" y="317" type="curve" smooth="yes"/>
      <point x="505" y="202"/>
      <point x="434" y="14"/>
      <point x="255" y="14" type="curve" smooth="yes"/>
      <point x="182" y="14"/>
      <point x="107" y="45"/>
      <point x="107" y="231" type="curve" smooth="yes"/>
      <point x="107" y="409"/>
      <point x="175" y="595"/>
      <point x="342" y="671" type="curve" smooth="yes"/>
      <point x="418" y="706"/>
      <point x="519" y="719"/>
      <point x="599" y="749" type="curve"/>
      <point x="594" y="737" type="line"/>
      <point x="580" y="774" type="line"/>
      <point x="591" y="769" type="line"/>
      <point x="516" y="739"/>
      <point x="404" y="721"/>
      <point x="334" y="690" type="curve" smooth="yes"/>
      <point x="190" y="627"/>
      <point x="86" y="452"/>
      <point x="86" y="230" type="curve" smooth="yes"/>
      <point x="86" y="26"/>
      <point x="180" y="-6"/>
    </contour>
  </outline>
</glyph>
<glyph name="zhe-cy" format="2">
  <advance width="858"/>
  <unicode hex="0436"/>
  <anchor x="778" y="0" name="bottomright"/>
  <anchor x="474" y="522" name="top"/>
  <outline>
    <contour>
      <point x="649" y="-6" type="curve" smooth="yes"/>
      <point x="680" y="-6"/>
      <point x="719" y="10"/>
      <point x="763" y="44" type="curve"/>
      <point x="753" y="60" type="line"/>
      <point x="715" y="30"/>
      <point x="679" y="14"/>
      <point x="652" y="14" type="curve" smooth="yes"/>
      <point x="598" y="14"/>
      <point x="570" y="72"/>
      <point x="570" y="170" type="curve" smooth="yes"/>
      <point x="570" y="318"/>
      <point x="634" y="508"/>
      <point x="755" y="508" type="curve" smooth="yes"/>
      <point x="768" y="508"/>
      <point x="791" y="506"/>
      <point x="815" y="493" type="curve"/>
      <point x="811" y="502" type="line"/>
      <point x="808" y="396" type="line"/>
      <point x="826" y="396" type="line"/>
      <point x="843" y="500" type="line"/>
      <point x="811" y="522"/>
      <point x="779" y="528"/>
      <point x="755" y="528" type="curve" smooth="yes"/>
      <point x="620" y="528"/>
      <point x="549" y="330"/>
      <point x="549" y="173" type="curve" smooth="yes"/>
      <point x="549" y="61"/>
      <point x="585" y="-6"/>
    </contour>
    <contour>
      <point x="103" y="-6" type="curve" smooth="yes"/>
      <point x="238" y="-6"/>
      <point x="309" y="192"/>
      <point x="309" y="349" type="curve" smooth="yes"/>
      <point x="309" y="461"/>
      <point x="273" y="528"/>
      <point x="209" y="528" type="curve" smooth="yes"/>
      <point x="178" y="528"/>
      <point x="137" y="511"/>
      <point x="95" y="477" type="curve"/>
      <point x="105" y="462" type="line"/>
      <point x="145" y="493"/>
      <point x="179" y="508"/>
      <point x="206" y="508" type="curve" smooth="yes"/>
      <point x="260" y="508"/>
      <point x="288" y="450"/>
      <point x="288" y="352" type="curve" smooth="yes"/>
      <point x="288" y="204"/>
      <point x="224" y="14"/>
      <point x="103" y="14" type="curve" smooth="yes"/>
      <point x="90" y="14"/>
      <point x="67" y="16"/>
      <point x="43" y="29" type="curve"/>
      <point x="47" y="20" type="line"/>
      <point x="50" y="126" type="line"/>
      <point x="32" y="126" type="line"/>
      <point x="15" y="22" type="line"/>
      <point x="47" y="0"/>
      <point x="79" y="-6"/>
    </contour>
    <contour>
      <point x="382" y="0" type="line"/>
      <point x="401" y="0" type="line"/>
      <point x="483" y="522" type="line"/>
      <point x="464" y="522" type="line"/>
    </contour>
    <contour>
      <point x="296" y="261" type="line"/>
      <point x="566" y="261" type="line"/>
      <point x="566" y="281" type="line"/>
      <point x="296" y="281" type="line"/>
    </contour>
  </outline>
</glyph>
<glyph name="em-cy" format="2">
  <advance width="733"/>
  <unicode hex="043C"/>
  <guideline x="477" y="325" angle="90"/>
  <anchor x="656" y="0" name="bottomright"/>
  <outline>
    <contour>
      <point x="-33" y="-1" type="line"/>
      <point x="-20" y="-4"/>
      <point x="-9" y="-6"/>
      <point x="3" y="-6" type="curve" smooth="yes"/>
      <point x="123" y="-6"/>
      <point x="160" y="176"/>
      <point x="213" y="510" type="curve"/>
      <point x="203" y="513" type="line"/>
      <point x="339" y="76" type="line"/>
      <point x="356" y="79" type="line"/>
      <point x="635" y="509" type="line"/>
      <point x="630" y="509" type="line"/>
      <point x="549" y="-2" type="line"/>
      <point x="656" y="2" type="line"/>
      <point x="658" y="17" type="line"/>
      <point x="565" y="29" type="line"/>
      <point x="572" y="20" type="line"/>
      <point x="653" y="525" type="line"/>
      <point x="623" y="522" type="line"/>
      <point x="345" y="94" type="line"/>
      <point x="352" y="94" type="line"/>
      <point x="218" y="525" type="line"/>
      <point x="101" y="522" type="line"/>
      <point x="99" y="508" type="line"/>
      <point x="196" y="498" type="line"/>
      <point x="194" y="505" type="line"/>
      <point x="143" y="206"/>
      <point x="118" y="17"/>
      <point x="-3" y="17" type="curve" smooth="yes"/>
      <point x="-11" y="17"/>
      <point x="-19" y="18"/>
      <point x="-28" y="21" type="curve"/>
    </contour>
  </outline>
</glyph>
<glyph name="en-cy" format="2">
  <advance width="612"/>
  <unicode hex="043D"/>
  <anchor x="535" y="0" name="bottomright"/>
  <outline>
    <contour>
      <point x="82" y="0" type="line"/>
      <point x="101" y="0" type="line"/>
      <point x="145" y="274" type="line"/>
      <point x="135" y="265" type="line"/>
      <point x="479" y="265" type="line"/>
      <point x="471" y="272" type="line"/>
      <point x="428" y="-2" type="line"/>
      <point x="535" y="1" type="line"/>
      <point x="537" y="16" type="line"/>
      <point x="444" y="29" type="line"/>
      <point x="451" y="19" type="line"/>
      <point x="531" y="522" type="line"/>
      <point x="511" y="522" type="line"/>
      <point x="472" y="278" type="line"/>
      <point x="482" y="284" type="line"/>
      <point x="138" y="284" type="line"/>
      <point x="145" y="275" type="line"/>
      <point x="185" y="525" type="line"/>
      <point x="78" y="520" type="line"/>
      <point x="76" y="505" type="line"/>
      <point x="166" y="492" type="line"/>
      <point x="161" y="502" type="line"/>
    </contour>
  </outline>
</glyph>
<glyph name="pe-cy" format="2">
  <advance width="621"/>
  <unicode hex="043F"/>
  <anchor x="533" y="0" name="bottomright"/>
  <outline>
    <contour>
      <point x="426" y="-2" type="line"/>
      <point x="532" y="2" type="line"/>
      <point x="534" y="17" type="line"/>
      <point x="444" y="28" type="line"/>
      <point x="449" y="21" type="line"/>
      <point x="526" y="499" type="line"/>
      <point x="516" y="492" type="line"/>
      <point x="613" y="508" type="line"/>
      <point x="615" y="522" type="line"/>
      <point x="187" y="522" type="line"/>
      <point x="89" y="520" type="line"/>
      <point x="87" y="505" type="line"/>
      <point x="179" y="492" type="line"/>
      <point x="172" y="502" type="line"/>
      <point x="96" y="21" type="line"/>
      <point x="104" y="29" type="line"/>
      <point x="9" y="15" type="line"/>
      <point x="6" y="0" type="line"/>
      <point x="198" y="0" type="line"/>
      <point x="201" y="15" type="line"/>
      <point x="110" y="29" type="line"/>
      <point x="115" y="21" type="line"/>
      <point x="194" y="512" type="line"/>
      <point x="184" y="504" type="line"/>
      <point x="515" y="503" type="line"/>
      <point x="508" y="512" type="line"/>
    </contour>
  </outline>
</glyph>
<glyph name="che-cy" format="2">
  <advance width="541"/>
  <unicode hex="0447"/>
  <guideline x="438" y="501" angle="261"/>
  <guideline x="150" y="501" angle="261"/>
  <anchor x="465" y="0" name="bottomright"/>
  <anchor x="239" y="223" name="center"/>
  <anchor x="297" y="522" name="top"/>
  <outline>
    <contour>
      <point x="358" y="-2" type="line"/>
      <point x="465" y="2" type="line"/>
      <point x="467" y="17" type="line"/>
      <point x="374" y="29" type="line"/>
      <point x="381" y="19" type="line"/>
      <point x="460" y="522" type="line"/>
      <point x="441" y="522" type="line"/>
      <point x="417" y="370" type="line" smooth="yes"/>
      <point x="404" y="288"/>
      <point x="308" y="227"/>
      <point x="217" y="227" type="curve" smooth="yes"/>
      <point x="110" y="227"/>
      <point x="120" y="311"/>
      <point x="129" y="371" type="curve" smooth="yes"/>
      <point x="153" y="525" type="line"/>
      <point x="46" y="520" type="line"/>
      <point x="44" y="506" type="line"/>
      <point x="134" y="495" type="line"/>
      <point x="130" y="502" type="line"/>
      <point x="110" y="370" type="line" smooth="yes"/>
      <point x="102" y="317"/>
      <point x="86" y="207"/>
      <point x="213" y="207" type="curve" smooth="yes"/>
      <point x="304" y="207"/>
      <point x="406" y="264"/>
      <point x="425" y="350" type="curve"/>
      <point x="413" y="343" type="line"/>
    </contour>
  </outline>
</glyph>
<glyph name="hardsign-cy" format="2">
  <advance width="542"/>
  <unicode hex="044A"/>
  <outline>
    <contour>
      <point x="156" y="0" type="line"/>
      <point x="259" y="0" type="line" smooth="yes"/>
      <point x="411" y="0"/>
      <point x="492" y="64"/>
      <point x="492" y="192" type="curve" smooth="yes"/>
      <point x="492" y="268"/>
      <point x="442" y="312"/>
      <point x="348" y="312" type="curve" smooth="yes"/>
      <point x="219" y="312" type="line"/>
      <point x="223" y="306" type="line"/>
      <point x="257" y="522" type="line"/>
      <point x="61" y="522" type="line"/>
      <point x="41" y="398" type="line"/>
      <point x="56" y="398" type="line"/>
      <point x="87" y="510" type="line"/>
      <point x="78" y="503" type="line"/>
      <point x="244" y="503" type="line"/>
      <point x="235" y="506" type="line"/>
    </contour>
    <contour>
      <point x="177" y="12" type="line"/>
      <point x="222" y="300" type="line"/>
      <point x="215" y="293" type="line"/>
      <point x="341" y="293" type="line" smooth="yes"/>
      <point x="431" y="293"/>
      <point x="471" y="256"/>
      <point x="471" y="188" type="curve" smooth="yes"/>
      <point x="471" y="74"/>
      <point x="403" y="19"/>
      <point x="264" y="19" type="curve" smooth="yes"/>
      <point x="172" y="19" type="line"/>
    </contour>
  </outline>
</glyph>
<glyph name="softsign-cy" format="2">
  <advance width="469"/>
  <unicode hex="044C"/>
  <outline>
    <contour>
      <point x="104" y="12" type="line"/>
      <point x="149" y="300" type="line"/>
      <point x="142" y="293" type="line"/>
      <point x="268" y="293" type="line" smooth="yes"/>
      <point x="358" y="293"/>
      <point x="398" y="256"/>
      <point x="398" y="188" type="curve" smooth="yes"/>
      <point x="398" y="74"/>
      <point x="330" y="19"/>
      <point x="191" y="19" type="curve" smooth="yes"/>
      <point x="99" y="19" type="line"/>
    </contour>
    <contour>
      <point x="150" y="306" type="line"/>
      <point x="185" y="525" type="line"/>
      <point x="78" y="520" type="line"/>
      <point x="76" y="505" type="line"/>
      <point x="169" y="492" type="line"/>
      <point x="161" y="502" type="line"/>
      <point x="83" y="0" type="line"/>
      <point x="186" y="0" type="line" smooth="yes"/>
      <point x="338" y="0"/>
      <point x="419" y="64"/>
      <point x="419" y="192" type="curve" smooth="yes"/>
      <point x="419" y="268"/>
      <point x="369" y="312"/>
      <point x="275" y="312" type="curve" smooth="yes"/>
      <point x="146" y="312" type="line"/>
    </contour>
  </outline>
</glyph>
<glyph name="dje-cy" format="2">
  <advance width="556"/>
  <unicode hex="0452"/>
  <guideline x="29" y="-34" angle="90"/>
  <guideline x="45" y="-34" angle="90"/>
  <guideline x="44" y="373" angle="260.9997"/>
  <outline>
    <contour>
      <point x="78" y="585" type="line"/>
      <point x="338" y="585" type="line"/>
      <point x="341" y="604" type="line"/>
      <point x="81" y="604" type="line"/>
    </contour>
    <contour>
      <point x="474" y="293" type="line" smooth="yes"/>
      <point x="492" y="410"/>
      <point x="437" y="461"/>
      <point x="364" y="461" type="curve" smooth="yes"/>
      <point x="286" y="461"/>
      <point x="181" y="403"/>
      <point x="118" y="234" type="curve"/>
      <point x="123" y="235" type="line"/>
      <point x="211" y="765" type="line"/>
      <point x="104" y="760" type="line"/>
      <point x="102" y="745" type="line"/>
      <point x="193" y="732" type="line"/>
      <point x="187" y="742" type="line"/>
      <point x="69" y="0" type="line"/>
      <point x="89" y="0" type="line"/>
      <point x="108" y="120" type="line" smooth="yes"/>
      <point x="144" y="346"/>
      <point x="273" y="442"/>
      <point x="364" y="442" type="curve" smooth="yes"/>
      <point x="424" y="442"/>
      <point x="470" y="400"/>
      <point x="454" y="294" type="curve" smooth="yes"/>
      <point x="397" y="-77" type="line" smooth="yes"/>
      <point x="381" y="-182"/>
      <point x="349" y="-217"/>
      <point x="266" y="-217" type="curve" smooth="yes"/>
      <point x="262" y="-217"/>
      <point x="258" y="-217"/>
      <point x="254" y="-217" type="curve"/>
      <point x="265" y="-209" type="line"/>
      <point x="261" y="-244" type="line"/>
      <point x="253" y="-235" type="line"/>
      <point x="258" y="-236"/>
      <point x="264" y="-236"/>
      <point x="270" y="-236" type="curve" smooth="yes"/>
      <point x="361" y="-236"/>
      <point x="400" y="-187"/>
      <point x="417" y="-75" type="curve" smooth="yes"/>
    </contour>
  </outline>
</glyph>
<glyph name="e-cy" format="2">
  <advance width="494"/>
  <unicode hex="0454"/>
  <outline>
    <contour>
      <point x="358" y="282" type="line"/>
      <point x="89" y="282" type="line"/>
      <point x="86" y="263" type="line"/>
      <point x="353" y="263" type="line"/>
    </contour>
    <contour>
      <point x="234" y="-6" type="curve" smooth="yes"/>
      <point x="286" y="-6"/>
      <point x="344" y="12"/>
      <point x="400" y="47" type="curve"/>
      <point x="391" y="63" type="line"/>
      <point x="339" y="31"/>
      <point x="286" y="14"/>
      <point x="239" y="14" type="curve" smooth="yes"/>
      <point x="151" y="14"/>
      <point x="85" y="68"/>
      <point x="85" y="198" type="curve" smooth="yes"/>
      <point x="85" y="364"/>
      <point x="192" y="509"/>
      <point x="330" y="509" type="curve" smooth="yes"/>
      <point x="366" y="509"/>
      <point x="403" y="499"/>
      <point x="441" y="479" type="curve"/>
      <point x="437" y="488" type="line"/>
      <point x="433" y="382" type="line"/>
      <point x="451" y="382" type="line"/>
      <point x="469" y="486" type="line"/>
      <point x="423" y="515"/>
      <point x="376" y="528"/>
      <point x="333" y="528" type="curve" smooth="yes"/>
      <point x="183" y="528"/>
      <point x="64" y="378"/>
      <point x="64" y="197" type="curve" smooth="yes"/>
      <point x="64" y="54"/>
      <point x="138" y="-6"/>
    </contour>
  </outline>
</glyph>
<glyph name="nje-cy" format="2">
  <advance width="800"/>
  <unicode hex="045A"/>
  <outline>
    <contour>
      <point x="562" y="-6" type="curve" smooth="yes"/>
      <point x="665" y="-6"/>
      <point x="749" y="79"/>
      <point x="749" y="186" type="curve" smooth="yes"/>
      <point x="749" y="276"/>
      <point x="692" y="312"/>
      <point x="619" y="312" type="curve" smooth="yes"/>
      <point x="566" y="312"/>
      <point x="512" y="293"/>
      <point x="451" y="248" type="curve"/>
      <point x="450" y="227" type="line"/>
      <point x="508" y="271"/>
      <point x="564" y="293"/>
      <point x="620" y="293" type="curve" smooth="yes"/>
      <point x="684" y="293"/>
      <point x="728" y="261"/>
      <point x="728" y="184" type="curve" smooth="yes"/>
      <point x="728" y="87"/>
      <point x="656" y="13"/>
      <point x="564" y="13" type="curve" smooth="yes"/>
      <point x="488" y="13"/>
      <point x="433" y="62"/>
      <point x="455" y="203" type="curve" smooth="yes"/>
      <point x="505" y="522" type="line"/>
      <point x="485" y="522" type="line"/>
      <point x="446" y="278" type="line"/>
      <point x="456" y="284" type="line"/>
      <point x="137" y="284" type="line"/>
      <point x="144" y="275" type="line"/>
      <point x="184" y="525" type="line"/>
      <point x="77" y="520" type="line"/>
      <point x="75" y="505" type="line"/>
      <point x="165" y="492" type="line"/>
      <point x="160" y="502" type="line"/>
      <point x="81" y="0" type="line"/>
      <point x="100" y="0" type="line"/>
      <point x="144" y="274" type="line"/>
      <point x="134" y="265" type="line"/>
      <point x="453" y="265" type="line"/>
      <point x="445" y="272" type="line"/>
      <point x="435" y="204" type="line" smooth="yes"/>
      <point x="414" y="60"/>
      <point x="471" y="-6"/>
    </contour>
  </outline>
</glyph>
<glyph name="tshe-cy" format="2">
  <advance width="576"/>
  <unicode hex="045B"/>
  <guideline x="75" y="574" angle="261"/>
  <outline>
    <contour>
      <point x="409" y="-2" type="line"/>
      <point x="516" y="2" type="line"/>
      <point x="518" y="17" type="line"/>
      <point x="425" y="29" type="line"/>
      <point x="432" y="19" type="line"/>
      <point x="474" y="293" type="line" smooth="yes"/>
      <point x="492" y="410"/>
      <point x="437" y="461"/>
      <point x="364" y="461" type="curve" smooth="yes"/>
      <point x="286" y="461"/>
      <point x="181" y="403"/>
      <point x="118" y="234" type="curve"/>
      <point x="123" y="235" type="line"/>
      <point x="211" y="765" type="line"/>
      <point x="104" y="760" type="line"/>
      <point x="102" y="745" type="line"/>
      <point x="193" y="732" type="line"/>
      <point x="187" y="742" type="line"/>
      <point x="69" y="0" type="line"/>
      <point x="89" y="0" type="line"/>
      <point x="108" y="120" type="line" smooth="yes"/>
      <point x="144" y="346"/>
      <point x="273" y="442"/>
      <point x="364" y="442" type="curve" smooth="yes"/>
      <point x="424" y="442"/>
      <point x="470" y="400"/>
      <point x="454" y="294" type="curve" smooth="yes"/>
    </contour>
    <contour>
      <point x="78" y="585" type="line"/>
      <point x="338" y="585" type="line"/>
      <point x="341" y="604" type="line"/>
      <point x="81" y="604" type="line"/>
    </contour>
  </outline>
</glyph>
<glyph name="yat-cy" format="2">
  <advance width="738"/>
  <unicode hex="0463"/>
  <outline>
    <contour>
      <point x="374" y="204" type="line" smooth="yes"/>
      <point x="346" y="70"/>
      <point x="405" y="-6"/>
      <point x="503" y="-6" type="curve" smooth="yes"/>
      <point x="606" y="-6"/>
      <point x="687" y="80"/>
      <point x="687" y="187" type="curve" smooth="yes"/>
      <point x="687" y="276"/>
      <point x="630" y="312"/>
      <point x="557" y="312" type="curve" smooth="yes"/>
      <point x="504" y="312"/>
      <point x="450" y="293"/>
      <point x="389" y="248" type="curve"/>
      <point x="388" y="227" type="line"/>
      <point x="446" y="271"/>
      <point x="502" y="293"/>
      <point x="556" y="293" type="curve" smooth="yes"/>
      <point x="622" y="293"/>
      <point x="666" y="260"/>
      <point x="666" y="184" type="curve" smooth="yes"/>
      <point x="666" y="86"/>
      <point x="592" y="13"/>
      <point x="505" y="13" type="curve" smooth="yes"/>
      <point x="422" y="13"/>
      <point x="366" y="80"/>
      <point x="393" y="203" type="curve" smooth="yes"/>
      <point x="427" y="360" type="line" smooth="yes"/>
      <point x="452" y="477"/>
      <point x="404" y="528"/>
      <point x="347" y="528" type="curve" smooth="yes"/>
      <point x="287" y="528"/>
      <point x="204" y="470"/>
      <point x="141" y="301" type="curve"/>
      <point x="148" y="302" type="line"/>
      <point x="185" y="525" type="line"/>
      <point x="78" y="520" type="line"/>
      <point x="76" y="505" type="line"/>
      <point x="167" y="492" type="line"/>
      <point x="161" y="502" type="line"/>
      <point x="81" y="0" type="line"/>
      <point x="101" y="0" type="line"/>
      <point x="131" y="187" type="line" smooth="yes"/>
      <point x="167" y="412"/>
      <point x="280" y="509"/>
      <point x="348" y="509" type="curve" smooth="yes"/>
      <point x="399" y="509"/>
      <point x="428" y="460"/>
      <point x="407" y="361" type="curve" smooth="yes"/>
    </contour>
  </outline>
</glyph>
<glyph name="Izhitsa-cy" format="2">
  <advance width="655"/>
  <unicode hex="0474"/>
  <anchor x="400" y="692" name="top"/>
  <outline>
    <contour>
      <point x="266" y="-2" type="line"/>
      <point x="285" y="-2" type="line"/>
      <point x="575" y="573" type="line" smooth="yes"/>
      <point x="610" y="642"/>
      <point x="631" y="679"/>
      <point x="698" y="679" type="curve" smooth="yes"/>
      <point x="704" y="679"/>
      <point x="698" y="679"/>
      <point x="710" y="678" type="curve"/>
      <point x="713" y="694" type="line"/>
      <point x="701" y="697"/>
      <point x="690" y="698"/>
      <point x="681" y="698" type="curve" smooth="yes"/>
      <point x="617" y="698"/>
      <point x="590" y="641"/>
      <point x="555" y="572" type="curve" smooth="yes"/>
      <point x="277" y="19" type="line"/>
      <point x="281" y="19" type="line"/>
      <point x="182" y="670" type="line"/>
      <point x="178" y="663" type="line"/>
      <point x="299" y="677" type="line"/>
      <point x="301" y="692" type="line"/>
      <point x="75" y="687" type="line"/>
      <point x="72" y="672" type="line"/>
      <point x="170" y="663" type="line"/>
      <point x="162" y="670" type="line"/>
    </contour>
  </outline>
</glyph>
<glyph name="izhitsa-cy" format="2">
  <advance width="510"/>
  <unicode hex="0475"/>
  <guideline x="264" y="382" angle="81"/>
  <anchor x="286" y="522" name="top"/>
  <outline>
    <contour>
      <point x="559" y="520" type="line"/>
      <point x="543" y="525"/>
      <point x="529" y="528"/>
      <point x="516" y="528" type="curve" smooth="yes"/>
      <point x="458" y="528"/>
      <point x="435" y="476"/>
      <point x="389" y="382" type="curve" smooth="yes"/>
      <point x="212" y="17" type="line"/>
      <point x="215" y="17" type="line"/>
      <point x="119" y="522" type="line"/>
      <point x="34" y="520" type="line"/>
      <point x="31" y="505" type="line"/>
      <point x="109" y="497" type="line"/>
      <point x="101" y="504" type="line"/>
      <point x="200" y="-2" type="line"/>
      <point x="219" y="-2" type="line"/>
      <point x="418" y="397" type="line" smooth="yes"/>
      <point x="452" y="465"/>
      <point x="474" y="499"/>
      <point x="518" y="499" type="curve" smooth="yes"/>
      <point x="526" y="499"/>
      <point x="538" y="498"/>
      <point x="550" y="494" type="curve"/>
    </contour>
  </outline>
</glyph>
<glyph name="Ertick-cy" format="2">
  <advance width="566"/>
  <unicode hex="048E"/>
  <outline>
    <contour>
      <point x="460" y="214" type="line"/>
      <point x="477" y="226" type="line"/>
      <point x="366" y="421" type="line"/>
      <point x="349" y="408" type="line"/>
    </contour>
    <contour>
      <point x="282" y="285" type="line" smooth="yes"/>
      <point x="446" y="285"/>
      <point x="557" y="390"/>
      <point x="557" y="533" type="curve" smooth="yes"/>
      <point x="557" y="637"/>
      <point x="499" y="692"/>
      <point x="377" y="692" type="curve" smooth="yes"/>
      <point x="248" y="692" type="line"/>
      <point x="130" y="687" type="line"/>
      <point x="128" y="672" type="line"/>
      <point x="230" y="663" type="line"/>
      <point x="224" y="671" type="line"/>
      <point x="121" y="21" type="line"/>
      <point x="130" y="29" type="line"/>
      <point x="24" y="15" type="line"/>
      <point x="22" y="0" type="line"/>
      <point x="258" y="0" type="line"/>
      <point x="260" y="15" type="line"/>
      <point x="136" y="29" type="line"/>
      <point x="141" y="21" type="line"/>
      <point x="184" y="292" type="line"/>
      <point x="176" y="285" type="line"/>
    </contour>
    <contour>
      <point x="374" y="673" type="line" smooth="yes"/>
      <point x="481" y="673"/>
      <point x="536" y="626"/>
      <point x="536" y="531" type="curve" smooth="yes"/>
      <point x="536" y="403"/>
      <point x="436" y="304"/>
      <point x="284" y="304" type="curve" smooth="yes"/>
      <point x="179" y="304" type="line"/>
      <point x="185" y="297" type="line"/>
      <point x="245" y="680" type="line"/>
      <point x="237" y="673" type="line"/>
    </contour>
  </outline>
</glyph>
<glyph name="gheupturn-cy" format="2">
  <advance width="388"/>
  <unicode hex="0491"/>
  <outline>
    <contour>
      <point x="-58" y="-236" type="curve" smooth="yes"/>
      <point x="33" y="-236"/>
      <point x="71" y="-187"/>
      <point x="89" y="-75" type="curve" smooth="yes"/>
      <point x="182" y="514" type="line"/>
      <point x="176" y="503" type="line"/>
      <point x="429" y="503" type="line"/>
      <point x="449" y="637" type="line"/>
      <point x="435" y="637" type="line"/>
      <point x="403" y="513" type="line"/>
      <point x="412" y="522" type="line"/>
      <point x="179" y="522" type="line"/>
      <point x="78" y="520" type="line"/>
      <point x="76" y="505" type="line"/>
      <point x="166" y="492" type="line"/>
      <point x="160" y="499" type="line"/>
      <point x="69" y="-77" type="line" smooth="yes"/>
      <point x="52" y="-182"/>
      <point x="21" y="-217"/>
      <point x="-62" y="-217" type="curve" smooth="yes"/>
      <point x="-70" y="-217"/>
      <point x="-80" y="-217"/>
      <point x="-90" y="-216" type="curve"/>
      <point x="-93" y="-234" type="line"/>
      <point x="-81" y="-235"/>
      <point x="-71" y="-236"/>
    </contour>
  </outline>
</glyph>
<glyph name="Ghestroke-cy" format="2">
  <advance width="548"/>
  <unicode hex="0492"/>
  <guideline x="98" y="479" angle="261"/>
  <anchor x="240" y="0" name="bottomright"/>
  <anchor x="396" y="692" name="top"/>
  <outline>
    <contour>
      <point x="433" y="356" type="line"/>
      <point x="78" y="356" type="line"/>
      <point x="75" y="337" type="line"/>
      <point x="430" y="337" type="line"/>
    </contour>
    <contour>
      <point x="23" y="0" type="line"/>
      <point x="253" y="0" type="line"/>
      <point x="255" y="15" type="line"/>
      <point x="136" y="29" type="line"/>
      <point x="142" y="21" type="line"/>
      <point x="246" y="678" type="line"/>
      <point x="237" y="673" type="line"/>
      <point x="553" y="673" type="line"/>
      <point x="547" y="680" type="line"/>
      <point x="541" y="547" type="line"/>
      <point x="556" y="547" type="line"/>
      <point x="578" y="692" type="line"/>
      <point x="248" y="692" type="line"/>
      <point x="131" y="687" type="line"/>
      <point x="129" y="672" type="line"/>
      <point x="231" y="663" type="line"/>
      <point x="225" y="671" type="line"/>
      <point x="122" y="21" type="line"/>
      <point x="130" y="29" type="line"/>
      <point x="25" y="15" type="line"/>
    </contour>
  </outline>
</glyph>
<glyph name="Zedescender-cy" format="2">
  <advance width="564"/>
  <unicode hex="0498"/>
  <anchor x="333" y="692" name="top"/>
  <outline>
    <contour>
      <point x="189" y="-163" type="line"/>
      <point x="203" y="-163" type="line"/>
      <point x="238" y="5" type="line"/>
      <point x="208" y="4" type="line"/>
    </contour>
    <contour>
      <point x="28" y="43" type="line"/>
      <point x="83" y="11"/>
      <point x="145" y="-6"/>
      <point x="206" y="-6" type="curve" smooth="yes"/>
      <point x="349" y="-6"/>
      <point x="457" y="89"/>
      <point x="457" y="223" type="curve" smooth="yes"/>
      <point x="457" y="308"/>
      <point x="414" y="361"/>
      <point x="310" y="369" type="curve"/>
      <point x="311" y="367" type="line"/>
      <point x="422" y="374"/>
      <point x="491" y="453"/>
      <point x="491" y="560" type="curve" smooth="yes"/>
      <point x="491" y="662"/>
      <point x="428" y="698"/>
      <point x="334" y="698" type="curve" smooth="yes"/>
      <point x="278" y="698"/>
      <point x="212" y="685"/>
      <point x="142" y="661" type="curve"/>
      <point x="127" y="524" type="line"/>
      <point x="142" y="524" type="line"/>
      <point x="174" y="659" type="line"/>
      <point x="167" y="651" type="line"/>
      <point x="225" y="668"/>
      <point x="280" y="678"/>
      <point x="330" y="678" type="curve" smooth="yes"/>
      <point x="417" y="678"/>
      <point x="470" y="647"/>
      <point x="470" y="557" type="curve" smooth="yes"/>
      <point x="470" y="451"/>
      <point x="397" y="378"/>
      <point x="268" y="378" type="curve" smooth="yes"/>
      <point x="193" y="378" type="line"/>
      <point x="189" y="358" type="line"/>
      <point x="261" y="358" type="line" smooth="yes"/>
      <point x="392" y="358"/>
      <point x="437" y="300"/>
      <point x="437" y="220" type="curve" smooth="yes"/>
      <point x="437" y="104"/>
      <point x="343" y="14"/>
      <point x="211" y="14" type="curve" smooth="yes"/>
      <point x="154" y="14"/>
      <point x="93" y="31"/>
      <point x="39" y="62" type="curve"/>
    </contour>
  </outline>
</glyph>
<glyph name="zedescender-cy" format="2">
  <advance width="485"/>
  <unicode hex="0499"/>
  <anchor x="270" y="522" name="top"/>
  <outline>
    <contour>
      <point x="199" y="9" type="line"/>
      <point x="168" y="9" type="line"/>
      <point x="151" y="-145" type="line"/>
      <point x="167" y="-145" type="line"/>
    </contour>
    <contour>
      <point x="18" y="40" type="line"/>
      <point x="64" y="9"/>
      <point x="120" y="-6"/>
      <point x="176" y="-6" type="curve" smooth="yes"/>
      <point x="298" y="-6"/>
      <point x="391" y="65"/>
      <point x="391" y="164" type="curve" smooth="yes"/>
      <point x="391" y="235"/>
      <point x="344" y="274"/>
      <point x="247" y="280" type="curve"/>
      <point x="255" y="272" type="line"/>
      <point x="344" y="282"/>
      <point x="418" y="330"/>
      <point x="418" y="416" type="curve" smooth="yes"/>
      <point x="418" y="497"/>
      <point x="359" y="528"/>
      <point x="275" y="528" type="curve" smooth="yes"/>
      <point x="224" y="528"/>
      <point x="164" y="517"/>
      <point x="103" y="499" type="curve"/>
      <point x="90" y="395" type="line"/>
      <point x="108" y="395" type="line"/>
      <point x="136" y="501" type="line"/>
      <point x="124" y="488" type="line"/>
      <point x="173" y="501"/>
      <point x="224" y="509"/>
      <point x="268" y="509" type="curve" smooth="yes"/>
      <point x="343" y="509"/>
      <point x="399" y="488"/>
      <point x="399" y="417" type="curve" smooth="yes"/>
      <point x="399" y="335"/>
      <point x="321" y="285"/>
      <point x="213" y="285" type="curve" smooth="yes"/>
      <point x="147" y="285" type="line"/>
      <point x="144" y="266" type="line"/>
      <point x="206" y="266" type="line" smooth="yes"/>
      <point x="257" y="266"/>
      <point x="371" y="266"/>
      <point x="371" y="162" type="curve" smooth="yes"/>
      <point x="371" y="68"/>
      <point x="276" y="13"/>
      <point x="177" y="13" type="curve" smooth="yes"/>
      <point x="125" y="13"/>
      <point x="72" y="28"/>
      <point x="29" y="58" type="curve"/>
    </contour>
  </outline>
</glyph>
<glyph name="Kastroke-cy" format="2">
  <advance width="690"/>
  <unicode hex="049E"/>
  <guideline x="-20" y="400" angle="90"/>
  <guideline x="193" y="400" angle="81"/>
  <guideline x="-28" y="400" angle="90"/>
  <guideline x="87" y="400" angle="81"/>
  <outline>
    <contour>
      <point x="39" y="0" type="line"/>
      <point x="251" y="0" type="line"/>
      <point x="253" y="15" type="line"/>
      <point x="153" y="29" type="line"/>
      <point x="158" y="21" type="line"/>
      <point x="211" y="355" type="line"/>
      <point x="203" y="345" type="line"/>
      <point x="353" y="345" type="line"/>
      <point x="342" y="350" type="line"/>
      <point x="530" y="0" type="line"/>
      <point x="625" y="0" type="line"/>
      <point x="627" y="15" type="line"/>
      <point x="531" y="29" type="line"/>
      <point x="540" y="23" type="line"/>
      <point x="356" y="364" type="line"/>
      <point x="356" y="353" type="line"/>
      <point x="609" y="670" type="line"/>
      <point x="597" y="663" type="line"/>
      <point x="698" y="677" type="line"/>
      <point x="700" y="692" type="line"/>
      <point x="492" y="687" type="line"/>
      <point x="490" y="672" type="line"/>
      <point x="591" y="664" type="line"/>
      <point x="587" y="670" type="line"/>
      <point x="338" y="358" type="line"/>
      <point x="351" y="364" type="line"/>
      <point x="206" y="364" type="line"/>
      <point x="211" y="356" type="line"/>
      <point x="261" y="672" type="line"/>
      <point x="253" y="663" type="line"/>
      <point x="358" y="677" type="line"/>
      <point x="360" y="692" type="line"/>
      <point x="147" y="687" type="line"/>
      <point x="145" y="672" type="line"/>
      <point x="247" y="663" type="line"/>
      <point x="241" y="672" type="line"/>
      <point x="138" y="21" type="line"/>
      <point x="147" y="29" type="line"/>
      <point x="41" y="15" type="line"/>
    </contour>
    <contour>
      <point x="111" y="549" type="line"/>
      <point x="365" y="549" type="line"/>
      <point x="368" y="568" type="line"/>
      <point x="114" y="568" type="line"/>
    </contour>
  </outline>
</glyph>
<glyph name="Enghe-cy" format="2">
  <advance width="949"/>
  <unicode hex="04A4"/>
  <outline>
    <contour>
      <point x="22" y="0" type="line"/>
      <point x="234" y="0" type="line"/>
      <point x="236" y="15" type="line"/>
      <point x="136" y="29" type="line"/>
      <point x="141" y="21" type="line"/>
      <point x="193" y="349" type="line"/>
      <point x="185" y="342" type="line"/>
      <point x="615" y="342" type="line"/>
      <point x="609" y="349" type="line"/>
      <point x="557" y="21" type="line"/>
      <point x="565" y="29" type="line"/>
      <point x="460" y="15" type="line"/>
      <point x="458" y="0" type="line"/>
      <point x="680" y="0" type="line"/>
      <point x="682" y="15" type="line"/>
      <point x="571" y="29" type="line"/>
      <point x="577" y="21" type="line"/>
      <point x="681" y="677" type="line"/>
      <point x="673" y="673" type="line"/>
      <point x="955" y="673" type="line"/>
      <point x="949" y="680" type="line"/>
      <point x="942" y="547" type="line"/>
      <point x="957" y="547" type="line"/>
      <point x="980" y="692" type="line"/>
      <point x="684" y="692" type="line"/>
      <point x="566" y="687" type="line"/>
      <point x="564" y="672" type="line"/>
      <point x="665" y="663" type="line"/>
      <point x="660" y="671" type="line"/>
      <point x="610" y="354" type="line"/>
      <point x="618" y="361" type="line"/>
      <point x="188" y="361" type="line"/>
      <point x="193" y="352" type="line"/>
      <point x="244" y="671" type="line"/>
      <point x="236" y="663" type="line"/>
      <point x="341" y="677" type="line"/>
      <point x="343" y="692" type="line"/>
      <point x="130" y="687" type="line"/>
      <point x="128" y="672" type="line"/>
      <point x="230" y="663" type="line"/>
      <point x="224" y="671" type="line"/>
      <point x="121" y="21" type="line"/>
      <point x="130" y="29" type="line"/>
      <point x="24" y="15" type="line"/>
    </contour>
  </outline>
</glyph>
<glyph name="Haabkhasian-cy" format="2">
  <advance width="808"/>
  <unicode hex="04A8"/>
  <outline>
    <contour>
      <point x="348" y="-6" type="curve" smooth="yes"/>
      <point x="559" y="-6"/>
      <point x="725" y="182"/>
      <point x="725" y="395" type="curve" smooth="yes"/>
      <point x="725" y="511"/>
      <point x="676" y="589"/>
      <point x="568" y="589" type="curve" smooth="yes"/>
      <point x="414" y="589"/>
      <point x="319" y="429"/>
      <point x="319" y="272" type="curve" smooth="yes"/>
      <point x="319" y="110"/>
      <point x="421" y="-7"/>
      <point x="544" y="-7" type="curve" smooth="yes"/>
      <point x="595" y="-7"/>
      <point x="649" y="13"/>
      <point x="701" y="58" type="curve"/>
      <point x="690" y="73" type="line"/>
      <point x="644" y="32"/>
      <point x="595" y="13"/>
      <point x="548" y="13" type="curve" smooth="yes"/>
      <point x="436" y="13"/>
      <point x="340" y="122"/>
      <point x="340" y="275" type="curve" smooth="yes"/>
      <point x="340" y="418"/>
      <point x="423" y="569"/>
      <point x="564" y="569" type="curve" smooth="yes"/>
      <point x="660" y="569"/>
      <point x="704" y="499"/>
      <point x="704" y="393" type="curve" smooth="yes"/>
      <point x="704" y="194"/>
      <point x="551" y="14"/>
      <point x="353" y="14" type="curve" smooth="yes"/>
      <point x="226" y="14"/>
      <point x="114" y="88"/>
      <point x="114" y="273" type="curve" smooth="yes"/>
      <point x="114" y="474"/>
      <point x="245" y="678"/>
      <point x="444" y="678" type="curve"/>
      <point x="447" y="698" type="line"/>
      <point x="234" y="698"/>
      <point x="92" y="483"/>
      <point x="92" y="270" type="curve" smooth="yes"/>
      <point x="92" y="75"/>
      <point x="211" y="-6"/>
    </contour>
  </outline>
</glyph>
<glyph name="haabkhasian-cy" format="2">
  <advance width="665"/>
  <unicode hex="04A9"/>
  <guideline x="583" y="575" angle="90"/>
  <outline>
    <contour>
      <point x="280" y="-6" type="curve" smooth="yes"/>
      <point x="458" y="-6"/>
      <point x="593" y="133"/>
      <point x="593" y="292" type="curve" smooth="yes"/>
      <point x="593" y="394"/>
      <point x="537" y="453"/>
      <point x="446" y="453" type="curve" smooth="yes"/>
      <point x="319" y="453"/>
      <point x="243" y="337"/>
      <point x="243" y="214" type="curve" smooth="yes"/>
      <point x="243" y="80"/>
      <point x="333" y="-6"/>
      <point x="441" y="-6" type="curve" smooth="yes"/>
      <point x="484" y="-6"/>
      <point x="529" y="8"/>
      <point x="573" y="39" type="curve"/>
      <point x="562" y="53" type="line"/>
      <point x="524" y="25"/>
      <point x="482" y="13"/>
      <point x="443" y="13" type="curve" smooth="yes"/>
      <point x="344" y="13"/>
      <point x="264" y="90"/>
      <point x="264" y="214" type="curve" smooth="yes"/>
      <point x="264" y="329"/>
      <point x="333" y="434"/>
      <point x="446" y="434" type="curve" smooth="yes"/>
      <point x="526" y="434"/>
      <point x="573" y="381"/>
      <point x="573" y="289" type="curve" smooth="yes"/>
      <point x="573" y="137"/>
      <point x="443" y="13"/>
      <point x="282" y="13" type="curve" smooth="yes"/>
      <point x="142" y="13"/>
      <point x="79" y="108"/>
      <point x="79" y="215" type="curve" smooth="yes"/>
      <point x="79" y="353"/>
      <point x="183" y="510"/>
      <point x="359" y="510" type="curve"/>
      <point x="359" y="528" type="line"/>
      <point x="168" y="528"/>
      <point x="58" y="362"/>
      <point x="58" y="215" type="curve" smooth="yes"/>
      <point x="58" y="99"/>
      <point x="126" y="-6"/>
    </contour>
  </outline>
</glyph>
<glyph name="Esdescender-cy" format="2">
  <advance width="644"/>
  <unicode hex="04AA"/>
  <anchor x="461" y="692" name="top"/>
  <outline>
    <contour>
      <point x="274" y="-163" type="line"/>
      <point x="288" y="-163" type="line"/>
      <point x="322" y="5" type="line"/>
      <point x="292" y="4" type="line"/>
    </contour>
    <contour>
      <point x="95" y="260" type="curve" smooth="yes"/>
      <point x="95" y="80"/>
      <point x="184" y="-6"/>
      <point x="306" y="-6" type="curve" smooth="yes"/>
      <point x="380" y="-6"/>
      <point x="465" y="26"/>
      <point x="550" y="93" type="curve"/>
      <point x="539" y="109" type="line"/>
      <point x="459" y="45"/>
      <point x="378" y="14"/>
      <point x="310" y="14" type="curve" smooth="yes"/>
      <point x="198" y="14"/>
      <point x="116" y="96"/>
      <point x="116" y="262" type="curve" smooth="yes"/>
      <point x="116" y="467"/>
      <point x="240" y="678"/>
      <point x="432" y="678" type="curve" smooth="yes"/>
      <point x="484" y="678"/>
      <point x="551" y="662"/>
      <point x="605" y="638" type="curve"/>
      <point x="599" y="646" type="line"/>
      <point x="588" y="516" type="line"/>
      <point x="603" y="516" type="line"/>
      <point x="628" y="650" type="line"/>
      <point x="562" y="683"/>
      <point x="492" y="698"/>
      <point x="438" y="698" type="curve" smooth="yes"/>
      <point x="231" y="698"/>
      <point x="95" y="484"/>
    </contour>
  </outline>
</glyph>
<glyph name="ustrait-cy" format="2">
  <advance width="491"/>
  <unicode hex="04AF"/>
  <outline>
    <contour>
      <point x="209" y="-2" type="line"/>
      <point x="467" y="504" type="line"/>
      <point x="457" y="497" type="line"/>
      <point x="538" y="510" type="line"/>
      <point x="541" y="525" type="line"/>
      <point x="353" y="520" type="line"/>
      <point x="350" y="505" type="line"/>
      <point x="452" y="498" type="line"/>
      <point x="447" y="504" type="line"/>
      <point x="201" y="19" type="line"/>
      <point x="207" y="19" type="line"/>
      <point x="118" y="522" type="line"/>
      <point x="35" y="520" type="line"/>
      <point x="33" y="505" type="line"/>
      <point x="110" y="497" type="line"/>
      <point x="102" y="504" type="line"/>
      <point x="192" y="-2" type="line"/>
      <point x="192" y="4" type="line"/>
      <point x="159" y="-209" type="line"/>
      <point x="167" y="-201" type="line"/>
      <point x="71" y="-215" type="line"/>
      <point x="69" y="-230" type="line"/>
      <point x="261" y="-230" type="line"/>
      <point x="263" y="-215" type="line"/>
      <point x="172" y="-201" type="line"/>
      <point x="178" y="-209" type="line"/>
      <point x="211" y="4" type="line"/>
    </contour>
  </outline>
</glyph>
<glyph name="ustraitstroke-cy" format="2">
  <advance width="496"/>
  <unicode hex="04B1"/>
  <outline>
    <contour>
      <point x="74" y="0" type="line"/>
      <point x="334" y="0" type="line"/>
      <point x="337" y="19" type="line"/>
      <point x="77" y="19" type="line"/>
    </contour>
    <contour>
      <point x="212" y="-2" type="line"/>
      <point x="470" y="504" type="line"/>
      <point x="460" y="497" type="line"/>
      <point x="541" y="510" type="line"/>
      <point x="544" y="525" type="line"/>
      <point x="356" y="520" type="line"/>
      <point x="353" y="505" type="line"/>
      <point x="455" y="498" type="line"/>
      <point x="450" y="504" type="line"/>
      <point x="204" y="19" type="line"/>
      <point x="210" y="19" type="line"/>
      <point x="121" y="522" type="line"/>
      <point x="38" y="520" type="line"/>
      <point x="36" y="505" type="line"/>
      <point x="113" y="497" type="line"/>
      <point x="105" y="504" type="line"/>
      <point x="195" y="-2" type="line"/>
      <point x="195" y="4" type="line"/>
      <point x="162" y="-209" type="line"/>
      <point x="170" y="-201" type="line"/>
      <point x="74" y="-215" type="line"/>
      <point x="72" y="-230" type="line"/>
      <point x="264" y="-230" type="line"/>
      <point x="266" y="-215" type="line"/>
      <point x="175" y="-201" type="line"/>
      <point x="181" y="-209" type="line"/>
      <point x="214" y="4" type="line"/>
    </contour>
  </outline>
</glyph>
<glyph name="tetse-cy" format="2">
  <advance width="677"/>
  <unicode hex="04B5"/>
  <guideline x="254" y="398" angle="0"/>
  <outline>
    <contour>
      <point x="581" y="-145" type="line"/>
      <point x="596" y="-145" type="line"/>
      <point x="622" y="17" type="line"/>
      <point x="499" y="30" type="line"/>
      <point x="516" y="19" type="line"/>
      <point x="596" y="522" type="line"/>
      <point x="576" y="522" type="line"/>
      <point x="546" y="335" type="line" smooth="yes"/>
      <point x="510" y="112"/>
      <point x="379" y="13"/>
      <point x="288" y="13" type="curve" smooth="yes"/>
      <point x="228" y="13"/>
      <point x="181" y="55"/>
      <point x="198" y="161" type="curve" smooth="yes"/>
      <point x="256" y="521" type="line"/>
      <point x="233" y="509" type="line"/>
      <point x="178" y="162" type="line" smooth="yes"/>
      <point x="159" y="44"/>
      <point x="214" y="-8"/>
      <point x="289" y="-6" type="curve" smooth="yes"/>
      <point x="368" y="-4"/>
      <point x="473" y="56"/>
      <point x="534" y="221" type="curve"/>
      <point x="528" y="220" type="line"/>
      <point x="493" y="-2" type="line"/>
      <point x="593" y="0" type="line"/>
      <point x="590" y="3" type="line"/>
    </contour>
    <contour>
      <point x="41" y="398" type="line"/>
      <point x="56" y="398" type="line"/>
      <point x="86" y="510" type="line"/>
      <point x="77" y="503" type="line"/>
      <point x="406" y="503" type="line"/>
      <point x="400" y="510" type="line"/>
      <point x="397" y="398" type="line"/>
      <point x="411" y="398" type="line"/>
      <point x="430" y="522" type="line"/>
      <point x="60" y="522" type="line"/>
    </contour>
  </outline>
</glyph>
<glyph name="Cheverticalstroke-cy" format="2">
  <advance width="669"/>
  <unicode hex="04B8"/>
  <outline>
    <contour>
      <point x="281" y="122" type="line"/>
      <point x="300" y="122" type="line"/>
      <point x="355" y="468" type="line"/>
      <point x="336" y="468" type="line"/>
    </contour>
    <contour>
      <point x="507" y="334" type="curve"/>
      <point x="500" y="332" type="line"/>
      <point x="450" y="17" type="line"/>
      <point x="459" y="29" type="line"/>
      <point x="326" y="15" type="line"/>
      <point x="324" y="0" type="line"/>
      <point x="569" y="0" type="line"/>
      <point x="571" y="15" type="line"/>
      <point x="465" y="29" type="line"/>
      <point x="471" y="21" type="line"/>
      <point x="572" y="668" type="line"/>
      <point x="565" y="663" type="line"/>
      <point x="674" y="677" type="line"/>
      <point x="677" y="692" type="line"/>
      <point x="456" y="687" type="line"/>
      <point x="454" y="672" type="line"/>
      <point x="559" y="664" type="line"/>
      <point x="553" y="668" type="line"/>
      <point x="500" y="333" type="line"/>
      <point x="509" y="353" type="line"/>
      <point x="435" y="321"/>
      <point x="365" y="304"/>
      <point x="306" y="304" type="curve" smooth="yes"/>
      <point x="200" y="304"/>
      <point x="159" y="368"/>
      <point x="176" y="474" type="curve" smooth="yes"/>
      <point x="206" y="666" type="line"/>
      <point x="199" y="663" type="line"/>
      <point x="308" y="677" type="line"/>
      <point x="311" y="692" type="line"/>
      <point x="90" y="687" type="line"/>
      <point x="88" y="672" type="line"/>
      <point x="193" y="662" type="line"/>
      <point x="186" y="664" type="line"/>
      <point x="157" y="475" type="line" smooth="yes"/>
      <point x="140" y="362"/>
      <point x="181" y="284"/>
      <point x="304" y="284" type="curve" smooth="yes"/>
      <point x="361" y="284"/>
      <point x="433" y="301"/>
    </contour>
  </outline>
</glyph>
<glyph name="Shha-cy" format="2">
  <advance width="660"/>
  <unicode hex="04BA"/>
  <guideline x="495" y="458" angle="0"/>
  <anchor x="593" y="0" name="bottomright"/>
  <outline>
    <contour>
      <point x="193" y="388" type="curve"/>
      <point x="199" y="384" type="line"/>
      <point x="244" y="671" type="line"/>
      <point x="236" y="663" type="line"/>
      <point x="365" y="677" type="line"/>
      <point x="367" y="692" type="line"/>
      <point x="131" y="687" type="line"/>
      <point x="129" y="672" type="line"/>
      <point x="230" y="663" type="line"/>
      <point x="225" y="671" type="line"/>
      <point x="122" y="21" type="line"/>
      <point x="130" y="29" type="line"/>
      <point x="25" y="15" type="line"/>
      <point x="23" y="0" type="line"/>
      <point x="234" y="0" type="line"/>
      <point x="236" y="15" type="line"/>
      <point x="136" y="28" type="line"/>
      <point x="141" y="21" type="line"/>
      <point x="198" y="379" type="line"/>
      <point x="191" y="369" type="line"/>
      <point x="266" y="400"/>
      <point x="334" y="418"/>
      <point x="389" y="418" type="curve" smooth="yes"/>
      <point x="481" y="418"/>
      <point x="532" y="368"/>
      <point x="514" y="247" type="curve" smooth="yes"/>
      <point x="480" y="21" type="line"/>
      <point x="489" y="29" type="line"/>
      <point x="384" y="15" type="line"/>
      <point x="382" y="0" type="line"/>
      <point x="593" y="0" type="line"/>
      <point x="595" y="15" type="line"/>
      <point x="495" y="29" type="line"/>
      <point x="499" y="21" type="line"/>
      <point x="533" y="246" type="line" smooth="yes"/>
      <point x="553" y="380"/>
      <point x="496" y="438"/>
      <point x="395" y="438" type="curve" smooth="yes"/>
      <point x="338" y="438"/>
      <point x="269" y="420"/>
    </contour>
  </outline>
</glyph>
<glyph name="Cheabkhasian-cy" format="2">
  <advance width="780"/>
  <unicode hex="04BC"/>
  <outline>
    <contour>
      <point x="643" y="101" type="curve"/>
      <point x="632" y="116" type="line"/>
      <point x="569" y="55"/>
      <point x="473" y="14"/>
      <point x="395" y="14" type="curve" smooth="yes"/>
      <point x="284" y="14"/>
      <point x="188" y="93"/>
      <point x="188" y="265" type="curve" smooth="yes"/>
      <point x="188" y="465"/>
      <point x="317" y="678"/>
      <point x="503" y="678" type="curve" smooth="yes"/>
      <point x="633" y="678"/>
      <point x="703" y="572"/>
      <point x="703" y="426" type="curve" smooth="yes"/>
      <point x="703" y="401"/>
      <point x="701" y="374"/>
      <point x="696" y="345" type="curve"/>
      <point x="706" y="352" type="line"/>
      <point x="160" y="352" type="line" smooth="yes"/>
      <point x="117" y="352"/>
      <point x="84" y="364"/>
      <point x="84" y="400" type="curve" smooth="yes"/>
      <point x="84" y="421"/>
      <point x="96" y="451"/>
      <point x="123" y="490" type="curve"/>
      <point x="105" y="498" type="line"/>
      <point x="74" y="454"/>
      <point x="61" y="422"/>
      <point x="61" y="396" type="curve" smooth="yes"/>
      <point x="61" y="351"/>
      <point x="103" y="333"/>
      <point x="155" y="333" type="curve" smooth="yes"/>
      <point x="715" y="333" type="line"/>
      <point x="723" y="381"/>
      <point x="726" y="399"/>
      <point x="726" y="431" type="curve" smooth="yes"/>
      <point x="726" y="613"/>
      <point x="620" y="698"/>
      <point x="501" y="698" type="curve" smooth="yes"/>
      <point x="304" y="698"/>
      <point x="167" y="473"/>
      <point x="167" y="260" type="curve" smooth="yes"/>
      <point x="167" y="78"/>
      <point x="268" y="-6"/>
      <point x="391" y="-6" type="curve" smooth="yes"/>
      <point x="472" y="-6"/>
      <point x="575" y="32"/>
    </contour>
  </outline>
</glyph>
<glyph name="Enhook-cy" format="2">
  <advance width="765"/>
  <unicode hex="04C7"/>
  <outline>
    <contour>
      <point x="419" y="-236" type="curve" smooth="yes"/>
      <point x="536" y="-236"/>
      <point x="553" y="-135"/>
      <point x="559" y="-96" type="curve" smooth="yes"/>
      <point x="680" y="671" type="line"/>
      <point x="671" y="663" type="line"/>
      <point x="778" y="677" type="line"/>
      <point x="780" y="692" type="line"/>
      <point x="566" y="687" type="line"/>
      <point x="564" y="672" type="line"/>
      <point x="665" y="663" type="line"/>
      <point x="660" y="671" type="line"/>
      <point x="610" y="354" type="line"/>
      <point x="618" y="361" type="line"/>
      <point x="188" y="361" type="line"/>
      <point x="193" y="353" type="line"/>
      <point x="244" y="671" type="line"/>
      <point x="236" y="663" type="line"/>
      <point x="341" y="677" type="line"/>
      <point x="343" y="692" type="line"/>
      <point x="130" y="687" type="line"/>
      <point x="128" y="672" type="line"/>
      <point x="230" y="663" type="line"/>
      <point x="224" y="671" type="line"/>
      <point x="121" y="21" type="line"/>
      <point x="130" y="29" type="line"/>
      <point x="24" y="15" type="line"/>
      <point x="22" y="0" type="line"/>
      <point x="234" y="0" type="line"/>
      <point x="236" y="15" type="line"/>
      <point x="136" y="29" type="line"/>
      <point x="141" y="21" type="line"/>
      <point x="193" y="349" type="line"/>
      <point x="185" y="342" type="line"/>
      <point x="615" y="342" type="line"/>
      <point x="609" y="349" type="line"/>
      <point x="539" y="-98" type="line" smooth="yes"/>
      <point x="533" y="-138"/>
      <point x="517" y="-217"/>
      <point x="417" y="-217" type="curve" smooth="yes"/>
      <point x="406" y="-217"/>
      <point x="395" y="-216"/>
      <point x="383" y="-215" type="curve"/>
      <point x="380" y="-233" type="line"/>
      <point x="394" y="-235"/>
      <point x="407" y="-236"/>
    </contour>
  </outline>
</glyph>
<glyph name="enhook-cy" format="2">
  <advance width="601"/>
  <unicode hex="04C8"/>
  <outline>
    <contour>
      <point x="416" y="-77" type="line" smooth="yes"/>
      <point x="400" y="-181"/>
      <point x="368" y="-217"/>
      <point x="285" y="-217" type="curve" smooth="yes"/>
      <point x="277" y="-217"/>
      <point x="267" y="-217"/>
      <point x="257" y="-216" type="curve"/>
      <point x="254" y="-234" type="line"/>
      <point x="266" y="-235"/>
      <point x="276" y="-236"/>
      <point x="289" y="-236" type="curve" smooth="yes"/>
      <point x="380" y="-236"/>
      <point x="418" y="-186"/>
      <point x="436" y="-75" type="curve" smooth="yes"/>
      <point x="531" y="522" type="line"/>
      <point x="511" y="522" type="line"/>
      <point x="472" y="278" type="line"/>
      <point x="482" y="284" type="line"/>
      <point x="139" y="284" type="line"/>
      <point x="146" y="278" type="line"/>
      <point x="185" y="525" type="line"/>
      <point x="78" y="520" type="line"/>
      <point x="76" y="506" type="line"/>
      <point x="166" y="492" type="line"/>
      <point x="161" y="502" type="line"/>
      <point x="82" y="0" type="line"/>
      <point x="101" y="0" type="line"/>
      <point x="145" y="272" type="line"/>
      <point x="136" y="265" type="line"/>
      <point x="479" y="265" type="line"/>
      <point x="471" y="272" type="line"/>
    </contour>
  </outline>
</glyph>
<glyph name="schwa-cy" format="2">
  <advance width="487"/>
  <unicode hex="04D9"/>
  <anchor x="267" y="522" name="top"/>
  <outline>
    <contour>
      <point x="259" y="528" type="curve" smooth="yes"/>
      <point x="208" y="528"/>
      <point x="150" y="510"/>
      <point x="91" y="475" type="curve"/>
      <point x="100" y="459" type="line"/>
      <point x="155" y="492"/>
      <point x="210" y="509"/>
      <point x="257" y="509" type="curve" smooth="yes"/>
      <point x="345" y="509"/>
      <point x="408" y="451"/>
      <point x="408" y="327" type="curve" smooth="yes"/>
      <point x="408" y="172"/>
      <point x="316" y="13"/>
      <point x="165" y="13" type="curve" smooth="yes"/>
      <point x="92" y="13"/>
      <point x="48" y="49"/>
      <point x="48" y="100" type="curve" smooth="yes"/>
      <point x="48" y="201"/>
      <point x="224" y="267"/>
      <point x="361" y="267" type="curve" smooth="yes"/>
      <point x="378" y="267"/>
      <point x="395" y="266"/>
      <point x="410" y="264" type="curve"/>
      <point x="414" y="284" type="line"/>
      <point x="400" y="285"/>
      <point x="387" y="286"/>
      <point x="369" y="286" type="curve" smooth="yes"/>
      <point x="214" y="286"/>
      <point x="27" y="214"/>
      <point x="27" y="99" type="curve" smooth="yes"/>
      <point x="27" y="39"/>
      <point x="77" y="-6"/>
      <point x="162" y="-6" type="curve" smooth="yes"/>
      <point x="325" y="-6"/>
      <point x="429" y="162"/>
      <point x="429" y="326" type="curve" smooth="yes"/>
      <point x="429" y="463"/>
      <point x="357" y="528"/>
    </contour>
  </outline>
</glyph>
<glyph name="Obarred-cy" format="2">
  <advance width="748"/>
  <unicode hex="04E8"/>
  <anchor x="466" y="692" name="top"/>
  <outline>
    <contour>
      <point x="116" y="360" type="line"/>
      <point x="113" y="341" type="line"/>
      <point x="666" y="341" type="line"/>
      <point x="669" y="360" type="line"/>
    </contour>
    <contour>
      <point x="328" y="-6" type="curve" smooth="yes"/>
      <point x="543" y="-6"/>
      <point x="684" y="216"/>
      <point x="684" y="430" type="curve" smooth="yes"/>
      <point x="684" y="616"/>
      <point x="577" y="698"/>
      <point x="447" y="698" type="curve" smooth="yes"/>
      <point x="236" y="698"/>
      <point x="92" y="484"/>
      <point x="92" y="264" type="curve" smooth="yes"/>
      <point x="92" y="73"/>
      <point x="200" y="-6"/>
    </contour>
    <contour>
      <point x="330" y="14" type="curve" smooth="yes"/>
      <point x="209" y="14"/>
      <point x="113" y="93"/>
      <point x="113" y="266" type="curve" smooth="yes"/>
      <point x="113" y="470"/>
      <point x="247" y="678"/>
      <point x="444" y="678" type="curve" smooth="yes"/>
      <point x="565" y="678"/>
      <point x="663" y="599"/>
      <point x="663" y="426" type="curve" smooth="yes"/>
      <point x="663" y="222"/>
      <point x="527" y="14"/>
    </contour>
  </outline>
</glyph>
<glyph name="gedescender-cy" format="2">
  <advance width="458"/>
  <unicode hex="04F7"/>
  <outline>
    <contour>
      <point x="225" y="9" type="line"/>
      <point x="193" y="9" type="line"/>
      <point x="174" y="-145" type="line"/>
      <point x="190" y="-145" type="line"/>
    </contour>
    <contour>
      <point x="204" y="-6" type="curve" smooth="yes"/>
      <point x="270" y="-6"/>
      <point x="341" y="19"/>
      <point x="389" y="66" type="curve"/>
      <point x="383" y="51" type="line"/>
      <point x="361" y="81" type="line"/>
      <point x="377" y="82" type="line"/>
      <point x="333" y="37"/>
      <point x="263" y="13"/>
      <point x="201" y="13" type="curve" smooth="yes"/>
      <point x="128" y="13"/>
      <point x="65" y="47"/>
      <point x="65" y="120" type="curve" smooth="yes"/>
      <point x="65" y="293"/>
      <point x="422" y="240"/>
      <point x="422" y="421" type="curve" smooth="yes"/>
      <point x="422" y="498"/>
      <point x="357" y="528"/>
      <point x="272" y="528" type="curve" smooth="yes"/>
      <point x="227" y="528"/>
      <point x="174" y="518"/>
      <point x="124" y="500" type="curve"/>
      <point x="114" y="411" type="line"/>
      <point x="130" y="411" type="line"/>
      <point x="159" y="500" type="line"/>
      <point x="146" y="489" type="line"/>
      <point x="190" y="502"/>
      <point x="234" y="509"/>
      <point x="271" y="509" type="curve" smooth="yes"/>
      <point x="346" y="509"/>
      <point x="401" y="485"/>
      <point x="401" y="421" type="curve" smooth="yes"/>
      <point x="401" y="258"/>
      <point x="44" y="307"/>
      <point x="44" y="119" type="curve" smooth="yes"/>
      <point x="44" y="33"/>
      <point x="119" y="-6"/>
    </contour>
  </outline>
</glyph>
<glyph name="Hahook-cy" format="2">
  <advance width="640"/>
  <unicode hex="04FC"/>
  <outline>
    <contour>
      <point x="432" y="-233" type="line"/>
      <point x="507" y="-191"/>
      <point x="539" y="-149"/>
      <point x="539" y="-94" type="curve" smooth="yes"/>
      <point x="539" y="-46"/>
      <point x="515" y="12"/>
      <point x="491" y="64" type="curve" smooth="yes"/>
      <point x="352" y="367" type="line"/>
      <point x="351" y="355" type="line"/>
      <point x="597" y="670" type="line"/>
      <point x="585" y="663" type="line"/>
      <point x="683" y="677" type="line"/>
      <point x="685" y="692" type="line"/>
      <point x="475" y="687" type="line"/>
      <point x="473" y="672" type="line"/>
      <point x="580" y="663" type="line"/>
      <point x="577" y="670" type="line"/>
      <point x="342" y="370" type="line"/>
      <point x="351" y="370" type="line"/>
      <point x="213" y="670" type="line"/>
      <point x="209" y="663" type="line"/>
      <point x="319" y="677" type="line"/>
      <point x="321" y="692" type="line"/>
      <point x="108" y="687" type="line"/>
      <point x="106" y="672" type="line"/>
      <point x="201" y="663" type="line"/>
      <point x="192" y="670" type="line"/>
      <point x="339" y="353" type="line"/>
      <point x="339" y="365" type="line"/>
      <point x="74" y="21" type="line"/>
      <point x="87" y="28" type="line"/>
      <point x="-12" y="15" type="line"/>
      <point x="-15" y="0" type="line"/>
      <point x="202" y="0" type="line"/>
      <point x="205" y="15" type="line"/>
      <point x="93" y="28" type="line"/>
      <point x="95" y="21" type="line"/>
      <point x="348" y="349" type="line"/>
      <point x="340" y="349" type="line"/>
      <point x="470" y="66" type="line" smooth="yes"/>
      <point x="489" y="25"/>
      <point x="519" y="-41"/>
      <point x="519" y="-92" type="curve" smooth="yes"/>
      <point x="519" y="-141"/>
      <point x="493" y="-180"/>
      <point x="424" y="-219" type="curve"/>
    </contour>
  </outline>
</glyph>
<glyph name="llinebelow" format="2">
  <advance width="250"/>
  <unicode hex="1E3B"/>
  <outline>
    <contour>
      <point x="176" y="-107" type="line"/>
      <point x="-30" y="-107" type="line"/>
      <point x="-33" y="-128" type="line"/>
      <point x="173" y="-128" type="line"/>
    </contour>
    <component base="l"/>
  </outline>
</glyph>
<glyph name="rlinebelow" format="2">
  <advance width="376"/>
  <unicode hex="1E5F"/>
  <guideline x="-274" y="89" angle="90"/>
  <guideline x="-91" y="89" angle="90"/>
  <outline>
    <contour>
      <point x="192" y="-107" type="line"/>
      <point x="-25" y="-107" type="line"/>
      <point x="-28" y="-128" type="line"/>
      <point x="189" y="-128" type="line"/>
    </contour>
    <component base="r"/>
  </outline>
</glyph>
<glyph name="tlinebelow" format="2">
  <advance width="320"/>
  <unicode hex="1E6F"/>
  <outline>
    <contour>
      <point x="229" y="-107" type="line"/>
      <point x="30" y="-107" type="line"/>
      <point x="27" y="-128" type="line"/>
      <point x="226" y="-128" type="line"/>
    </contour>
    <component base="t"/>
  </outline>
</glyph>
<glyph name="quoteleft" format="2">
  <advance width="157"/>
  <unicode hex="2018"/>
  <guideline x="20" y="607" angle="0"/>
  <outline>
    <contour>
      <point x="156" y="635" type="curve" smooth="yes"/>
      <point x="156" y="649"/>
      <point x="147" y="655"/>
      <point x="147" y="668" type="curve" smooth="yes"/>
      <point x="147" y="680"/>
      <point x="155" y="709"/>
      <point x="192" y="764" type="curve"/>
      <point x="181" y="774" type="line"/>
      <point x="147" y="728"/>
      <point x="109" y="664"/>
      <point x="109" y="632" type="curve" smooth="yes"/>
      <point x="109" y="615"/>
      <point x="119" y="607"/>
      <point x="130" y="607" type="curve" smooth="yes"/>
      <point x="143" y="607"/>
      <point x="156" y="617"/>
    </contour>
  </outline>
</glyph>
<glyph name="quotesinglbase" format="2">
  <advance width="158"/>
  <unicode hex="201A"/>
  <guideline x="-339" y="46" angle="0"/>
  <guideline x="-432" y="-81" angle="0"/>
  <outline>
    <contour>
      <point x="22" y="18" type="curve" smooth="yes"/>
      <point x="22" y="4"/>
      <point x="31" y="-2"/>
      <point x="31" y="-15" type="curve" smooth="yes"/>
      <point x="31" y="-27"/>
      <point x="23" y="-56"/>
      <point x="-14" y="-111" type="curve"/>
      <point x="-3" y="-121" type="line"/>
      <point x="31" y="-75"/>
      <point x="69" y="-11"/>
      <point x="69" y="21" type="curve" smooth="yes"/>
      <point x="69" y="38"/>
      <point x="59" y="46"/>
      <point x="48" y="46" type="curve" smooth="yes"/>
      <point x="35" y="46"/>
      <point x="22" y="36"/>
    </contour>
  </outline>
</glyph>
<glyph name="quotereversed" format="2">
  <advance width="199"/>
  <unicode hex="201B"/>
  <outline>
    <contour>
      <point x="174" y="744" type="curve" smooth="yes"/>
      <point x="174" y="730"/>
      <point x="165" y="724"/>
      <point x="165" y="711" type="curve" smooth="yes"/>
      <point x="165" y="699"/>
      <point x="173" y="670"/>
      <point x="210" y="615" type="curve"/>
      <point x="199" y="605" type="line"/>
      <point x="165" y="651"/>
      <point x="127" y="715"/>
      <point x="127" y="747" type="curve" smooth="yes"/>
      <point x="127" y="764"/>
      <point x="137" y="772"/>
      <point x="148" y="772" type="curve" smooth="yes"/>
      <point x="161" y="772"/>
      <point x="174" y="762"/>
    </contour>
  </outline>
</glyph>
<glyph name="quotedblleft" format="2">
  <advance width="274"/>
  <unicode hex="201C"/>
  <outline>
    <contour>
      <point x="159" y="652" type="curve" smooth="yes"/>
      <point x="159" y="666"/>
      <point x="150" y="672"/>
      <point x="150" y="685" type="curve" smooth="yes"/>
      <point x="150" y="697"/>
      <point x="158" y="726"/>
      <point x="195" y="781" type="curve"/>
      <point x="184" y="791" type="line"/>
      <point x="150" y="745"/>
      <point x="112" y="681"/>
      <point x="112" y="649" type="curve" smooth="yes"/>
      <point x="112" y="632"/>
      <point x="122" y="624"/>
      <point x="133" y="624" type="curve" smooth="yes"/>
      <point x="146" y="624"/>
      <point x="159" y="634"/>
    </contour>
    <contour>
      <point x="275" y="652" type="curve" smooth="yes"/>
      <point x="275" y="666"/>
      <point x="266" y="672"/>
      <point x="266" y="685" type="curve" smooth="yes"/>
      <point x="266" y="697"/>
      <point x="274" y="726"/>
      <point x="311" y="781" type="curve"/>
      <point x="300" y="791" type="line"/>
      <point x="266" y="745"/>
      <point x="228" y="681"/>
      <point x="228" y="649" type="curve" smooth="yes"/>
      <point x="228" y="632"/>
      <point x="238" y="624"/>
      <point x="249" y="624" type="curve" smooth="yes"/>
      <point x="262" y="624"/>
      <point x="275" y="634"/>
    </contour>
  </outline>
</glyph>
<glyph name="bullet" format="2">
  <advance width="313"/>
  <unicode hex="2022"/>
  <outline>
    <contour>
      <point x="100" y="318" type="curve" smooth="yes"/>
      <point x="100" y="276"/>
      <point x="128" y="249"/>
      <point x="164" y="249" type="curve" smooth="yes"/>
      <point x="201" y="249"/>
      <point x="231" y="277"/>
      <point x="231" y="321" type="curve" smooth="yes"/>
      <point x="231" y="363"/>
      <point x="204" y="391"/>
      <point x="168" y="391" type="curve" smooth="yes"/>
      <point x="131" y="391"/>
      <point x="100" y="363"/>
    </contour>
  </outline>
</glyph>
<glyph name="minute" format="2">
  <advance width="249"/>
  <unicode hex="2032"/>
  <outline>
    <contour>
      <point x="46" y="539" type="line"/>
      <point x="60" y="539" type="line"/>
      <point x="170" y="762" type="line"/>
      <point x="141" y="762" type="line"/>
    </contour>
  </outline>
</glyph>
<glyph name="guilsinglleft" format="2">
  <advance width="279"/>
  <unicode hex="2039"/>
  <guideline x="-241" y="81" angle="0"/>
  <guideline x="36" y="460" angle="0"/>
  <outline>
    <contour>
      <point x="168" y="81" type="line"/>
      <point x="182" y="91" type="line"/>
      <point x="77" y="278" type="line"/>
      <point x="75" y="264" type="line"/>
      <point x="238" y="449" type="line"/>
      <point x="227" y="460" type="line"/>
      <point x="63" y="281" type="line"/>
      <point x="60" y="260" type="line"/>
    </contour>
  </outline>
</glyph>
<glyph name="guilsinglright" format="2">
  <advance width="279"/>
  <unicode hex="203A"/>
  <guideline x="-249" y="81" angle="0"/>
  <guideline x="28" y="460" angle="0"/>
  <outline>
    <contour>
      <point x="114" y="460" type="line"/>
      <point x="100" y="450" type="line"/>
      <point x="205" y="263" type="line"/>
      <point x="207" y="277" type="line"/>
      <point x="44" y="92" type="line"/>
      <point x="55" y="81" type="line"/>
      <point x="219" y="260" type="line"/>
      <point x="222" y="281" type="line"/>
    </contour>
  </outline>
</glyph>
<glyph name="overline" format="2">
  <advance width="332"/>
  <unicode hex="203E"/>
  <outline>
    <contour>
      <point x="347" y="652" type="line"/>
      <point x="21" y="652" type="line"/>
      <point x="18" y="637" type="line"/>
      <point x="345" y="637" type="line"/>
    </contour>
  </outline>
</glyph>
<glyph name="nmod" format="2">
  <advance width="444"/>
  <unicode hex="207F"/>
  <guideline x="-40" y="321" angle="0"/>
  <guideline x="100" y="472" angle="261"/>
  <guideline x="119" y="472" angle="261"/>
  <guideline x="356" y="472" angle="261"/>
  <guideline x="375" y="472" angle="261"/>
  <outline>
    <contour>
      <point x="332" y="319" type="line"/>
      <point x="416" y="322" type="line"/>
      <point x="418" y="337" type="line"/>
      <point x="348" y="346" type="line"/>
      <point x="353" y="333" type="line"/>
      <point x="392" y="578" type="line" smooth="yes"/>
      <point x="405" y="661"/>
      <point x="367" y="698"/>
      <point x="311" y="698" type="curve" smooth="yes"/>
      <point x="251" y="698"/>
      <point x="168" y="655"/>
      <point x="120" y="534" type="curve"/>
      <point x="127" y="535" type="line"/>
      <point x="155" y="696" type="line"/>
      <point x="74" y="692" type="line"/>
      <point x="71" y="677" type="line"/>
      <point x="141" y="667" type="line"/>
      <point x="133" y="679" type="line"/>
      <point x="76" y="321" type="line"/>
      <point x="95" y="321" type="line"/>
      <point x="116" y="454" type="line" smooth="yes"/>
      <point x="141" y="611"/>
      <point x="241" y="679"/>
      <point x="311" y="679" type="curve" smooth="yes"/>
      <point x="357" y="679"/>
      <point x="384" y="650"/>
      <point x="373" y="579" type="curve" smooth="yes"/>
    </contour>
  </outline>
</glyph>
<glyph name="colonsign" format="2">
  <advance width="692"/>
  <unicode hex="20A1"/>
  <guideline x="635" y="824" angle="0"/>
  <guideline x="-56" y="-144" angle="0"/>
  <outline>
    <contour>
      <point x="176" y="-144" type="line"/>
      <point x="195" y="-144" type="line"/>
      <point x="256" y="37" type="line"/>
      <point x="173" y="68"/>
      <point x="116" y="156"/>
      <point x="116" y="283" type="curve" smooth="yes"/>
      <point x="116" y="468"/>
      <point x="239" y="662"/>
      <point x="436" y="667" type="curve"/>
      <point x="488" y="824" type="line"/>
      <point x="470" y="824" type="line"/>
      <point x="420" y="677" type="line"/>
      <point x="429" y="687" type="line"/>
      <point x="226" y="676"/>
      <point x="96" y="474"/>
      <point x="96" y="279" type="curve" smooth="yes"/>
      <point x="96" y="147"/>
      <point x="154" y="60"/>
      <point x="239" y="23" type="curve"/>
      <point x="236" y="31" type="line"/>
    </contour>
    <contour>
      <point x="263" y="-144" type="line"/>
      <point x="281" y="-144" type="line"/>
      <point x="335" y="13" type="line"/>
      <point x="327" y="4" type="line"/>
      <point x="402" y="5"/>
      <point x="491" y="37"/>
      <point x="580" y="103" type="curve"/>
      <point x="569" y="119" type="line"/>
      <point x="485" y="55"/>
      <point x="404" y="25"/>
      <point x="333" y="25" type="curve" smooth="yes"/>
      <point x="328" y="25"/>
      <point x="324" y="25"/>
      <point x="320" y="25" type="curve"/>
    </contour>
    <contour>
      <point x="615" y="506" type="line"/>
      <point x="630" y="506" type="line"/>
      <point x="655" y="640" type="line"/>
      <point x="609" y="662"/>
      <point x="564" y="676"/>
      <point x="521" y="682" type="curve"/>
      <point x="523" y="673" type="line"/>
      <point x="575" y="824" type="line"/>
      <point x="556" y="824" type="line"/>
      <point x="502" y="665" type="line"/>
      <point x="548" y="658"/>
      <point x="589" y="647"/>
      <point x="633" y="627" type="curve"/>
      <point x="627" y="638" type="line"/>
    </contour>
  </outline>
</glyph>
<glyph name="franc" format="2">
  <advance width="642"/>
  <unicode hex="20A3"/>
  <guideline x="266" y="472" angle="261"/>
  <guideline x="246" y="472" angle="261"/>
  <outline>
    <contour>
      <point x="75" y="0" type="line"/>
      <point x="310" y="0" type="line"/>
      <point x="312" y="15" type="line"/>
      <point x="189" y="29" type="line"/>
      <point x="195" y="24" type="line"/>
      <point x="223" y="200" type="line"/>
      <point x="215" y="193" type="line"/>
      <point x="355" y="193" type="line"/>
      <point x="359" y="212" type="line"/>
      <point x="219" y="212" type="line"/>
      <point x="224" y="207" type="line"/>
      <point x="250" y="370" type="line"/>
      <point x="241" y="361" type="line"/>
      <point x="510" y="361" type="line"/>
      <point x="513" y="380" type="line"/>
      <point x="244" y="380" type="line"/>
      <point x="250" y="370" type="line"/>
      <point x="299" y="680" type="line"/>
      <point x="290" y="673" type="line"/>
      <point x="607" y="673" type="line"/>
      <point x="600" y="682" type="line"/>
      <point x="595" y="556" type="line"/>
      <point x="610" y="556" type="line"/>
      <point x="631" y="692" type="line"/>
      <point x="301" y="692" type="line"/>
      <point x="184" y="687" type="line"/>
      <point x="182" y="672" type="line"/>
      <point x="283" y="663" type="line"/>
      <point x="277" y="670" type="line"/>
      <point x="204" y="207" type="line"/>
      <point x="210" y="212" type="line"/>
      <point x="105" y="212" type="line"/>
      <point x="102" y="193" type="line"/>
      <point x="206" y="193" type="line"/>
      <point x="203" y="199" type="line"/>
      <point x="175" y="24" type="line"/>
      <point x="183" y="29" type="line"/>
      <point x="78" y="15" type="line"/>
    </contour>
  </outline>
</glyph>
<glyph name="won" format="2">
  <advance width="1131"/>
  <unicode hex="20A9"/>
  <outline>
    <contour>
      <point x="302" y="-2" type="line"/>
      <point x="324" y="-2" type="line"/>
      <point x="474" y="320" type="line"/>
      <point x="455" y="320" type="line"/>
      <point x="316" y="22" type="line"/>
      <point x="319" y="21" type="line"/>
      <point x="290" y="318" type="line"/>
      <point x="271" y="318" type="line"/>
    </contour>
    <contour>
      <point x="261" y="418" type="line"/>
      <point x="281" y="416" type="line"/>
      <point x="256" y="671" type="line"/>
      <point x="250" y="663" type="line"/>
      <point x="372" y="677" type="line"/>
      <point x="374" y="692" type="line"/>
      <point x="147" y="687" type="line"/>
      <point x="144" y="672" type="line"/>
      <point x="244" y="663" type="line"/>
      <point x="236" y="671" type="line"/>
    </contour>
    <contour>
      <point x="128" y="310" type="line"/>
      <point x="1015" y="310" type="line"/>
      <point x="1018" y="329" type="line"/>
      <point x="131" y="329" type="line"/>
    </contour>
    <contour>
      <point x="921" y="419" type="line"/>
      <point x="1029" y="670" type="line"/>
      <point x="1018" y="663" type="line"/>
      <point x="1119" y="677" type="line"/>
      <point x="1122" y="692" type="line"/>
      <point x="899" y="687" type="line"/>
      <point x="897" y="672" type="line"/>
      <point x="1013" y="664" type="line"/>
      <point x="1009" y="670" type="line"/>
      <point x="901" y="419" type="line"/>
    </contour>
    <contour>
      <point x="144" y="410" type="line"/>
      <point x="1030" y="410" type="line"/>
      <point x="1033" y="429" type="line"/>
      <point x="147" y="429" type="line"/>
    </contour>
    <contour>
      <point x="682" y="419" type="line"/>
      <point x="644" y="692" type="line"/>
      <point x="626" y="689" type="line"/>
      <point x="501" y="421" type="line"/>
      <point x="520" y="420" type="line"/>
      <point x="633" y="662" type="line"/>
      <point x="629" y="662" type="line"/>
      <point x="662" y="419" type="line"/>
    </contour>
    <contour>
      <point x="719" y="-2" type="line"/>
      <point x="740" y="-2" type="line"/>
      <point x="878" y="320" type="line"/>
      <point x="859" y="320" type="line"/>
      <point x="732" y="24" type="line"/>
      <point x="736" y="24" type="line"/>
      <point x="695" y="320" type="line"/>
      <point x="675" y="320" type="line"/>
    </contour>
  </outline>
</glyph>
<glyph name="euro" format="2">
  <advance width="738"/>
  <unicode hex="20AC"/>
  <outline>
    <contour>
      <point x="172" y="400" type="curve"/>
      <point x="194" y="400" type="line"/>
      <point x="235" y="552"/>
      <point x="343" y="678"/>
      <point x="491" y="678" type="curve" smooth="yes"/>
      <point x="543" y="678"/>
      <point x="610" y="662"/>
      <point x="664" y="638" type="curve"/>
      <point x="658" y="646" type="line"/>
      <point x="647" y="516" type="line"/>
      <point x="662" y="516" type="line"/>
      <point x="687" y="650" type="line"/>
      <point x="621" y="683"/>
      <point x="551" y="698"/>
      <point x="497" y="698" type="curve" smooth="yes"/>
      <point x="334" y="698"/>
      <point x="215" y="566"/>
    </contour>
    <contour>
      <point x="365" y="-6" type="curve" smooth="yes"/>
      <point x="439" y="-6"/>
      <point x="524" y="26"/>
      <point x="609" y="93" type="curve"/>
      <point x="598" y="109" type="line"/>
      <point x="518" y="45"/>
      <point x="437" y="14"/>
      <point x="369" y="14" type="curve" smooth="yes"/>
      <point x="257" y="14"/>
      <point x="175" y="96"/>
      <point x="175" y="262" type="curve" smooth="yes"/>
      <point x="175" y="274"/>
      <point x="175" y="286"/>
      <point x="176" y="298" type="curve"/>
      <point x="155" y="298" type="line"/>
      <point x="154" y="286"/>
      <point x="154" y="273"/>
      <point x="154" y="260" type="curve" smooth="yes"/>
      <point x="154" y="80"/>
      <point x="243" y="-6"/>
    </contour>
    <contour>
      <point x="88" y="291" type="line"/>
      <point x="492" y="291" type="line"/>
      <point x="495" y="310" type="line"/>
      <point x="91" y="310" type="line"/>
    </contour>
    <contour>
      <point x="104" y="391" type="line"/>
      <point x="508" y="391" type="line"/>
      <point x="511" y="410" type="line"/>
      <point x="107" y="410" type="line"/>
    </contour>
  </outline>
</glyph>
<glyph name="cedi" format="2">
  <advance width="689"/>
  <unicode hex="20B5"/>
  <guideline x="406" y="472" angle="261"/>
  <guideline x="425" y="472" angle="261"/>
  <outline>
    <contour>
      <point x="580" y="103" type="curve"/>
      <point x="569" y="119" type="line"/>
      <point x="485" y="55"/>
      <point x="404" y="25"/>
      <point x="332" y="25" type="curve" smooth="yes"/>
      <point x="185" y="25"/>
      <point x="116" y="146"/>
      <point x="116" y="283" type="curve" smooth="yes"/>
      <point x="116" y="462"/>
      <point x="233" y="668"/>
      <point x="453" y="668" type="curve" smooth="yes"/>
      <point x="510" y="668"/>
      <point x="571" y="655"/>
      <point x="633" y="627" type="curve"/>
      <point x="627" y="638" type="line"/>
      <point x="615" y="506" type="line"/>
      <point x="630" y="506" type="line"/>
      <point x="655" y="640" type="line"/>
      <point x="587" y="673"/>
      <point x="522" y="687"/>
      <point x="450" y="687" type="curve"/>
      <point x="458" y="679" type="line"/>
      <point x="480" y="824" type="line"/>
      <point x="462" y="824" type="line"/>
      <point x="439" y="678" type="line"/>
      <point x="446" y="687" type="line"/>
      <point x="225" y="687"/>
      <point x="96" y="469"/>
      <point x="96" y="279" type="curve" smooth="yes"/>
      <point x="96" y="133"/>
      <point x="172" y="4"/>
      <point x="341" y="4" type="curve"/>
      <point x="333" y="13" type="line"/>
      <point x="309" y="-144" type="line"/>
      <point x="327" y="-144" type="line"/>
      <point x="352" y="14" type="line"/>
      <point x="346" y="5" type="line"/>
      <point x="417" y="10"/>
      <point x="498" y="43"/>
    </contour>
  </outline>
</glyph>
<glyph name="tenge" format="2">
  <advance width="541"/>
  <unicode hex="20B8"/>
  <guideline x="301" y="394" angle="260.9759"/>
  <guideline x="55" y="394" angle="260.9759"/>
  <guideline x="528" y="394" angle="260.9759"/>
  <guideline x="281" y="394" angle="260.9759"/>
  <outline>
    <contour>
      <point x="109" y="0" type="line"/>
      <point x="349" y="0" type="line"/>
      <point x="351" y="15" type="line"/>
      <point x="237" y="29" type="line"/>
      <point x="242" y="21" type="line"/>
      <point x="330" y="578" type="line"/>
      <point x="322" y="573" type="line"/>
      <point x="535" y="573" type="line"/>
      <point x="528" y="580" type="line"/>
      <point x="522" y="447" type="line"/>
      <point x="536" y="447" type="line"/>
      <point x="559" y="592" type="line"/>
      <point x="87" y="592" type="line"/>
      <point x="64" y="447" type="line"/>
      <point x="78" y="447" type="line"/>
      <point x="113" y="580" type="line"/>
      <point x="104" y="573" type="line"/>
      <point x="317" y="573" type="line"/>
      <point x="310" y="578" type="line"/>
      <point x="222" y="21" type="line"/>
      <point x="231" y="29" type="line"/>
      <point x="111" y="15" type="line"/>
    </contour>
    <contour>
      <point x="99" y="673" type="line"/>
      <point x="572" y="673" type="line"/>
      <point x="575" y="692" type="line"/>
      <point x="102" y="692" type="line"/>
    </contour>
  </outline>
</glyph>
<glyph name="literSign" format="2">
  <advance width="459"/>
  <unicode hex="2113"/>
  <guideline x="190" y="472" angle="261"/>
  <guideline x="210" y="472" angle="261"/>
  <outline>
    <contour>
      <point x="135" y="128"/>
      <point x="121" y="-6"/>
      <point x="246" y="-6" type="curve" smooth="yes"/>
      <point x="267" y="-6"/>
      <point x="291" y="-2"/>
      <point x="320" y="6" type="curve"/>
      <point x="316" y="24" type="line"/>
      <point x="290" y="17"/>
      <point x="267" y="13"/>
      <point x="248" y="13" type="curve" smooth="yes"/>
      <point x="141" y="13"/>
      <point x="157" y="139"/>
      <point x="169" y="213" type="curve" smooth="yes"/>
      <point x="184" y="309" type="line"/>
      <point x="175" y="299" type="line"/>
      <point x="349" y="432"/>
      <point x="431" y="562"/>
      <point x="431" y="668" type="curve" smooth="yes"/>
      <point x="431" y="731"/>
      <point x="402" y="768"/>
      <point x="348" y="768" type="curve" smooth="yes"/>
      <point x="269" y="768"/>
      <point x="224" y="691"/>
      <point x="205" y="568" type="curve" smooth="yes"/>
      <point x="164" y="307" type="line"/>
      <point x="169" y="317" type="line"/>
      <point x="142" y="297"/>
      <point x="114" y="275"/>
      <point x="83" y="255" type="curve"/>
      <point x="92" y="240" type="line"/>
      <point x="118" y="257"/>
      <point x="142" y="274"/>
      <point x="165" y="292" type="curve"/>
      <point x="162" y="295" type="line"/>
      <point x="149" y="213" type="line" smooth="yes"/>
    </contour>
    <contour>
      <point x="187" y="326" type="line"/>
      <point x="225" y="568" type="line" smooth="yes"/>
      <point x="243" y="683"/>
      <point x="285" y="749"/>
      <point x="346" y="749" type="curve" smooth="yes"/>
      <point x="389" y="749"/>
      <point x="411" y="717"/>
      <point x="411" y="665" type="curve" smooth="yes"/>
      <point x="411" y="546"/>
      <point x="296" y="418"/>
      <point x="179" y="325" type="curve"/>
    </contour>
  </outline>
</glyph>
<glyph name="Ohm" format="2">
  <advance width="792"/>
  <unicode hex="2126"/>
  <guideline x="-34" y="58" angle="90"/>
  <guideline x="52" y="58" angle="90"/>
  <guideline x="-234" y="58" angle="90"/>
  <outline>
    <contour>
      <point x="41" y="0" type="line"/>
      <point x="276" y="0" type="line"/>
      <point x="279" y="18" type="line"/>
      <point x="159" y="63"/>
      <point x="108" y="169"/>
      <point x="108" y="284" type="curve" smooth="yes"/>
      <point x="108" y="470"/>
      <point x="243" y="678"/>
      <point x="441" y="678" type="curve" smooth="yes"/>
      <point x="591" y="678"/>
      <point x="661" y="563"/>
      <point x="661" y="427" type="curve" smooth="yes"/>
      <point x="661" y="266"/>
      <point x="562" y="77"/>
      <point x="385" y="18" type="curve"/>
      <point x="383" y="0" type="line"/>
      <point x="618" y="0" type="line"/>
      <point x="621" y="19" type="line"/>
      <point x="413" y="19" type="line"/>
      <point x="412" y="13" type="line"/>
      <point x="587" y="78"/>
      <point x="682" y="264"/>
      <point x="682" y="426" type="curve" smooth="yes"/>
      <point x="682" y="572"/>
      <point x="604" y="698"/>
      <point x="442" y="698" type="curve" smooth="yes"/>
      <point x="231" y="698"/>
      <point x="87" y="476"/>
      <point x="87" y="280" type="curve" smooth="yes"/>
      <point x="87" y="167"/>
      <point x="135" y="63"/>
      <point x="245" y="14" type="curve"/>
      <point x="246" y="19" type="line"/>
      <point x="44" y="19" type="line"/>
    </contour>
  </outline>
</glyph>
<glyph name="leftArrow" format="2">
  <advance width="745"/>
  <unicode hex="2190"/>
  <outline>
    <contour>
      <point x="98" y="336" type="line"/>
      <point x="744" y="336" type="line"/>
      <point x="747" y="356" type="line"/>
      <point x="102" y="356" type="line"/>
      <point x="100" y="344" type="line"/>
      <point x="409" y="635" type="line"/>
      <point x="397" y="649" type="line"/>
      <point x="82" y="354" type="line"/>
      <point x="80" y="340" type="line"/>
      <point x="302" y="45" type="line"/>
      <point x="317" y="57" type="line"/>
      <point x="100" y="348" type="line"/>
    </contour>
  </outline>
</glyph>
<glyph name="upArrow" format="2">
  <advance width="663"/>
  <unicode hex="2191"/>
  <outline>
    <contour>
      <point x="387" y="672" type="line"/>
      <point x="281" y="0" type="line"/>
      <point x="300" y="0" type="line"/>
      <point x="406" y="672" type="line"/>
      <point x="395" y="672" type="line"/>
      <point x="631" y="398" type="line"/>
      <point x="644" y="412" type="line"/>
      <point x="405" y="692" type="line"/>
      <point x="392" y="692" type="line"/>
      <point x="65" y="412" type="line"/>
      <point x="76" y="398" type="line"/>
      <point x="399" y="672" type="line"/>
    </contour>
  </outline>
</glyph>
<glyph name="leftRightArrow" format="2">
  <advance width="1022"/>
  <unicode hex="2194"/>
  <outline>
    <contour>
      <point x="287" y="45" type="line"/>
      <point x="302" y="57" type="line"/>
      <point x="85" y="348" type="line"/>
      <point x="83" y="336" type="line"/>
      <point x="962" y="336" type="line"/>
      <point x="963" y="348" type="line"/>
      <point x="655" y="57" type="line"/>
      <point x="666" y="43" type="line"/>
      <point x="982" y="338" type="line"/>
      <point x="983" y="352" type="line"/>
      <point x="761" y="647" type="line"/>
      <point x="746" y="635" type="line"/>
      <point x="963" y="344" type="line"/>
      <point x="965" y="356" type="line"/>
      <point x="87" y="356" type="line"/>
      <point x="85" y="344" type="line"/>
      <point x="394" y="635" type="line"/>
      <point x="382" y="649" type="line"/>
      <point x="67" y="354" type="line"/>
      <point x="65" y="340" type="line"/>
    </contour>
  </outline>
</glyph>
<glyph name="partialdiff" format="2">
  <advance width="585"/>
  <unicode hex="2202"/>
  <guideline x="199" y="407" angle="0" identifier="4WPyAkCCWJ"/>
  <outline>
    <contour>
      <point x="227" y="-6" type="curve" smooth="yes"/>
      <point x="405" y="-6"/>
      <point x="494" y="193"/>
      <point x="494" y="380" type="curve" smooth="yes"/>
      <point x="494" y="553"/>
      <point x="418" y="681"/>
      <point x="271" y="747" type="curve"/>
      <point x="261" y="729" type="line"/>
      <point x="402" y="666"/>
      <point x="474" y="545"/>
      <point x="474" y="381" type="curve" smooth="yes"/>
      <point x="474" y="365"/>
      <point x="473" y="349"/>
      <point x="472" y="333" type="curve"/>
      <point x="477" y="333" type="line"/>
      <point x="446" y="389"/>
      <point x="382" y="425"/>
      <point x="307" y="425" type="curve" smooth="yes"/>
      <point x="165" y="425"/>
      <point x="66" y="295"/>
      <point x="66" y="165" type="curve" smooth="yes"/>
      <point x="66" y="72"/>
      <point x="117" y="-6"/>
    </contour>
    <contour>
      <point x="228" y="13" type="curve" smooth="yes"/>
      <point x="140" y="13"/>
      <point x="86" y="72"/>
      <point x="86" y="166" type="curve" smooth="yes"/>
      <point x="86" y="286"/>
      <point x="176" y="406"/>
      <point x="305" y="406" type="curve" smooth="yes"/>
      <point x="382" y="406"/>
      <point x="446" y="364"/>
      <point x="471" y="308" type="curve"/>
      <point x="471" y="321" type="line"/>
      <point x="451" y="132"/>
      <point x="353" y="13"/>
    </contour>
  </outline>
</glyph>
<glyph name="emptyset" format="2">
  <advance width="907"/>
  <unicode hex="2205"/>
  <guideline x="596" y="727" angle="0"/>
  <guideline x="308" y="362" angle="90"/>
  <guideline x="239" y="362" angle="0"/>
  <outline>
    <contour>
      <point x="411" y="-6" type="curve" smooth="yes"/>
      <point x="629" y="-6"/>
      <point x="830" y="201"/>
      <point x="830" y="420" type="curve" smooth="yes"/>
      <point x="830" y="597"/>
      <point x="700" y="733"/>
      <point x="526" y="733" type="curve" smooth="yes"/>
      <point x="310" y="733"/>
      <point x="109" y="525"/>
      <point x="109" y="304" type="curve" smooth="yes"/>
      <point x="109" y="129"/>
      <point x="236" y="-6"/>
    </contour>
    <contour>
      <point x="412" y="14" type="curve" smooth="yes"/>
      <point x="247" y="14"/>
      <point x="131" y="143"/>
      <point x="131" y="306" type="curve" smooth="yes"/>
      <point x="131" y="515"/>
      <point x="320" y="713"/>
      <point x="524" y="713" type="curve" smooth="yes"/>
      <point x="689" y="713"/>
      <point x="808" y="582"/>
      <point x="808" y="417" type="curve" smooth="yes"/>
      <point x="808" y="209"/>
      <point x="617" y="14"/>
    </contour>
    <contour>
      <point x="143" y="0" type="line"/>
      <point x="168" y="0" type="line"/>
      <point x="796" y="727" type="line"/>
      <point x="771" y="727" type="line"/>
    </contour>
  </outline>
</glyph>
<glyph name="product" format="2">
  <advance width="760"/>
  <unicode hex="220F"/>
  <outline>
    <contour>
      <point x="-32" y="-230" type="line"/>
      <point x="179" y="-230" type="line"/>
      <point x="182" y="-215" type="line"/>
      <point x="82" y="-201" type="line"/>
      <point x="87" y="-209" type="line"/>
      <point x="228" y="681" type="line"/>
      <point x="219" y="672" type="line"/>
      <point x="620" y="673" type="line"/>
      <point x="614" y="681" type="line"/>
      <point x="474" y="-209" type="line"/>
      <point x="482" y="-201" type="line"/>
      <point x="377" y="-215" type="line"/>
      <point x="374" y="-230" type="line"/>
      <point x="586" y="-230" type="line"/>
      <point x="588" y="-215" type="line"/>
      <point x="488" y="-201" type="line"/>
      <point x="493" y="-209" type="line"/>
      <point x="632" y="671" type="line"/>
      <point x="624" y="663" type="line"/>
      <point x="729" y="677" type="line"/>
      <point x="732" y="692" type="line"/>
      <point x="229" y="692" type="line"/>
      <point x="113" y="687" type="line"/>
      <point x="111" y="672" type="line"/>
      <point x="212" y="663" type="line"/>
      <point x="207" y="671" type="line"/>
      <point x="68" y="-209" type="line"/>
      <point x="76" y="-201" type="line"/>
      <point x="-29" y="-215" type="line"/>
    </contour>
  </outline>
</glyph>
<glyph name="radical" format="2">
  <advance width="541"/>
  <unicode hex="221A"/>
  <outline>
    <contour>
      <point x="558" y="833" type="line"/>
      <point x="171" y="17" type="line"/>
      <point x="175" y="17" type="line"/>
      <point x="80" y="525" type="line"/>
      <point x="-5" y="520" type="line"/>
      <point x="-7" y="505" type="line"/>
      <point x="70" y="497" type="line"/>
      <point x="62" y="504" type="line"/>
      <point x="160" y="-2" type="line"/>
      <point x="179" y="-2" type="line"/>
      <point x="571" y="821" type="line"/>
      <point x="560" y="815" type="line"/>
      <point x="744" y="815" type="line"/>
      <point x="747" y="833" type="line"/>
    </contour>
  </outline>
</glyph>
<glyph name="orthogonal" format="2">
  <advance width="704"/>
  <unicode hex="221F"/>
  <outline>
    <contour>
      <point x="626" y="19" type="line"/>
      <point x="135" y="19" type="line"/>
      <point x="143" y="10" type="line"/>
      <point x="224" y="522" type="line"/>
      <point x="205" y="522" type="line"/>
      <point x="122" y="0" type="line"/>
      <point x="623" y="0" type="line"/>
    </contour>
  </outline>
</glyph>
<glyph name="lessequal" format="2">
  <advance width="606"/>
  <unicode hex="2264"/>
  <outline>
    <contour>
      <point x="475" y="180" type="line"/>
      <point x="483" y="197" type="line"/>
      <point x="116" y="364" type="line"/>
      <point x="118" y="356" type="line"/>
      <point x="536" y="535" type="line"/>
      <point x="530" y="553" type="line"/>
      <point x="106" y="371" type="line"/>
      <point x="103" y="350" type="line"/>
    </contour>
    <contour>
      <point x="475" y="67" type="line"/>
      <point x="58" y="67" type="line"/>
      <point x="55" y="48" type="line"/>
      <point x="472" y="48" type="line"/>
    </contour>
  </outline>
</glyph>
<glyph name="integralbt" format="2">
  <advance width="326"/>
  <unicode hex="2321"/>
  <guideline x="443" y="818" angle="0"/>
  <outline>
    <contour>
      <point x="-141" y="-222" type="line"/>
      <point x="-112" y="-231"/>
      <point x="-84" y="-237"/>
      <point x="-58" y="-237" type="curve" smooth="yes"/>
      <point x="12" y="-237"/>
      <point x="65" y="-197"/>
      <point x="82" y="-87" type="curve" smooth="yes"/>
      <point x="225" y="818" type="line"/>
      <point x="206" y="818" type="line"/>
      <point x="63" y="-85" type="line" smooth="yes"/>
      <point x="48" y="-183"/>
      <point x="4" y="-218"/>
      <point x="-56" y="-218" type="curve" smooth="yes"/>
      <point x="-79" y="-218"/>
      <point x="-105" y="-212"/>
      <point x="-135" y="-203" type="curve"/>
    </contour>
  </outline>
</glyph>
<glyph name="blackSquare" format="2">
  <advance width="730"/>
  <unicode hex="25A0"/>
  <outline>
    <contour>
      <point x="205" y="522" type="line"/>
      <point x="137" y="100" type="line"/>
      <point x="543" y="101" type="line"/>
      <point x="609" y="523" type="line"/>
    </contour>
  </outline>
</glyph>
<glyph name="whiteSquare" format="2">
  <advance width="730"/>
  <unicode hex="25A1"/>
  <outline>
    <contour>
      <point x="205" y="522" type="line"/>
      <point x="137" y="100" type="line"/>
      <point x="543" y="101" type="line"/>
      <point x="609" y="523" type="line"/>
    </contour>
    <contour>
      <point x="211" y="502" type="line"/>
      <point x="597" y="504" type="line"/>
      <point x="589" y="513" type="line"/>
      <point x="526" y="111" type="line"/>
      <point x="536" y="120" type="line"/>
      <point x="151" y="120" type="line"/>
      <point x="158" y="111" type="line"/>
      <point x="221" y="511" type="line"/>
    </contour>
  </outline>
</glyph>
<glyph name="upWhiteTriangle" format="2">
  <advance width="637"/>
  <unicode hex="25B3"/>
  <outline>
    <contour>
      <point x="358" y="540" type="line"/>
      <point x="78" y="149" type="line"/>
      <point x="513" y="148" type="line"/>
    </contour>
    <contour>
      <point x="350" y="508" type="line"/>
      <point x="489" y="160" type="line"/>
      <point x="492" y="166" type="line"/>
      <point x="106" y="166" type="line"/>
      <point x="108" y="160" type="line"/>
      <point x="357" y="508" type="line"/>
    </contour>
  </outline>
</glyph>
<glyph name="rightBlackTriangle" format="2">
  <advance width="683"/>
  <unicode hex="25B6"/>
  <outline>
    <contour>
      <point x="596" y="307" type="line"/>
      <point x="241" y="525" type="line"/>
      <point x="171" y="90" type="line"/>
    </contour>
  </outline>
</glyph>
<glyph name="downBlackTriangle" format="2">
  <advance width="636"/>
  <unicode hex="25BC"/>
  <outline>
    <contour>
      <point x="295" y="85" type="line"/>
      <point x="575" y="476" type="line"/>
      <point x="140" y="477" type="line"/>
    </contour>
  </outline>
</glyph>
<glyph name="downWhiteTriangle" format="2">
  <advance width="637"/>
  <unicode hex="25BD"/>
  <outline>
    <contour>
      <point x="296" y="88" type="line"/>
      <point x="576" y="479" type="line"/>
      <point x="141" y="480" type="line"/>
    </contour>
    <contour>
      <point x="304" y="120" type="line"/>
      <point x="165" y="468" type="line"/>
      <point x="162" y="462" type="line"/>
      <point x="548" y="462" type="line"/>
      <point x="546" y="468" type="line"/>
      <point x="297" y="120" type="line"/>
    </contour>
  </outline>
</glyph>
<glyph name="leftBlackTriangle" format="2">
  <advance width="683"/>
  <unicode hex="25C0"/>
  <outline>
    <contour>
      <point x="103" y="307" type="line"/>
      <point x="458" y="90" type="line"/>
      <point x="528" y="525" type="line"/>
    </contour>
  </outline>
</glyph>
<glyph name="leftWhiteTriangle" format="2">
  <advance width="683"/>
  <unicode hex="25C1"/>
  <outline>
    <contour>
      <point x="527" y="527" type="line"/>
      <point x="102" y="309" type="line"/>
      <point x="457" y="92" type="line"/>
    </contour>
    <contour>
      <point x="503" y="494" type="line"/>
      <point x="443" y="123" type="line"/>
      <point x="140" y="308" type="line"/>
    </contour>
  </outline>
</glyph>
<glyph name="blackDiamond" format="2">
  <advance width="667"/>
  <unicode hex="25C6"/>
  <outline>
    <contour>
      <point x="57" y="316" type="line"/>
      <point x="295" y="17" type="line"/>
      <point x="628" y="316" type="line"/>
      <point x="389" y="614" type="line"/>
    </contour>
  </outline>
</glyph>
<glyph name="whiteDiamond" format="2">
  <advance width="667"/>
  <unicode hex="25C7"/>
  <outline>
    <contour>
      <point x="57" y="316" type="line"/>
      <point x="295" y="17" type="line"/>
      <point x="628" y="316" type="line"/>
      <point x="389" y="614" type="line"/>
    </contour>
    <contour>
      <point x="76" y="309" type="line"/>
      <point x="392" y="593" type="line"/>
      <point x="381" y="593" type="line"/>
      <point x="607" y="310" type="line"/>
      <point x="609" y="322" type="line"/>
      <point x="292" y="39" type="line"/>
      <point x="304" y="39" type="line"/>
      <point x="78" y="321" type="line"/>
    </contour>
  </outline>
</glyph>
<glyph name="fi" format="2">
  <advance width="529"/>
  <unicode hex="FB01"/>
  <outline>
    <contour>
      <point x="-58" y="-236" type="curve" smooth="yes"/>
      <point x="65" y="-236"/>
      <point x="80" y="-133"/>
      <point x="89" y="-76" type="curve" smooth="yes"/>
      <point x="181" y="504" type="line"/>
      <point x="173" y="499" type="line"/>
      <point x="438" y="501" type="line"/>
      <point x="427" y="508" type="line"/>
      <point x="346" y="-2" type="line"/>
      <point x="453" y="2" type="line"/>
      <point x="455" y="17" type="line"/>
      <point x="362" y="29" type="line"/>
      <point x="369" y="19" type="line"/>
      <point x="450" y="525" type="line"/>
      <point x="176" y="518" type="line"/>
      <point x="182" y="510" type="line"/>
      <point x="198" y="612" type="line" smooth="yes"/>
      <point x="213" y="707"/>
      <point x="268" y="749"/>
      <point x="340" y="749" type="curve" smooth="yes"/>
      <point x="363" y="749"/>
      <point x="378" y="746"/>
      <point x="393" y="743" type="curve"/>
      <point x="400" y="762" type="line"/>
      <point x="388" y="765"/>
      <point x="368" y="768"/>
      <point x="344" y="768" type="curve" smooth="yes"/>
      <point x="263" y="768"/>
      <point x="195" y="723"/>
      <point x="178" y="613" type="curve" smooth="yes"/>
      <point x="162" y="511" type="line"/>
      <point x="170" y="518" type="line"/>
      <point x="76" y="513" type="line"/>
      <point x="74" y="499" type="line"/>
      <point x="167" y="499" type="line"/>
      <point x="161" y="505" type="line"/>
      <point x="69" y="-77" type="line" smooth="yes"/>
      <point x="59" y="-140"/>
      <point x="46" y="-217"/>
      <point x="-64" y="-217" type="curve" smooth="yes"/>
      <point x="-77" y="-217"/>
      <point x="-87" y="-216"/>
      <point x="-90" y="-216" type="curve"/>
      <point x="-93" y="-234" type="line"/>
      <point x="-81" y="-235"/>
      <point x="-70" y="-236"/>
    </contour>
    <contour>
      <point x="453" y="663" type="curve" smooth="yes"/>
      <point x="469" y="663"/>
      <point x="483" y="675"/>
      <point x="483" y="697" type="curve" smooth="yes"/>
      <point x="483" y="713"/>
      <point x="475" y="722"/>
      <point x="461" y="722" type="curve" smooth="yes"/>
      <point x="445" y="722"/>
      <point x="431" y="708"/>
      <point x="431" y="687" type="curve" smooth="yes"/>
      <point x="431" y="670"/>
      <point x="441" y="663"/>
    </contour>
  </outline>
</glyph>
<glyph name="fl" format="2">
  <advance width="529"/>
  <unicode hex="FB02"/>
  <outline>
    <contour>
      <point x="-61" y="-237" type="curve" smooth="yes"/>
      <point x="38" y="-237"/>
      <point x="71" y="-181"/>
      <point x="88" y="-75" type="curve" smooth="yes"/>
      <point x="180" y="506" type="line"/>
      <point x="172" y="498" type="line"/>
      <point x="310" y="498" type="line"/>
      <point x="312" y="517" type="line"/>
      <point x="175" y="517" type="line"/>
      <point x="181" y="509" type="line"/>
      <point x="197" y="614" type="line" smooth="yes"/>
      <point x="203" y="656"/>
      <point x="221" y="750"/>
      <point x="356" y="750" type="curve" smooth="yes"/>
      <point x="390" y="750"/>
      <point x="428" y="744"/>
      <point x="470" y="736" type="curve"/>
      <point x="465" y="744" type="line"/>
      <point x="346" y="-2" type="line"/>
      <point x="453" y="2" type="line"/>
      <point x="455" y="17" type="line"/>
      <point x="365" y="29" type="line"/>
      <point x="370" y="22" type="line"/>
      <point x="487" y="756" type="line"/>
      <point x="458" y="752" type="line"/>
      <point x="482" y="752" type="line"/>
      <point x="435" y="762"/>
      <point x="393" y="768"/>
      <point x="357" y="768" type="curve" smooth="yes"/>
      <point x="204" y="768"/>
      <point x="185" y="661"/>
      <point x="177" y="613" type="curve" smooth="yes"/>
      <point x="160" y="509" type="line"/>
      <point x="169" y="517" type="line"/>
      <point x="75" y="513" type="line"/>
      <point x="73" y="498" type="line"/>
      <point x="166" y="498" type="line"/>
      <point x="160" y="506" type="line"/>
      <point x="68" y="-77" type="line" smooth="yes"/>
      <point x="52" y="-173"/>
      <point x="27" y="-218"/>
      <point x="-64" y="-218" type="curve" smooth="yes"/>
      <point x="-73" y="-218"/>
      <point x="-81" y="-218"/>
      <point x="-91" y="-217" type="curve"/>
      <point x="-94" y="-235" type="line"/>
      <point x="-82" y="-236"/>
      <point x="-71" y="-237"/>
    </contour>
  </outline>
</glyph>
<glyph name="acutedotaccentcomb.case" format="2">
  <advance width="387"/>
  <guideline x="158" y="731" angle="0"/>
  <guideline x="240" y="847" angle="0"/>
  <guideline x="222" y="834" angle="0"/>
  <guideline x="179" y="775" angle="0"/>
  <guideline x="281" y="820" angle="261"/>
  <guideline x="381" y="820" angle="261"/>
  <guideline x="181" y="820" angle="261"/>
  <anchor x="261" y="692" name="_top"/>
  <outline>
    <contour>
      <point x="183" y="731" type="line"/>
      <point x="374" y="811" type="line"/>
      <point x="363" y="840" type="line"/>
      <point x="176" y="746" type="line"/>
    </contour>
    <contour>
      <point x="289" y="847" type="curve" smooth="yes"/>
      <point x="306" y="847"/>
      <point x="318" y="861"/>
      <point x="318" y="880" type="curve" smooth="yes"/>
      <point x="318" y="896"/>
      <point x="309" y="906"/>
      <point x="295" y="906" type="curve" smooth="yes"/>
      <point x="278" y="906"/>
      <point x="266" y="891"/>
      <point x="266" y="873" type="curve" smooth="yes"/>
      <point x="266" y="857"/>
      <point x="275" y="847"/>
    </contour>
  </outline>
</glyph>
<glyph name="acutedotaccentcomb" format="2">
  <advance width="360"/>
  <guideline x="155" y="739" angle="0"/>
  <guideline x="112" y="665" angle="0"/>
  <guideline x="182" y="762" angle="0"/>
  <guideline x="86" y="630" angle="0"/>
  <guideline x="215" y="806" angle="0"/>
  <guideline x="60" y="594" angle="0"/>
  <guideline x="270" y="820" angle="261"/>
  <guideline x="340" y="820" angle="261"/>
  <guideline x="200" y="820" angle="261"/>
  <anchor x="223" y="522" name="_top"/>
  <outline>
    <contour>
      <point x="256" y="739" type="curve" smooth="yes"/>
      <point x="273" y="739"/>
      <point x="285" y="753"/>
      <point x="285" y="772" type="curve" smooth="yes"/>
      <point x="285" y="788"/>
      <point x="276" y="798"/>
      <point x="262" y="798" type="curve" smooth="yes"/>
      <point x="245" y="798"/>
      <point x="233" y="783"/>
      <point x="233" y="765" type="curve" smooth="yes"/>
      <point x="233" y="749"/>
      <point x="242" y="739"/>
    </contour>
    <contour>
      <point x="190" y="597" type="line"/>
      <point x="353" y="708" type="line"/>
      <point x="335" y="735" type="line"/>
      <point x="179" y="611" type="line"/>
    </contour>
  </outline>
</glyph>
<glyph name="ampersand.sc" format="2">
  <advance width="688"/>
  <outline>
    <contour>
      <point x="291" y="-6" type="curve" smooth="yes"/>
      <point x="408" y="-6"/>
      <point x="505" y="51"/>
      <point x="523" y="172" type="curve" smooth="yes"/>
      <point x="542" y="298" type="line"/>
      <point x="534" y="291" type="line"/>
      <point x="626" y="303" type="line"/>
      <point x="628" y="317" type="line"/>
      <point x="366" y="317" type="line" smooth="yes"/>
      <point x="245" y="317"/>
      <point x="180" y="352"/>
      <point x="180" y="427" type="curve" smooth="yes"/>
      <point x="180" y="519"/>
      <point x="278" y="555"/>
      <point x="390" y="555" type="curve" smooth="yes"/>
      <point x="436" y="555"/>
      <point x="485" y="549"/>
      <point x="531" y="538" type="curve"/>
      <point x="526" y="544" type="line"/>
      <point x="520" y="442" type="line"/>
      <point x="535" y="442" type="line"/>
      <point x="556" y="549" type="line"/>
      <point x="501" y="565"/>
      <point x="443" y="574"/>
      <point x="388" y="574" type="curve" smooth="yes"/>
      <point x="264" y="574"/>
      <point x="159" y="529"/>
      <point x="159" y="425" type="curve" smooth="yes"/>
      <point x="159" y="365"/>
      <point x="196" y="318"/>
      <point x="294" y="307" type="curve"/>
      <point x="294" y="308" type="line"/>
      <point x="184" y="299"/>
      <point x="98" y="233"/>
      <point x="98" y="138" type="curve" smooth="yes"/>
      <point x="98" y="47"/>
      <point x="178" y="-6"/>
    </contour>
    <contour>
      <point x="291" y="13" type="curve" smooth="yes"/>
      <point x="188" y="13"/>
      <point x="119" y="58"/>
      <point x="119" y="139" type="curve" smooth="yes"/>
      <point x="119" y="221"/>
      <point x="192" y="298"/>
      <point x="359" y="298" type="curve" smooth="yes"/>
      <point x="529" y="298" type="line"/>
      <point x="524" y="304" type="line"/>
      <point x="503" y="169" type="line" smooth="yes"/>
      <point x="487" y="66"/>
      <point x="403" y="13"/>
    </contour>
  </outline>
</glyph>
<glyph name="backslash.case" format="2">
  <advance width="271"/>
  <outline>
    <contour>
      <point x="89" y="792" type="line"/>
      <point x="193" y="-79" type="line"/>
      <point x="212" y="-79" type="line"/>
      <point x="108" y="792" type="line"/>
    </contour>
  </outline>
</glyph>
<glyph name="be-cy.loclSRB" format="2">
  <advance width="553"/>
  <guideline x="584" y="692" angle="90"/>
  <outline>
    <contour>
      <point x="227" y="-6" type="curve" smooth="yes"/>
      <point x="385" y="-6"/>
      <point x="494" y="139"/>
      <point x="494" y="291" type="curve" smooth="yes"/>
      <point x="494" y="544"/>
      <point x="191" y="507"/>
      <point x="191" y="644" type="curve" smooth="yes"/>
      <point x="191" y="700"/>
      <point x="241" y="723"/>
      <point x="304" y="723" type="curve" smooth="yes"/>
      <point x="518" y="723" type="line"/>
      <point x="531" y="819" type="line"/>
      <point x="514" y="819" type="line"/>
      <point x="489" y="733" type="line"/>
      <point x="500" y="742" type="line"/>
      <point x="304" y="742" type="line" smooth="yes"/>
      <point x="221" y="742"/>
      <point x="171" y="706"/>
      <point x="171" y="642" type="curve" smooth="yes"/>
      <point x="171" y="549"/>
      <point x="280" y="531"/>
      <point x="373" y="470" type="curve"/>
      <point x="377" y="480" type="line"/>
      <point x="359" y="485"/>
      <point x="339" y="488"/>
      <point x="317" y="488" type="curve" smooth="yes"/>
      <point x="161" y="488"/>
      <point x="54" y="338"/>
      <point x="54" y="182" type="curve" smooth="yes"/>
      <point x="54" y="62"/>
      <point x="119" y="-6"/>
    </contour>
    <contour>
      <point x="230" y="13" type="curve" smooth="yes"/>
      <point x="131" y="13"/>
      <point x="74" y="75"/>
      <point x="74" y="184" type="curve" smooth="yes"/>
      <point x="74" y="325"/>
      <point x="170" y="469"/>
      <point x="315" y="469" type="curve" smooth="yes"/>
      <point x="414" y="469"/>
      <point x="474" y="402"/>
      <point x="474" y="291" type="curve" smooth="yes"/>
      <point x="474" y="149"/>
      <point x="376" y="13"/>
    </contour>
  </outline>
</glyph>
<glyph name="braceleft.case" format="2">
  <advance width="295"/>
  <guideline x="-352" y="-94" angle="0"/>
  <guideline x="300" y="798" angle="0"/>
  <outline>
    <contour>
      <point x="143" y="-94" type="curve" smooth="yes"/>
      <point x="170" y="-94" type="line"/>
      <point x="172" y="-78" type="line"/>
      <point x="78" y="-78"/>
      <point x="64" y="-60"/>
      <point x="78" y="30" type="curve" smooth="yes"/>
      <point x="111" y="240" type="line" smooth="yes"/>
      <point x="127" y="345"/>
      <point x="77" y="358"/>
      <point x="34" y="358" type="curve"/>
      <point x="34" y="350" type="line"/>
      <point x="77" y="350"/>
      <point x="131" y="361"/>
      <point x="147" y="466" type="curve" smooth="yes"/>
      <point x="179" y="672" type="line" smooth="yes"/>
      <point x="193" y="762"/>
      <point x="216" y="782"/>
      <point x="310" y="782" type="curve"/>
      <point x="312" y="798" type="line"/>
      <point x="283" y="798" type="line" smooth="yes"/>
      <point x="206" y="798"/>
      <point x="175" y="769"/>
      <point x="161" y="679" type="curve" smooth="yes"/>
      <point x="128" y="472" type="line" smooth="yes"/>
      <point x="118" y="410"/>
      <point x="91" y="364"/>
      <point x="22" y="364" type="curve"/>
      <point x="20" y="344" type="line"/>
      <point x="89" y="344"/>
      <point x="101" y="300"/>
      <point x="91" y="238" type="curve" smooth="yes"/>
      <point x="58" y="27" type="line" smooth="yes"/>
      <point x="43" y="-70"/>
      <point x="71" y="-94"/>
    </contour>
  </outline>
</glyph>
<glyph name="braceright.case" format="2">
  <advance width="295"/>
  <guideline x="-397" y="-94" angle="0"/>
  <outline>
    <contour>
      <point x="181" y="798" type="curve" smooth="yes"/>
      <point x="154" y="798" type="line"/>
      <point x="152" y="782" type="line"/>
      <point x="246" y="782"/>
      <point x="260" y="764"/>
      <point x="246" y="674" type="curve" smooth="yes"/>
      <point x="213" y="464" type="line" smooth="yes"/>
      <point x="197" y="359"/>
      <point x="247" y="346"/>
      <point x="290" y="346" type="curve"/>
      <point x="290" y="354" type="line"/>
      <point x="247" y="354"/>
      <point x="193" y="343"/>
      <point x="177" y="238" type="curve" smooth="yes"/>
      <point x="145" y="32" type="line" smooth="yes"/>
      <point x="131" y="-58"/>
      <point x="108" y="-78"/>
      <point x="14" y="-78" type="curve"/>
      <point x="12" y="-94" type="line"/>
      <point x="41" y="-94" type="line" smooth="yes"/>
      <point x="118" y="-94"/>
      <point x="149" y="-65"/>
      <point x="163" y="25" type="curve" smooth="yes"/>
      <point x="196" y="232" type="line" smooth="yes"/>
      <point x="206" y="294"/>
      <point x="233" y="340"/>
      <point x="302" y="340" type="curve"/>
      <point x="304" y="360" type="line"/>
      <point x="235" y="360"/>
      <point x="223" y="404"/>
      <point x="233" y="466" type="curve" smooth="yes"/>
      <point x="266" y="677" type="line" smooth="yes"/>
      <point x="281" y="774"/>
      <point x="253" y="798"/>
    </contour>
  </outline>
</glyph>
<glyph name="bracketright.case" format="2">
  <advance width="314"/>
  <guideline x="-350" y="-94" angle="0"/>
  <outline>
    <contour>
      <point x="308" y="798" type="line"/>
      <point x="131" y="793" type="line"/>
      <point x="128" y="777" type="line"/>
      <point x="285" y="775" type="line"/>
      <point x="151" y="-71" type="line"/>
      <point x="-7" y="-73" type="line"/>
      <point x="-9" y="-89" type="line"/>
      <point x="167" y="-94" type="line"/>
    </contour>
  </outline>
</glyph>
<glyph name="brevecomb.case" format="2">
  <guideline x="215" y="756" angle="0"/>
  <guideline x="298" y="868" angle="0"/>
  <guideline x="273" y="850" angle="0"/>
  <guideline x="230" y="775" angle="0"/>
  <guideline x="1625" y="661" angle="261"/>
  <guideline x="161" y="648" angle="261"/>
  <guideline x="376" y="648" angle="261"/>
  <guideline x="268" y="648" angle="261"/>
  <anchor x="275" y="692" name="_top"/>
  <anchor x="298" y="840" name="top"/>
  <outline>
    <contour>
      <point x="288" y="756" type="curve" smooth="yes"/>
      <point x="341" y="756"/>
      <point x="398" y="785"/>
      <point x="408" y="849" type="curve"/>
      <point x="393" y="850" type="line"/>
      <point x="382" y="801"/>
      <point x="334" y="776"/>
      <point x="289" y="776" type="curve" smooth="yes"/>
      <point x="246" y="776"/>
      <point x="205" y="794"/>
      <point x="208" y="849" type="curve"/>
      <point x="193" y="849" type="line"/>
      <point x="185" y="787"/>
      <point x="234" y="756"/>
    </contour>
  </outline>
</glyph>
<glyph name="brevecomb_gravecomb.case" format="2">
  <guideline x="155" y="737" angle="0"/>
  <guideline x="307" y="945" angle="0"/>
  <guideline x="226" y="834" angle="0"/>
  <guideline x="183" y="775" angle="0"/>
  <guideline x="424" y="957" angle="261"/>
  <guideline x="210" y="957" angle="261"/>
  <guideline x="317" y="957" angle="261"/>
  <guideline x="208" y="942" angle="261"/>
  <guideline x="420" y="932" angle="261"/>
  <anchor x="276" y="692" name="_top"/>
  <anchor x="296" y="955" name="top"/>
  <outline>
    <contour>
      <point x="314" y="822" type="line"/>
      <point x="191" y="925" type="line"/>
      <point x="211" y="945" type="line"/>
      <point x="325" y="835" type="line"/>
    </contour>
    <component base="brevecomb.case" xOffset="-5" yOffset="-20"/>
  </outline>
</glyph>
<glyph name="brevecomb_gravecomb" format="2">
  <guideline x="257" y="637" angle="0"/>
  <guideline x="354" y="770" angle="0"/>
  <guideline x="226" y="593" angle="0"/>
  <guideline x="390" y="820" angle="0"/>
  <guideline x="526" y="822" angle="90"/>
  <guideline x="294" y="820" angle="261"/>
  <guideline x="394" y="820" angle="261"/>
  <guideline x="194" y="820" angle="261"/>
  <anchor x="247" y="522" name="_top"/>
  <anchor x="285" y="762" name="top"/>
  <outline>
    <contour>
      <point x="319" y="697" type="line"/>
      <point x="196" y="800" type="line"/>
      <point x="216" y="820" type="line"/>
      <point x="330" y="710" type="line"/>
    </contour>
    <component base="brevecomb.case" xOffset="-26" yOffset="-163"/>
  </outline>
</glyph>
<glyph name="brevecomb_tildecomb.case" format="2">
  <guideline x="199" y="747" angle="0"/>
  <guideline x="288" y="868" angle="0"/>
  <guideline x="263" y="834" angle="0"/>
  <guideline x="220" y="775" angle="0"/>
  <guideline x="243" y="942" angle="261"/>
  <guideline x="455" y="932" angle="261"/>
  <guideline x="350" y="942" angle="261"/>
  <anchor x="310" y="692" name="_top"/>
  <anchor x="347" y="925" name="top"/>
  <outline>
    <contour>
      <point x="231" y="852" type="line"/>
      <point x="252" y="887"/>
      <point x="269" y="898"/>
      <point x="290" y="898" type="curve" smooth="yes"/>
      <point x="330" y="898"/>
      <point x="353" y="856"/>
      <point x="395" y="856" type="curve" smooth="yes"/>
      <point x="420" y="856"/>
      <point x="444" y="870"/>
      <point x="468" y="913" type="curve"/>
      <point x="457" y="922" type="line"/>
      <point x="438" y="892"/>
      <point x="420" y="877"/>
      <point x="399" y="877" type="curve" smooth="yes"/>
      <point x="364" y="877"/>
      <point x="336" y="919"/>
      <point x="293" y="919" type="curve" smooth="yes"/>
      <point x="267" y="919"/>
      <point x="242" y="903"/>
      <point x="219" y="861" type="curve"/>
    </contour>
    <component base="brevecomb.case" xOffset="31" yOffset="-20"/>
  </outline>
</glyph>
<glyph name="brevecomb_tildecomb" format="2">
  <guideline x="381" y="692" angle="0"/>
  <guideline x="438" y="770" angle="0"/>
  <guideline x="472" y="816" angle="0"/>
  <guideline x="310" y="594" angle="0"/>
  <guideline x="328" y="820" angle="261"/>
  <guideline x="428" y="820" angle="261"/>
  <guideline x="228" y="820" angle="261"/>
  <anchor x="281" y="522" name="_top"/>
  <anchor x="324" y="788" name="top"/>
  <outline>
    <contour>
      <point x="199" y="722" type="line"/>
      <point x="220" y="757"/>
      <point x="237" y="768"/>
      <point x="258" y="768" type="curve" smooth="yes"/>
      <point x="298" y="768"/>
      <point x="321" y="726"/>
      <point x="363" y="726" type="curve" smooth="yes"/>
      <point x="388" y="726"/>
      <point x="412" y="740"/>
      <point x="436" y="783" type="curve"/>
      <point x="425" y="792" type="line"/>
      <point x="406" y="762"/>
      <point x="388" y="747"/>
      <point x="367" y="747" type="curve" smooth="yes"/>
      <point x="332" y="747"/>
      <point x="304" y="789"/>
      <point x="261" y="789" type="curve" smooth="yes"/>
      <point x="235" y="789"/>
      <point x="210" y="773"/>
      <point x="187" y="731" type="curve"/>
    </contour>
    <component base="brevecomb.case" xOffset="6" yOffset="-163"/>
  </outline>
</glyph>
<glyph name="c.sc" format="2">
  <advance width="591"/>
  <anchor x="280" y="0" name="bottom"/>
  <anchor x="387" y="568" name="top"/>
  <outline>
    <contour>
      <point x="275" y="-6" type="curve" smooth="yes"/>
      <point x="346" y="-6"/>
      <point x="425" y="21"/>
      <point x="504" y="77" type="curve"/>
      <point x="494" y="92" type="line"/>
      <point x="420" y="39"/>
      <point x="346" y="13"/>
      <point x="280" y="13" type="curve" smooth="yes"/>
      <point x="169" y="13"/>
      <point x="87" y="86"/>
      <point x="87" y="230" type="curve" smooth="yes"/>
      <point x="87" y="400"/>
      <point x="202" y="555"/>
      <point x="386" y="555" type="curve" smooth="yes"/>
      <point x="437" y="555"/>
      <point x="490" y="543"/>
      <point x="543" y="521" type="curve"/>
      <point x="538" y="528" type="line"/>
      <point x="530" y="418" type="line"/>
      <point x="545" y="418" type="line"/>
      <point x="566" y="533" type="line"/>
      <point x="507" y="560"/>
      <point x="448" y="574"/>
      <point x="390" y="574" type="curve" smooth="yes"/>
      <point x="193" y="574"/>
      <point x="66" y="415"/>
      <point x="66" y="228" type="curve" smooth="yes"/>
      <point x="66" y="72"/>
      <point x="155" y="-6"/>
    </contour>
  </outline>
</glyph>
